<?xml version="1.0" encoding="UTF-8" standalone="no"?>
<!--
   This file is part of Warzone 2100.
   Copyright (C) 2008  Elio Gubser
   Copyright (C) 2008  Warzone Resurrection Project

   Warzone 2100 is free software; you can redistribute it and/or modify
   it under the terms of the GNU General Public License as published by
   the Free Software Foundation; either version 2 of the License, or
   (at your option) any later version.

   Warzone 2100 is distributed in the hope that it will be useful,
   but WITHOUT ANY WARRANTY; without even the implied warranty of
   MERCHANTABILITY or FITNESS FOR A PARTICULAR PURPOSE. See the
   GNU General Public License for more details.

   You should have received a copy of the GNU General Public License
   along with Warzone 2100; if not, write to the Free Software
   Foundation, Inc., 51 Franklin St, Fifth Floor, Boston, MA 02110-1301 USA
-->
<svg
   xmlns:dc="http://purl.org/dc/elements/1.1/"
   xmlns:cc="http://web.resource.org/cc/"
   xmlns:rdf="http://www.w3.org/1999/02/22-rdf-syntax-ns#"
   xmlns:svg="http://www.w3.org/2000/svg"
   xmlns="http://www.w3.org/2000/svg"
   xmlns:xlink="http://www.w3.org/1999/xlink"
   xmlns:sodipodi="http://sodipodi.sourceforge.net/DTD/sodipodi-0.dtd"
   xmlns:inkscape="http://www.inkscape.org/namespaces/inkscape"
   id="svg2286"
   sodipodi:version="0.32"
   inkscape:version="0.45.1"
   width="256"
   height="256"
   version="1.0"
   inkscape:output_extension="org.inkscape.output.svg.inkscape">
  <sodipodi:namedview
     inkscape:window-height="949"
     inkscape:window-width="1280"
     inkscape:pageshadow="2"
     inkscape:pageopacity="0.0"
     guidetolerance="10.0"
     gridtolerance="10.0"
     objecttolerance="10.0"
     borderopacity="1.0"
     bordercolor="#666666"
     pagecolor="#ffffff"
     id="base"
     inkscape:zoom="2"
     inkscape:cx="161.92593"
     inkscape:cy="125.03037"
     inkscape:window-x="0"
     inkscape:window-y="25"
     inkscape:current-layer="svg2286"
     showguides="false"
     inkscape:guide-bbox="true" />
  <metadata
     id="metadata2291">
    <rdf:RDF>
      <cc:Work
         rdf:about="">
        <dc:format>image/svg+xml</dc:format>
        <dc:type
           rdf:resource="http://purl.org/dc/dcmitype/StillImage" />
      </cc:Work>
    </rdf:RDF>
  </metadata>
  <defs
     id="defs2289">
    <linearGradient
       inkscape:collect="always"
       id="linearGradient20861">
      <stop
         style="stop-color:#000000;stop-opacity:1;"
         offset="0"
         id="stop20863" />
      <stop
         style="stop-color:#000000;stop-opacity:0;"
         offset="1"
         id="stop20865" />
    </linearGradient>
    <linearGradient
       id="linearGradient11098">
      <stop
         style="stop-color:#5bfdf9;stop-opacity:1"
         offset="0"
         id="stop11100" />
      <stop
         style="stop-color:#0a827d;stop-opacity:1;"
         offset="1"
         id="stop11102" />
    </linearGradient>
    <linearGradient
       inkscape:collect="always"
       id="linearGradient8169">
      <stop
         style="stop-color:#000000;stop-opacity:1;"
         offset="0"
         id="stop8171" />
      <stop
         style="stop-color:#000000;stop-opacity:0;"
         offset="1"
         id="stop8173" />
    </linearGradient>
    <linearGradient
       id="linearGradient29172">
      <stop
         id="stop29174"
         offset="0"
         style="stop-color:#1bf3ff;stop-opacity:1;" />
      <stop
         style="stop-color:#0b9097;stop-opacity:1;"
         offset="0.5"
         id="stop29176" />
      <stop
         style="stop-color:#09ecff;stop-opacity:1;"
         offset="1"
         id="stop29178" />
    </linearGradient>
    <linearGradient
       id="linearGradient28153">
      <stop
         id="stop28155"
         offset="0"
         style="stop-color:#ff1be9;stop-opacity:1;" />
      <stop
         style="stop-color:#970b86;stop-opacity:1;"
         offset="0.5"
         id="stop28157" />
      <stop
         style="stop-color:#ff09cd;stop-opacity:1;"
         offset="1"
         id="stop28159" />
    </linearGradient>
    <linearGradient
       id="linearGradient26177">
      <stop
         id="stop26179"
         offset="0"
         style="stop-color:#1b4fff;stop-opacity:1;" />
      <stop
         style="stop-color:#0b3297;stop-opacity:1;"
         offset="0.5"
         id="stop26181" />
      <stop
         style="stop-color:#094eff;stop-opacity:1;"
         offset="1"
         id="stop26183" />
    </linearGradient>
    <linearGradient
       id="linearGradient25170">
      <stop
         id="stop25172"
         offset="0"
         style="stop-color:#ff1b1b;stop-opacity:1;" />
      <stop
         style="stop-color:#970b0b;stop-opacity:1;"
         offset="0.5"
         id="stop25174" />
      <stop
         style="stop-color:#ff0909;stop-opacity:1;"
         offset="1"
         id="stop25176" />
    </linearGradient>
    <linearGradient
       id="linearGradient23122">
      <stop
         id="stop23124"
         offset="0"
         style="stop-color:#8d8d8d;stop-opacity:1;" />
      <stop
         style="stop-color:#515151;stop-opacity:1;"
         offset="0.5"
         id="stop23126" />
      <stop
         style="stop-color:#848484;stop-opacity:1;"
         offset="1"
         id="stop23128" />
    </linearGradient>
    <linearGradient
       id="linearGradient21158">
      <stop
         id="stop21160"
         offset="0"
         style="stop-color:#29ff1b;stop-opacity:1;" />
      <stop
         style="stop-color:#22970b;stop-opacity:1;"
         offset="0.5"
         id="stop21162" />
      <stop
         style="stop-color:#09ff34;stop-opacity:1;"
         offset="1"
         id="stop21164" />
    </linearGradient>
    <linearGradient
       id="linearGradient16211">
      <stop
         style="stop-color:#ff821b;stop-opacity:1;"
         offset="0"
         id="stop16213" />
      <stop
         id="stop16229"
         offset="0.5"
         style="stop-color:#973b0b;stop-opacity:1;" />
      <stop
         id="stop16217"
         offset="1"
         style="stop-color:#ff7f09;stop-opacity:1;" />
    </linearGradient>
    <linearGradient
       id="linearGradient12165">
      <stop
         style="stop-color:#000000;stop-opacity:1;"
         offset="0"
         id="stop12167" />
      <stop
         style="stop-color:#000000;stop-opacity:0.52212387;"
         offset="1"
         id="stop12169" />
    </linearGradient>
    <linearGradient
       id="linearGradient8263">
      <stop
         id="stop8265"
         offset="0"
         style="stop-color:#a4faf7;stop-opacity:1;" />
      <stop
         id="stop8267"
         offset="1"
         style="stop-color:#0a827d;stop-opacity:1;" />
    </linearGradient>
    <linearGradient
       id="linearGradient4340">
      <stop
         style="stop-color:#2f3357;stop-opacity:1;"
         offset="0"
         id="stop4342" />
      <stop
         style="stop-color:#3d4485;stop-opacity:1;"
         offset="1"
         id="stop4344" />
    </linearGradient>
    <linearGradient
       inkscape:collect="always"
       xlink:href="#linearGradient4340"
       id="linearGradient12215"
       gradientUnits="userSpaceOnUse"
       x1="72.009903"
       y1="87.07682"
       x2="107.03626"
       y2="87.07682" />
    <linearGradient
       inkscape:collect="always"
       xlink:href="#linearGradient12165"
       id="linearGradient12217"
       gradientUnits="userSpaceOnUse"
       gradientTransform="matrix(0.9996956,-2.4671158e-2,2.4671158e-2,0.9996956,-2.1411638,2.2535851)"
       x1="90.260445"
       y1="78.80098"
       x2="90.260445"
       y2="97.002457" />
    <linearGradient
       inkscape:collect="always"
       xlink:href="#linearGradient8263"
       id="linearGradient12219"
       gradientUnits="userSpaceOnUse"
       x1="89.670761"
       y1="77.888206"
       x2="89.670761"
       y2="97.089684" />
    <linearGradient
       inkscape:collect="always"
       xlink:href="#linearGradient8263"
       id="linearGradient12224"
       gradientUnits="userSpaceOnUse"
       gradientTransform="matrix(0.6373943,0,0,0.6373943,-39.394272,31.57148)"
       x1="89.670761"
       y1="77.888206"
       x2="89.670761"
       y2="97.089684" />
    <linearGradient
       inkscape:collect="always"
       xlink:href="#linearGradient12165"
       id="linearGradient12227"
       gradientUnits="userSpaceOnUse"
       gradientTransform="matrix(0.6217601,-1.5344213e-2,1.5344213e-2,0.6217601,-39.260555,34.380309)"
       x1="90.260445"
       y1="78.80098"
       x2="90.260445"
       y2="97.002457" />
    <linearGradient
       inkscape:collect="always"
       xlink:href="#linearGradient4340"
       id="linearGradient12230"
       gradientUnits="userSpaceOnUse"
       gradientTransform="translate(-71.954863,-0.1882683)"
       x1="72.009903"
       y1="87.07682"
       x2="107.03626"
       y2="87.07682" />
    <linearGradient
       inkscape:collect="always"
       xlink:href="#linearGradient8263"
       id="linearGradient12233"
       gradientUnits="userSpaceOnUse"
       gradientTransform="matrix(0.8289504,0,0,0.8289504,-20.590754,14.877446)"
       x1="89.670761"
       y1="77.888206"
       x2="89.670761"
       y2="97.089684" />
    <linearGradient
       inkscape:collect="always"
       xlink:href="#linearGradient12165"
       id="linearGradient12236"
       gradientUnits="userSpaceOnUse"
       gradientTransform="matrix(0.8086177,-1.995561e-2,1.995561e-2,0.8086177,-20.41685,18.530412)"
       x1="90.260445"
       y1="78.80098"
       x2="90.260445"
       y2="97.002457" />
    <linearGradient
       inkscape:collect="always"
       xlink:href="#linearGradient4340"
       id="linearGradient12239"
       gradientUnits="userSpaceOnUse"
       gradientTransform="translate(-35.928901,-0.1986932)"
       x1="72.009903"
       y1="87.07682"
       x2="107.03626"
       y2="87.07682" />
    <linearGradient
       inkscape:collect="always"
       xlink:href="#linearGradient8263"
       id="linearGradient14254"
       x1="26.693281"
       y1="64.329872"
       x2="28.549437"
       y2="65.213753"
       gradientUnits="userSpaceOnUse" />
    <linearGradient
       inkscape:collect="always"
       xlink:href="#linearGradient16211"
       id="linearGradient17206"
       x1="31.819805"
       y1="57.727852"
       x2="44.636116"
       y2="63.915035"
       gradientUnits="userSpaceOnUse" />
    <linearGradient
       inkscape:collect="always"
       xlink:href="#linearGradient12165"
       id="linearGradient18207"
       gradientUnits="userSpaceOnUse"
       x1="31.819805"
       y1="57.727852"
       x2="44.636116"
       y2="63.915035"
       gradientTransform="translate(0.2209709,0.8137251)" />
    <linearGradient
       inkscape:collect="always"
       xlink:href="#linearGradient12165"
       id="linearGradient19194"
       gradientUnits="userSpaceOnUse"
       x1="26.693281"
       y1="64.329872"
       x2="28.549437"
       y2="65.213753"
       gradientTransform="translate(0.4505634,0.541452)" />
    <linearGradient
       inkscape:collect="always"
       xlink:href="#linearGradient12165"
       id="linearGradient23178"
       gradientUnits="userSpaceOnUse"
       gradientTransform="translate(-22.506378,0.4371781)"
       x1="26.693281"
       y1="64.329872"
       x2="28.549437"
       y2="65.213753" />
    <linearGradient
       inkscape:collect="always"
       xlink:href="#linearGradient8263"
       id="linearGradient23180"
       gradientUnits="userSpaceOnUse"
       gradientTransform="translate(-22.956941,-0.1042739)"
       x1="26.693281"
       y1="64.329872"
       x2="28.549437"
       y2="65.213753" />
    <linearGradient
       inkscape:collect="always"
       xlink:href="#linearGradient12165"
       id="linearGradient23182"
       gradientUnits="userSpaceOnUse"
       gradientTransform="translate(-22.73597,0.7094512)"
       x1="31.819805"
       y1="57.727852"
       x2="44.636116"
       y2="63.915035" />
    <linearGradient
       inkscape:collect="always"
       xlink:href="#linearGradient21158"
       id="linearGradient23184"
       gradientUnits="userSpaceOnUse"
       gradientTransform="translate(-22.956941,-0.1042739)"
       x1="31.819805"
       y1="57.727852"
       x2="44.636116"
       y2="63.915035" />
    <linearGradient
       inkscape:collect="always"
       xlink:href="#linearGradient12165"
       id="linearGradient23186"
       gradientUnits="userSpaceOnUse"
       gradientTransform="translate(0.4505634,0.541452)"
       x1="26.693281"
       y1="64.329872"
       x2="28.549437"
       y2="65.213753" />
    <linearGradient
       inkscape:collect="always"
       xlink:href="#linearGradient8263"
       id="linearGradient23188"
       gradientUnits="userSpaceOnUse"
       x1="26.693281"
       y1="64.329872"
       x2="28.549437"
       y2="65.213753" />
    <linearGradient
       inkscape:collect="always"
       xlink:href="#linearGradient23122"
       id="linearGradient23190"
       gradientUnits="userSpaceOnUse"
       gradientTransform="translate(0.2209709,0.8137251)"
       x1="31.819805"
       y1="57.727852"
       x2="44.636116"
       y2="63.915035" />
    <linearGradient
       inkscape:collect="always"
       xlink:href="#linearGradient23122"
       id="linearGradient23192"
       gradientUnits="userSpaceOnUse"
       x1="31.819805"
       y1="57.727852"
       x2="44.636116"
       y2="63.915035" />
    <linearGradient
       inkscape:collect="always"
       xlink:href="#linearGradient12165"
       id="linearGradient23194"
       gradientUnits="userSpaceOnUse"
       gradientTransform="translate(0.4505634,0.541452)"
       x1="26.693281"
       y1="64.329872"
       x2="28.549437"
       y2="65.213753" />
    <linearGradient
       inkscape:collect="always"
       xlink:href="#linearGradient8263"
       id="linearGradient23196"
       gradientUnits="userSpaceOnUse"
       x1="26.693281"
       y1="64.329872"
       x2="28.549437"
       y2="65.213753" />
    <linearGradient
       inkscape:collect="always"
       xlink:href="#linearGradient12165"
       id="linearGradient23198"
       gradientUnits="userSpaceOnUse"
       gradientTransform="translate(0.2209709,0.8137251)"
       x1="31.819805"
       y1="57.727852"
       x2="44.636116"
       y2="63.915035" />
    <linearGradient
       inkscape:collect="always"
       xlink:href="#linearGradient16211"
       id="linearGradient23200"
       gradientUnits="userSpaceOnUse"
       x1="31.819805"
       y1="57.727852"
       x2="44.636116"
       y2="63.915035" />
    <linearGradient
       inkscape:collect="always"
       xlink:href="#linearGradient25170"
       id="linearGradient24190"
       gradientUnits="userSpaceOnUse"
       x1="31.819805"
       y1="57.727852"
       x2="44.636116"
       y2="63.915035"
       gradientTransform="translate(69.480559,-0.376748)" />
    <linearGradient
       inkscape:collect="always"
       xlink:href="#linearGradient12165"
       id="linearGradient24193"
       gradientUnits="userSpaceOnUse"
       gradientTransform="translate(69.70153,0.4369771)"
       x1="31.819805"
       y1="57.727852"
       x2="44.636116"
       y2="63.915035" />
    <linearGradient
       inkscape:collect="always"
       xlink:href="#linearGradient8263"
       id="linearGradient24196"
       gradientUnits="userSpaceOnUse"
       x1="26.693281"
       y1="64.329872"
       x2="28.549437"
       y2="65.213753"
       gradientTransform="translate(69.480559,-0.376748)" />
    <linearGradient
       inkscape:collect="always"
       xlink:href="#linearGradient12165"
       id="linearGradient24199"
       gradientUnits="userSpaceOnUse"
       gradientTransform="translate(69.931122,0.164704)"
       x1="26.693281"
       y1="64.329872"
       x2="28.549437"
       y2="65.213753" />
    <linearGradient
       inkscape:collect="always"
       xlink:href="#linearGradient26177"
       id="linearGradient25197"
       gradientUnits="userSpaceOnUse"
       x1="31.819805"
       y1="57.727852"
       x2="44.636116"
       y2="63.915035"
       gradientTransform="translate(92.605559,-0.376748)" />
    <linearGradient
       inkscape:collect="always"
       xlink:href="#linearGradient12165"
       id="linearGradient25200"
       gradientUnits="userSpaceOnUse"
       gradientTransform="translate(92.82653,0.4369771)"
       x1="31.819805"
       y1="57.727852"
       x2="44.636116"
       y2="63.915035" />
    <linearGradient
       inkscape:collect="always"
       xlink:href="#linearGradient8263"
       id="linearGradient25203"
       gradientUnits="userSpaceOnUse"
       x1="26.693281"
       y1="64.329872"
       x2="28.549437"
       y2="65.213753"
       gradientTransform="translate(92.605559,-0.376748)" />
    <linearGradient
       inkscape:collect="always"
       xlink:href="#linearGradient12165"
       id="linearGradient25206"
       gradientUnits="userSpaceOnUse"
       gradientTransform="translate(93.056122,0.164704)"
       x1="26.693281"
       y1="64.329872"
       x2="28.549437"
       y2="65.213753" />
    <linearGradient
       inkscape:collect="always"
       xlink:href="#linearGradient28153"
       id="linearGradient27173"
       gradientUnits="userSpaceOnUse"
       x1="31.819805"
       y1="57.727852"
       x2="44.636116"
       y2="63.915035"
       gradientTransform="translate(115.35556,-0.376748)" />
    <linearGradient
       inkscape:collect="always"
       xlink:href="#linearGradient12165"
       id="linearGradient27176"
       gradientUnits="userSpaceOnUse"
       gradientTransform="translate(115.57653,0.4369771)"
       x1="31.819805"
       y1="57.727852"
       x2="44.636116"
       y2="63.915035" />
    <linearGradient
       inkscape:collect="always"
       xlink:href="#linearGradient8263"
       id="linearGradient27179"
       gradientUnits="userSpaceOnUse"
       x1="26.693281"
       y1="64.329872"
       x2="28.549437"
       y2="65.213753"
       gradientTransform="translate(115.35556,-0.376748)" />
    <linearGradient
       inkscape:collect="always"
       xlink:href="#linearGradient12165"
       id="linearGradient27182"
       gradientUnits="userSpaceOnUse"
       gradientTransform="translate(115.80612,0.164704)"
       x1="26.693281"
       y1="64.329872"
       x2="28.549437"
       y2="65.213753" />
    <linearGradient
       inkscape:collect="always"
       xlink:href="#linearGradient12165"
       id="linearGradient28171"
       gradientUnits="userSpaceOnUse"
       gradientTransform="translate(0.4505634,0.541452)"
       x1="26.693281"
       y1="64.329872"
       x2="28.549437"
       y2="65.213753" />
    <linearGradient
       inkscape:collect="always"
       xlink:href="#linearGradient8263"
       id="linearGradient28173"
       gradientUnits="userSpaceOnUse"
       x1="26.693281"
       y1="64.329872"
       x2="28.549437"
       y2="65.213753" />
    <linearGradient
       inkscape:collect="always"
       xlink:href="#linearGradient12165"
       id="linearGradient28175"
       gradientUnits="userSpaceOnUse"
       gradientTransform="translate(0.2209709,0.8137251)"
       x1="31.819805"
       y1="57.727852"
       x2="44.636116"
       y2="63.915035" />
    <linearGradient
       inkscape:collect="always"
       xlink:href="#linearGradient16211"
       id="linearGradient28177"
       gradientUnits="userSpaceOnUse"
       x1="31.819805"
       y1="57.727852"
       x2="44.636116"
       y2="63.915035" />
    <linearGradient
       inkscape:collect="always"
       xlink:href="#linearGradient29172"
       id="linearGradient28192"
       gradientUnits="userSpaceOnUse"
       x1="31.819805"
       y1="57.727852"
       x2="44.636116"
       y2="63.915035"
       gradientTransform="translate(138.66806,-0.376748)" />
    <linearGradient
       inkscape:collect="always"
       xlink:href="#linearGradient12165"
       id="linearGradient28195"
       gradientUnits="userSpaceOnUse"
       gradientTransform="translate(138.88903,0.4369771)"
       x1="31.819805"
       y1="57.727852"
       x2="44.636116"
       y2="63.915035" />
    <linearGradient
       inkscape:collect="always"
       xlink:href="#linearGradient8263"
       id="linearGradient28198"
       gradientUnits="userSpaceOnUse"
       x1="26.693281"
       y1="64.329872"
       x2="28.549437"
       y2="65.213753"
       gradientTransform="translate(138.66806,-0.376748)" />
    <linearGradient
       inkscape:collect="always"
       xlink:href="#linearGradient12165"
       id="linearGradient28201"
       gradientUnits="userSpaceOnUse"
       gradientTransform="translate(139.11862,0.164704)"
       x1="26.693281"
       y1="64.329872"
       x2="28.549437"
       y2="65.213753" />
    <linearGradient
       inkscape:collect="always"
       xlink:href="#linearGradient23122"
       id="linearGradient29192"
       gradientUnits="userSpaceOnUse"
       x1="31.819805"
       y1="57.727852"
       x2="44.636116"
       y2="63.915035"
       gradientTransform="translate(23.543059,-0.354274)" />
    <linearGradient
       inkscape:collect="always"
       xlink:href="#linearGradient12165"
       id="linearGradient29195"
       gradientUnits="userSpaceOnUse"
       gradientTransform="translate(23.76403,0.4594511)"
       x1="31.819805"
       y1="57.727852"
       x2="44.636116"
       y2="63.915035" />
    <linearGradient
       inkscape:collect="always"
       xlink:href="#linearGradient8263"
       id="linearGradient29198"
       gradientUnits="userSpaceOnUse"
       x1="26.693281"
       y1="64.329872"
       x2="28.549437"
       y2="65.213753"
       gradientTransform="translate(23.543059,-0.354274)" />
    <linearGradient
       inkscape:collect="always"
       xlink:href="#linearGradient12165"
       id="linearGradient29201"
       gradientUnits="userSpaceOnUse"
       gradientTransform="translate(23.993622,0.187178)"
       x1="26.693281"
       y1="64.329872"
       x2="28.549437"
       y2="65.213753" />
    <linearGradient
       inkscape:collect="always"
       xlink:href="#linearGradient4340"
       id="linearGradient2295"
       gradientUnits="userSpaceOnUse"
       gradientTransform="translate(-72.022187,24.880563)"
       x1="72.009903"
       y1="87.07682"
       x2="107.03626"
       y2="87.07682" />
    <linearGradient
       inkscape:collect="always"
       xlink:href="#linearGradient8263"
       id="linearGradient5216"
       x1="12.844216"
       y1="101.71698"
       x2="12.844216"
       y2="121.5097"
       gradientUnits="userSpaceOnUse" />
    <linearGradient
       inkscape:collect="always"
       xlink:href="#linearGradient8263"
       id="linearGradient5218"
       x1="8.1315289"
       y1="109.2961"
       x2="8.1315289"
       y2="113.93018"
       gradientUnits="userSpaceOnUse" />
    <linearGradient
       inkscape:collect="always"
       xlink:href="#linearGradient8263"
       id="linearGradient5220"
       x1="13.873604"
       y1="111.58074"
       x2="31.839663"
       y2="111.58074"
       gradientUnits="userSpaceOnUse" />
    <linearGradient
       inkscape:collect="always"
       xlink:href="#linearGradient4340"
       id="linearGradient7198"
       gradientUnits="userSpaceOnUse"
       gradientTransform="translate(-36.148079,24.923181)"
       x1="72.009903"
       y1="87.07682"
       x2="107.03626"
       y2="87.07682" />
    <linearGradient
       inkscape:collect="always"
       xlink:href="#linearGradient8169"
       id="linearGradient8175"
       x1="0"
       y1="128"
       x2="256"
       y2="128"
       gradientUnits="userSpaceOnUse" />
    <linearGradient
       inkscape:collect="always"
       xlink:href="#linearGradient11098"
       id="linearGradient9155"
       x1="55.356621"
       y1="102.12261"
       x2="55.003067"
       y2="121.29082"
       gradientUnits="userSpaceOnUse" />
    <linearGradient
       inkscape:collect="always"
       xlink:href="#linearGradient4340"
       id="linearGradient17929"
       gradientUnits="userSpaceOnUse"
       gradientTransform="translate(0.102705,24.938561)"
       x1="72.009903"
       y1="87.07682"
       x2="107.03626"
       y2="87.07682" />
    <linearGradient
       inkscape:collect="always"
       xlink:href="#linearGradient11098"
       id="linearGradient20859"
       x1="87.652214"
       y1="101.78895"
       x2="87.652214"
       y2="119.77209"
       gradientUnits="userSpaceOnUse" />
    <linearGradient
       inkscape:collect="always"
       xlink:href="#linearGradient20861"
       id="linearGradient20867"
       x1="0"
       y1="128"
       x2="256"
       y2="128"
       gradientUnits="userSpaceOnUse" />
    <linearGradient
       inkscape:collect="always"
       xlink:href="#linearGradient11098"
       id="linearGradient20875"
       x1="92.767433"
       y1="102.04266"
       x2="91.820328"
       y2="115.8893"
       gradientUnits="userSpaceOnUse" />
    <linearGradient
       inkscape:collect="always"
       xlink:href="#linearGradient11098"
       id="linearGradient24767"
       x1="89.356094"
       y1="119.9698"
       x2="95.393799"
       y2="119.9698"
       gradientUnits="userSpaceOnUse"
       gradientTransform="translate(-2.298097,-0.8396893)" />
    <linearGradient
       inkscape:collect="always"
       xlink:href="#linearGradient11098"
       id="linearGradient24769"
       x1="84.811546"
       y1="118.72817"
       x2="92.754517"
       y2="118.72817"
       gradientUnits="userSpaceOnUse"
       gradientTransform="translate(-1.5026019,-1.016466)" />
    <linearGradient
       inkscape:collect="always"
       xlink:href="#linearGradient11098"
       id="linearGradient24771"
       x1="80.630508"
       y1="116.68376"
       x2="89.544907"
       y2="116.68376"
       gradientUnits="userSpaceOnUse" />
    <linearGradient
       inkscape:collect="always"
       xlink:href="#linearGradient11098"
       id="linearGradient24773"
       x1="78.70433"
       y1="114.86255"
       x2="86.011047"
       y2="114.86255"
       gradientUnits="userSpaceOnUse" />
    <linearGradient
       inkscape:collect="always"
       xlink:href="#linearGradient8263"
       id="linearGradient26765"
       gradientUnits="userSpaceOnUse"
       x1="13.873604"
       y1="111.58074"
       x2="31.839663"
       y2="111.58074" />
    <linearGradient
       inkscape:collect="always"
       xlink:href="#linearGradient8263"
       id="linearGradient26767"
       gradientUnits="userSpaceOnUse"
       x1="8.1315289"
       y1="109.2961"
       x2="8.1315289"
       y2="113.93018" />
    <linearGradient
       inkscape:collect="always"
       xlink:href="#linearGradient8263"
       id="linearGradient26769"
       gradientUnits="userSpaceOnUse"
       x1="12.844216"
       y1="101.71698"
       x2="12.844216"
       y2="121.5097" />
    <linearGradient
       inkscape:collect="always"
       xlink:href="#linearGradient11098"
       id="linearGradient26773"
       gradientUnits="userSpaceOnUse"
       x1="55.356621"
       y1="102.12261"
       x2="55.003067"
       y2="121.29082"
       gradientTransform="translate(108.26318,0.2930834)" />
    <linearGradient
       inkscape:collect="always"
       xlink:href="#linearGradient11098"
       id="linearGradient26789"
       gradientUnits="userSpaceOnUse"
       x1="87.652214"
       y1="101.78895"
       x2="87.652214"
       y2="119.77209" />
    <linearGradient
       inkscape:collect="always"
       xlink:href="#linearGradient11098"
       id="linearGradient26791"
       gradientUnits="userSpaceOnUse"
       x1="92.767433"
       y1="102.04266"
       x2="91.820328"
       y2="115.8893" />
    <linearGradient
       inkscape:collect="always"
       xlink:href="#linearGradient11098"
       id="linearGradient26793"
       gradientUnits="userSpaceOnUse"
       x1="78.70433"
       y1="114.86255"
       x2="86.011047"
       y2="114.86255" />
    <linearGradient
       inkscape:collect="always"
       xlink:href="#linearGradient11098"
       id="linearGradient26795"
       gradientUnits="userSpaceOnUse"
       x1="80.630508"
       y1="116.68376"
       x2="89.544907"
       y2="116.68376" />
    <linearGradient
       inkscape:collect="always"
       xlink:href="#linearGradient11098"
       id="linearGradient26797"
       gradientUnits="userSpaceOnUse"
       gradientTransform="translate(-1.5026019,-1.016466)"
       x1="84.811546"
       y1="118.72817"
       x2="92.754517"
       y2="118.72817" />
    <linearGradient
       inkscape:collect="always"
       xlink:href="#linearGradient11098"
       id="linearGradient26799"
       gradientUnits="userSpaceOnUse"
       gradientTransform="translate(-2.298097,-0.8396893)"
       x1="89.356094"
       y1="119.9698"
       x2="95.393799"
       y2="119.9698" />
  </defs>
  <image
     y="0"
     x="0"
     height="256"
     xlink:href="frontend2.png"
     width="256"
     id="image2293" />
  <g
     id="g2304"
     inkscape:groupmode="layer"
     inkscape:label="fill text">
    <g
       id="g12190"
       transform="translate(0,-0.188269)">
      <path
         sodipodi:nodetypes="ccccccccc"
         id="path2354"
         d="M 75.518428,75.557739 L 103.5086,75.557739 C 105.46895,75.565334 106.56628,76.481383 106.53563,78.584766 L 106.53563,95.606879 C 106.49049,97.55355 105.58403,98.638901 103.54791,98.594594 L 75.479116,98.594594 C 73.428115,98.555136 72.572111,97.446472 72.511057,95.626535 L 72.511057,78.624078 C 72.47332,76.71037 73.356044,75.585629 75.518428,75.557739 z "
         style="fill:url(#linearGradient12215);fill-opacity:1;fill-rule:evenodd;stroke:#6767a3;stroke-width:1px;stroke-linecap:butt;stroke-linejoin:round;stroke-opacity:1" />
      <path
         id="path11192"
         d="M 86.852611,78.882312 L 97.031329,78.631115 L 92.718909,85.540593 L 97.199117,85.430028 L 86.083359,97.108312 L 90.311401,86.779727 L 83.237388,86.954305 L 86.852611,78.882312 z "
         style="fill:url(#linearGradient12217);fill-opacity:1;fill-rule:evenodd;stroke:none;stroke-width:1px;stroke-linecap:butt;stroke-linejoin:miter;stroke-opacity:0.99317406" />
      <path
         id="path2349"
         d="M 86.486487,78.388206 L 96.668305,78.388206 L 92.186732,85.189189 L 96.668305,85.189189 L 85.267813,96.58968 L 89.749386,86.36855 L 82.673219,86.36855 L 86.486487,78.388206 z "
         style="fill:url(#linearGradient12219);fill-opacity:1;fill-rule:evenodd;stroke:none;stroke-width:1px;stroke-linecap:butt;stroke-linejoin:miter;stroke-opacity:0.99317406" />
    </g>
    <path
       style="fill:url(#linearGradient12239);fill-opacity:1;fill-rule:evenodd;stroke:#6767a3;stroke-width:1px;stroke-linecap:butt;stroke-linejoin:round;stroke-opacity:1"
       d="M 39.589527,75.359046 L 67.579702,75.359046 C 69.540052,75.366641 70.637382,76.28269 70.606732,78.386073 L 70.606732,95.408186 C 70.561592,97.354857 69.655132,98.440208 67.619012,98.395901 L 39.550215,98.395901 C 37.499214,98.356443 36.64321,97.247779 36.582156,95.427842 L 36.582156,78.425385 C 36.544419,76.511677 37.427143,75.386936 39.589527,75.359046 z "
       id="path12173"
       sodipodi:nodetypes="ccccccccc" />
    <path
       style="fill:url(#linearGradient12236);fill-opacity:1;fill-rule:evenodd;stroke:none;stroke-width:1px;stroke-linecap:butt;stroke-linejoin:miter;stroke-opacity:0.99317406"
       d="M 51.567005,80.512626 L 59.800203,80.309442 L 56.312042,85.89827 L 59.935921,85.808838 L 50.944785,95.254981 L 54.364696,86.900561 L 48.642782,87.041771 L 51.567005,80.512626 z "
       id="path12175" />
    <path
       style="fill:url(#linearGradient12233);fill-opacity:1;fill-rule:evenodd;stroke:none;stroke-width:1px;stroke-linecap:butt;stroke-linejoin:miter;stroke-opacity:0.99317406"
       d="M 51.102255,79.857381 L 59.542477,79.857381 L 55.827475,85.495059 L 59.542477,85.495059 L 50.092035,94.945501 L 53.807036,86.472691 L 47.941245,86.472691 L 51.102255,79.857381 z "
       id="path12177" />
    <path
       style="fill:url(#linearGradient12230);fill-opacity:1;fill-rule:evenodd;stroke:#6767a3;stroke-width:1px;stroke-linecap:butt;stroke-linejoin:round;stroke-opacity:1"
       d="M 3.5635647,75.36947 L 31.55374,75.36947 C 33.51409,75.377065 34.61142,76.293114 34.58077,78.396497 L 34.58077,95.41861 C 34.53563,97.365281 33.62917,98.450632 31.59305,98.406325 L 3.5242527,98.406325 C 1.4732517,98.366867 0.61724773,97.258203 0.55619373,95.438266 L 0.55619373,78.435809 C 0.51845673,76.522101 1.4011807,75.39736 3.5635647,75.36947 z "
       id="path12199"
       sodipodi:nodetypes="ccccccccc" />
    <path
       style="fill:url(#linearGradient12227);fill-opacity:1;fill-rule:evenodd;stroke:none;stroke-width:1px;stroke-linecap:butt;stroke-linejoin:miter;stroke-opacity:0.99317406"
       d="M 16.089074,82.039503 L 22.419722,81.883271 L 19.737615,86.180618 L 22.524078,86.111852 L 15.610638,93.375154 L 18.240267,86.951296 L 13.840588,87.059875 L 16.089074,82.039503 z "
       id="path12201" />
    <path
       style="fill:url(#linearGradient12224);fill-opacity:1;fill-rule:evenodd;stroke:none;stroke-width:1px;stroke-linecap:butt;stroke-linejoin:miter;stroke-opacity:0.99317406"
       d="M 15.731719,81.535674 L 22.221552,81.535674 L 19.365023,85.870582 L 22.221552,85.870582 L 14.954944,93.13719 L 17.811472,86.6223 L 13.301164,86.6223 L 15.731719,81.535674 z "
       id="path12203" />
    <g
       id="g20165"
       transform="translate(0.5,-0.376748)">
      <path
         sodipodi:nodetypes="ccccc"
         id="path19192"
         d="M 23.785087,72.251748 L 32.535533,53.248253 L 34.214912,53.248253 L 25.994795,72.251748 L 23.785087,72.251748 z "
         style="fill:url(#linearGradient19194);fill-opacity:1;fill-rule:evenodd;stroke:none;stroke-width:1px;stroke-linecap:butt;stroke-linejoin:miter;stroke-opacity:1" />
      <path
         sodipodi:nodetypes="ccccc"
         id="path12306"
         d="M 23.334524,71.710296 L 32.08497,52.706801 L 33.764349,52.706801 L 25.544232,71.710296 L 23.334524,71.710296 z "
         style="fill:url(#linearGradient14254);fill-opacity:1;fill-rule:evenodd;stroke:none;stroke-width:1px;stroke-linecap:butt;stroke-linejoin:miter;stroke-opacity:1" />
      <path
         sodipodi:nodetypes="csccscc"
         id="path18205"
         d="M 33.896931,53.608914 C 33.896931,53.608914 39.111844,54.293924 39.818951,58.558662 C 40.528566,62.838527 45.829358,62.359361 45.829358,62.359361 L 42.735766,70.137535 C 42.735766,70.137535 34.397082,70.83317 34.073708,67.132331 C 33.675961,62.580331 30.184621,61.917419 30.184621,61.917419 L 33.896931,53.608914 z "
         style="fill:url(#linearGradient18207);fill-opacity:1;fill-rule:evenodd;stroke:none;stroke-width:0;stroke-linecap:butt;stroke-linejoin:bevel;stroke-miterlimit:4;stroke-dasharray:none;stroke-dashoffset:0;stroke-opacity:1" />
      <path
         sodipodi:nodetypes="csccscc"
         id="path12308"
         d="M 33.67596,52.795189 C 33.67596,52.795189 38.890873,53.480199 39.59798,57.744937 C 40.307595,62.024802 45.608387,61.545636 45.608387,61.545636 L 42.514795,69.32381 C 42.514795,69.32381 34.176111,70.019445 33.852737,66.318606 C 33.45499,61.766606 29.96365,61.103694 29.96365,61.103694 L 33.67596,52.795189 z "
         style="fill:url(#linearGradient17206);fill-opacity:1;fill-rule:evenodd;stroke:none;stroke-width:0;stroke-linecap:butt;stroke-linejoin:bevel;stroke-miterlimit:4;stroke-dasharray:none;stroke-dashoffset:0;stroke-opacity:1" />
    </g>
    <g
       id="g23172"
       transform="translate(0.25,-0.25)">
      <path
         sodipodi:nodetypes="ccccc"
         id="path20173"
         d="M 0.828146,72.147474 L 9.578592,53.143979 L 11.257971,53.143979 L 3.037854,72.147474 L 0.828146,72.147474 z "
         style="fill:url(#linearGradient23178);fill-opacity:1;fill-rule:evenodd;stroke:none;stroke-width:1px;stroke-linecap:butt;stroke-linejoin:miter;stroke-opacity:1" />
      <path
         sodipodi:nodetypes="ccccc"
         id="path20175"
         d="M 0.377583,71.606022 L 9.128029,52.602527 L 10.807408,52.602527 L 2.587291,71.606022 L 0.377583,71.606022 z "
         style="fill:url(#linearGradient23180);fill-opacity:1;fill-rule:evenodd;stroke:none;stroke-width:1px;stroke-linecap:butt;stroke-linejoin:miter;stroke-opacity:1" />
      <path
         sodipodi:nodetypes="csccscc"
         id="path20177"
         d="M 10.93999,53.50464 C 10.93999,53.50464 16.154903,54.18965 16.86201,58.454388 C 17.571625,62.734253 22.872417,62.255087 22.872417,62.255087 L 19.778825,70.033261 C 19.778825,70.033261 11.440141,70.728896 11.116767,67.028057 C 10.71902,62.476057 7.22768,61.813145 7.22768,61.813145 L 10.93999,53.50464 z "
         style="fill:url(#linearGradient23182);fill-opacity:1;fill-rule:evenodd;stroke:none;stroke-width:0;stroke-linecap:butt;stroke-linejoin:bevel;stroke-miterlimit:4;stroke-dasharray:none;stroke-dashoffset:0;stroke-opacity:1" />
      <path
         sodipodi:nodetypes="csccscc"
         id="path20179"
         d="M 10.719019,52.690915 C 10.719019,52.690915 15.933932,53.375925 16.641039,57.640663 C 17.350654,61.920528 22.651446,61.441362 22.651446,61.441362 L 19.557854,69.219536 C 19.557854,69.219536 11.21917,69.915171 10.895796,66.214332 C 10.498049,61.662332 7.006709,60.99942 7.006709,60.99942 L 10.719019,52.690915 z "
         style="fill:url(#linearGradient23184);fill-opacity:1;fill-rule:evenodd;stroke:none;stroke-width:0;stroke-linecap:butt;stroke-linejoin:bevel;stroke-miterlimit:4;stroke-dasharray:none;stroke-dashoffset:0;stroke-opacity:1" />
    </g>
    <path
       sodipodi:nodetypes="ccccc"
       id="path21168"
       d="M 47.328146,71.897474 L 56.078592,52.893979 L 57.757971,52.893979 L 49.537854,71.897474 L 47.328146,71.897474 z "
       style="fill:url(#linearGradient29201);fill-opacity:1;fill-rule:evenodd;stroke:none;stroke-width:1px;stroke-linecap:butt;stroke-linejoin:miter;stroke-opacity:1" />
    <path
       sodipodi:nodetypes="ccccc"
       id="path21170"
       d="M 46.877583,71.356022 L 55.628029,52.352527 L 57.307408,52.352527 L 49.087291,71.356022 L 46.877583,71.356022 z "
       style="fill:url(#linearGradient29198);fill-opacity:1;fill-rule:evenodd;stroke:none;stroke-width:1px;stroke-linecap:butt;stroke-linejoin:miter;stroke-opacity:1" />
    <path
       sodipodi:nodetypes="csccscc"
       id="path21172"
       d="M 57.43999,53.25464 C 57.43999,53.25464 62.654903,53.93965 63.36201,58.204388 C 64.071625,62.484253 69.372417,62.005087 69.372417,62.005087 L 66.278825,69.783261 C 66.278825,69.783261 57.940141,70.478896 57.616767,66.778057 C 57.21902,62.226057 53.72768,61.563145 53.72768,61.563145 L 57.43999,53.25464 z "
       style="fill:url(#linearGradient29195);fill-opacity:1;fill-rule:evenodd;stroke:none;stroke-width:0;stroke-linecap:butt;stroke-linejoin:bevel;stroke-miterlimit:4;stroke-dasharray:none;stroke-dashoffset:0;stroke-opacity:1" />
    <path
       sodipodi:nodetypes="csccscc"
       id="path21174"
       d="M 57.219019,52.440915 C 57.219019,52.440915 62.433932,53.125925 63.141039,57.390663 C 63.850654,61.670528 69.151446,61.191362 69.151446,61.191362 L 66.057854,68.969536 C 66.057854,68.969536 57.71917,69.665171 57.395796,65.964332 C 56.998049,61.412332 53.506709,60.74942 53.506709,60.74942 L 57.219019,52.440915 z "
       style="fill:url(#linearGradient29192);fill-opacity:1;fill-rule:evenodd;stroke:none;stroke-width:0;stroke-linecap:butt;stroke-linejoin:bevel;stroke-miterlimit:4;stroke-dasharray:none;stroke-dashoffset:0;stroke-opacity:1" />
    <g
       id="g23130"
       transform="translate(46.543059,-0.376748)">
      <path
         sodipodi:nodetypes="ccccc"
         id="path23132"
         d="M 23.785087,72.251748 L 32.535533,53.248253 L 34.214912,53.248253 L 25.994795,72.251748 L 23.785087,72.251748 z "
         style="fill:url(#linearGradient23194);fill-opacity:1;fill-rule:evenodd;stroke:none;stroke-width:1px;stroke-linecap:butt;stroke-linejoin:miter;stroke-opacity:1" />
      <path
         sodipodi:nodetypes="ccccc"
         id="path23134"
         d="M 23.334524,71.710296 L 32.08497,52.706801 L 33.764349,52.706801 L 25.544232,71.710296 L 23.334524,71.710296 z "
         style="fill:url(#linearGradient23196);fill-opacity:1;fill-rule:evenodd;stroke:none;stroke-width:1px;stroke-linecap:butt;stroke-linejoin:miter;stroke-opacity:1" />
      <path
         sodipodi:nodetypes="csccscc"
         id="path23136"
         d="M 33.896931,53.608914 C 33.896931,53.608914 39.111844,54.293924 39.818951,58.558662 C 40.528566,62.838527 45.829358,62.359361 45.829358,62.359361 L 42.735766,70.137535 C 42.735766,70.137535 34.397082,70.83317 34.073708,67.132331 C 33.675961,62.580331 30.184621,61.917419 30.184621,61.917419 L 33.896931,53.608914 z "
         style="fill:url(#linearGradient23198);fill-opacity:1;fill-rule:evenodd;stroke:none;stroke-width:0;stroke-linecap:butt;stroke-linejoin:bevel;stroke-miterlimit:4;stroke-dasharray:none;stroke-dashoffset:0;stroke-opacity:1" />
      <path
         sodipodi:nodetypes="csccscc"
         id="path23138"
         d="M 33.67596,52.795189 C 33.67596,52.795189 38.890873,53.480199 39.59798,57.744937 C 40.307595,62.024802 45.608387,61.545636 45.608387,61.545636 L 42.514795,69.32381 C 42.514795,69.32381 34.176111,70.019445 33.852737,66.318606 C 33.45499,61.766606 29.96365,61.103694 29.96365,61.103694 L 33.67596,52.795189 z "
         style="fill:url(#linearGradient23200);fill-opacity:1;fill-rule:evenodd;stroke:none;stroke-width:0;stroke-linecap:butt;stroke-linejoin:bevel;stroke-miterlimit:4;stroke-dasharray:none;stroke-dashoffset:0;stroke-opacity:1" />
    </g>
    <path
       style="fill:url(#linearGradient24199);fill-opacity:1;fill-rule:evenodd;stroke:none;stroke-width:1px;stroke-linecap:butt;stroke-linejoin:miter;stroke-opacity:1"
       d="M 93.265646,71.875 L 102.01609,52.871505 L 103.69547,52.871505 L 95.475354,71.875 L 93.265646,71.875 z "
       id="path23204"
       sodipodi:nodetypes="ccccc" />
    <path
       style="fill:url(#linearGradient24196);fill-opacity:1;fill-rule:evenodd;stroke:none;stroke-width:1px;stroke-linecap:butt;stroke-linejoin:miter;stroke-opacity:1"
       d="M 92.815083,71.333548 L 101.56553,52.330053 L 103.24491,52.330053 L 95.024791,71.333548 L 92.815083,71.333548 z "
       id="path23206"
       sodipodi:nodetypes="ccccc" />
    <path
       style="fill:url(#linearGradient24193);fill-opacity:1;fill-rule:evenodd;stroke:none;stroke-width:0;stroke-linecap:butt;stroke-linejoin:bevel;stroke-miterlimit:4;stroke-dasharray:none;stroke-dashoffset:0;stroke-opacity:1"
       d="M 103.37749,53.232166 C 103.37749,53.232166 108.5924,53.917176 109.29951,58.181914 C 110.00912,62.461779 115.30992,61.982613 115.30992,61.982613 L 112.21632,69.760787 C 112.21632,69.760787 103.87764,70.456422 103.55427,66.755583 C 103.15652,62.203583 99.66518,61.540671 99.66518,61.540671 L 103.37749,53.232166 z "
       id="path23208"
       sodipodi:nodetypes="csccscc" />
    <path
       style="fill:url(#linearGradient24190);fill-opacity:1;fill-rule:evenodd;stroke:none;stroke-width:0;stroke-linecap:butt;stroke-linejoin:bevel;stroke-miterlimit:4;stroke-dasharray:none;stroke-dashoffset:0;stroke-opacity:1"
       d="M 103.15652,52.418441 C 103.15652,52.418441 108.37143,53.103451 109.07854,57.368189 C 109.78815,61.648054 115.08895,61.168888 115.08895,61.168888 L 111.99535,68.947062 C 111.99535,68.947062 103.65667,69.642697 103.3333,65.941858 C 102.93555,61.389858 99.444209,60.726946 99.444209,60.726946 L 103.15652,52.418441 z "
       id="path23210"
       sodipodi:nodetypes="csccscc" />
    <g
       id="g28185">
      <path
         sodipodi:nodetypes="ccccc"
         id="path25180"
         d="M 116.39065,71.875 L 125.14109,52.871505 L 126.82047,52.871505 L 118.60035,71.875 L 116.39065,71.875 z "
         style="fill:url(#linearGradient25206);fill-opacity:1;fill-rule:evenodd;stroke:none;stroke-width:1px;stroke-linecap:butt;stroke-linejoin:miter;stroke-opacity:1" />
      <path
         sodipodi:nodetypes="ccccc"
         id="path25182"
         d="M 115.94008,71.333548 L 124.69053,52.330053 L 126.36991,52.330053 L 118.14979,71.333548 L 115.94008,71.333548 z "
         style="fill:url(#linearGradient25203);fill-opacity:1;fill-rule:evenodd;stroke:none;stroke-width:1px;stroke-linecap:butt;stroke-linejoin:miter;stroke-opacity:1" />
      <path
         sodipodi:nodetypes="csccscc"
         id="path25184"
         d="M 126.50249,53.232166 C 126.50249,53.232166 131.7174,53.917176 132.42451,58.181914 C 133.13412,62.461779 138.43492,61.982613 138.43492,61.982613 L 135.34132,69.760787 C 135.34132,69.760787 127.00264,70.456422 126.67927,66.755583 C 126.28152,62.203583 122.79018,61.540671 122.79018,61.540671 L 126.50249,53.232166 z "
         style="fill:url(#linearGradient25200);fill-opacity:1;fill-rule:evenodd;stroke:none;stroke-width:0;stroke-linecap:butt;stroke-linejoin:bevel;stroke-miterlimit:4;stroke-dasharray:none;stroke-dashoffset:0;stroke-opacity:1" />
      <path
         sodipodi:nodetypes="csccscc"
         id="path25186"
         d="M 126.28152,52.418441 C 126.28152,52.418441 131.49643,53.103451 132.20354,57.368189 C 132.91315,61.648054 138.21395,61.168888 138.21395,61.168888 L 135.12035,68.947062 C 135.12035,68.947062 126.78167,69.642697 126.4583,65.941858 C 126.06055,61.389858 122.56921,60.726946 122.56921,60.726946 L 126.28152,52.418441 z "
         style="fill:url(#linearGradient25197);fill-opacity:1;fill-rule:evenodd;stroke:none;stroke-width:0;stroke-linecap:butt;stroke-linejoin:bevel;stroke-miterlimit:4;stroke-dasharray:none;stroke-dashoffset:0;stroke-opacity:1" />
    </g>
    <g
       id="g28179">
      <path
         sodipodi:nodetypes="ccccc"
         id="path26187"
         d="M 139.14065,71.875 L 147.89109,52.871505 L 149.57047,52.871505 L 141.35036,71.875 L 139.14065,71.875 z "
         style="fill:url(#linearGradient27182);fill-opacity:1;fill-rule:evenodd;stroke:none;stroke-width:1px;stroke-linecap:butt;stroke-linejoin:miter;stroke-opacity:1" />
      <path
         sodipodi:nodetypes="ccccc"
         id="path26189"
         d="M 138.69008,71.333548 L 147.44053,52.330053 L 149.11991,52.330053 L 140.89979,71.333548 L 138.69008,71.333548 z "
         style="fill:url(#linearGradient27179);fill-opacity:1;fill-rule:evenodd;stroke:none;stroke-width:1px;stroke-linecap:butt;stroke-linejoin:miter;stroke-opacity:1" />
      <path
         sodipodi:nodetypes="csccscc"
         id="path26191"
         d="M 149.25249,53.232166 C 149.25249,53.232166 154.4674,53.917176 155.17451,58.181914 C 155.88413,62.461779 161.18492,61.982613 161.18492,61.982613 L 158.09133,69.760787 C 158.09133,69.760787 149.75264,70.456422 149.42927,66.755583 C 149.03152,62.203583 145.54018,61.540671 145.54018,61.540671 L 149.25249,53.232166 z "
         style="fill:url(#linearGradient27176);fill-opacity:1;fill-rule:evenodd;stroke:none;stroke-width:0;stroke-linecap:butt;stroke-linejoin:bevel;stroke-miterlimit:4;stroke-dasharray:none;stroke-dashoffset:0;stroke-opacity:1" />
      <path
         sodipodi:nodetypes="csccscc"
         id="path26193"
         d="M 149.03152,52.418441 C 149.03152,52.418441 154.24643,53.103451 154.95354,57.368189 C 155.66315,61.648054 160.96395,61.168888 160.96395,61.168888 L 157.87035,68.947062 C 157.87035,68.947062 149.53167,69.642697 149.2083,65.941858 C 148.81055,61.389858 145.31921,60.726946 145.31921,60.726946 L 149.03152,52.418441 z "
         style="fill:url(#linearGradient27173);fill-opacity:1;fill-rule:evenodd;stroke:none;stroke-width:0;stroke-linecap:butt;stroke-linejoin:bevel;stroke-miterlimit:4;stroke-dasharray:none;stroke-dashoffset:0;stroke-opacity:1" />
    </g>
    <g
       id="g29180">
      <path
         sodipodi:nodetypes="ccccc"
         id="path28163"
         d="M 162.45315,71.875 L 171.20359,52.871505 L 172.88297,52.871505 L 164.66286,71.875 L 162.45315,71.875 z "
         style="fill:url(#linearGradient28201);fill-opacity:1;fill-rule:evenodd;stroke:none;stroke-width:1px;stroke-linecap:butt;stroke-linejoin:miter;stroke-opacity:1" />
      <path
         sodipodi:nodetypes="ccccc"
         id="path28165"
         d="M 162.00258,71.333548 L 170.75303,52.330053 L 172.43241,52.330053 L 164.21229,71.333548 L 162.00258,71.333548 z "
         style="fill:url(#linearGradient28198);fill-opacity:1;fill-rule:evenodd;stroke:none;stroke-width:1px;stroke-linecap:butt;stroke-linejoin:miter;stroke-opacity:1" />
      <path
         sodipodi:nodetypes="csccscc"
         id="path28167"
         d="M 172.56499,53.232166 C 172.56499,53.232166 177.7799,53.917176 178.48701,58.181914 C 179.19663,62.461779 184.49742,61.982613 184.49742,61.982613 L 181.40383,69.760787 C 181.40383,69.760787 173.06514,70.456422 172.74177,66.755583 C 172.34402,62.203583 168.85268,61.540671 168.85268,61.540671 L 172.56499,53.232166 z "
         style="fill:url(#linearGradient28195);fill-opacity:1;fill-rule:evenodd;stroke:none;stroke-width:0;stroke-linecap:butt;stroke-linejoin:bevel;stroke-miterlimit:4;stroke-dasharray:none;stroke-dashoffset:0;stroke-opacity:1" />
      <path
         sodipodi:nodetypes="csccscc"
         id="path28169"
         d="M 172.34402,52.418441 C 172.34402,52.418441 177.55893,53.103451 178.26604,57.368189 C 178.97565,61.648054 184.27645,61.168888 184.27645,61.168888 L 181.18285,68.947062 C 181.18285,68.947062 172.84417,69.642697 172.5208,65.941858 C 172.12305,61.389858 168.63171,60.726946 168.63171,60.726946 L 172.34402,52.418441 z "
         style="fill:url(#linearGradient28192);fill-opacity:1;fill-rule:evenodd;stroke:none;stroke-width:0;stroke-linecap:butt;stroke-linejoin:bevel;stroke-miterlimit:4;stroke-dasharray:none;stroke-dashoffset:0;stroke-opacity:1" />
    </g>
    <path
       style="fill:url(#linearGradient2295);fill-opacity:1;fill-rule:evenodd;stroke:#6767a3;stroke-width:1px;stroke-linecap:butt;stroke-linejoin:round;stroke-opacity:1"
       d="M 3.4962417,100.4383 L 31.486416,100.4383 C 33.446766,100.4459 34.544096,101.36195 34.513446,103.46533 L 34.513446,120.48744 C 34.468306,122.43411 33.561846,123.51946 31.525726,123.47516 L 3.4569297,123.47516 C 1.4059287,123.4357 0.54992463,122.32703 0.48887063,120.5071 L 0.48887063,103.50464 C 0.45113363,101.59093 1.3338577,100.46619 3.4962417,100.4383 z "
       id="path2293"
       sodipodi:nodetypes="ccccccccc" />
    <path
       style="fill:url(#linearGradient7198);fill-opacity:1;fill-rule:evenodd;stroke:#6767a3;stroke-width:1px;stroke-linecap:butt;stroke-linejoin:round;stroke-opacity:1"
       d="M 39.370349,100.48092 L 67.360524,100.48092 C 69.320874,100.48852 70.418204,101.40457 70.387554,103.50795 L 70.387554,120.53006 C 70.342414,122.47673 69.435954,123.56208 67.399834,123.51778 L 39.331037,123.51778 C 37.280036,123.47832 36.424032,122.36965 36.362978,120.54972 L 36.362978,103.54726 C 36.325241,101.63355 37.207965,100.50881 39.370349,100.48092 z "
       id="path7196"
       sodipodi:nodetypes="ccccccccc" />
    <path
       style="fill:url(#linearGradient17929);fill-opacity:1;fill-rule:evenodd;stroke:#6767a3;stroke-width:1px;stroke-linecap:butt;stroke-linejoin:round;stroke-opacity:1"
       d="M 75.621132,100.4963 L 103.6113,100.4963 C 105.57165,100.5039 106.66898,101.41995 106.63833,103.52333 L 106.63833,120.54544 C 106.59319,122.49211 105.68673,123.57746 103.65061,123.53316 L 75.58182,123.53316 C 73.530819,123.4937 72.674815,122.38503 72.613761,120.5651 L 72.613761,103.56264 C 72.576024,101.64893 73.458748,100.52419 75.621132,100.4963 z "
       id="path17927"
       sodipodi:nodetypes="ccccccccc" />
    <path
       style="fill:none;fill-opacity:1;fill-rule:evenodd;stroke:#a4faf7;stroke-width:1px;stroke-linecap:butt;stroke-linejoin:round;stroke-opacity:1"
       d="M 111.62035,75.48092 L 139.61052,75.48092 C 141.57087,75.488515 142.6682,76.404564 142.63755,78.507947 L 142.63755,95.53006 C 142.59241,97.476731 141.68595,98.56208 139.64983,98.51778 L 111.58104,98.51778 C 109.53004,98.47832 108.67403,97.369653 108.61298,95.549716 L 108.61298,78.547259 C 108.57524,76.633551 109.45797,75.50881 111.62035,75.48092 z "
       id="path26803"
       sodipodi:nodetypes="ccccccccc" />
    <path
       style="fill:none;fill-opacity:1;fill-rule:evenodd;stroke:#a4faf7;stroke-width:1px;stroke-linecap:butt;stroke-linejoin:round;stroke-opacity:1"
       d="M 111.49535,100.60592 L 139.48552,100.60592 C 141.44587,100.61351 142.5432,101.52956 142.51255,103.63294 L 142.51255,120.65506 C 142.46741,122.60173 141.56095,123.68708 139.52483,123.64278 L 111.45604,123.64278 C 109.40504,123.60332 108.54903,122.49465 108.48798,120.67471 L 108.48798,103.67226 C 108.45024,101.75855 109.33297,100.63381 111.49535,100.60592 z "
       id="path27787"
       sodipodi:nodetypes="ccccccccc" />
    <path
       style="fill:none;fill-opacity:1;fill-rule:evenodd;stroke:#a4faf7;stroke-width:1px;stroke-linecap:butt;stroke-linejoin:round;stroke-opacity:1"
       d="M 147.62035,100.35592 L 175.61052,100.35592 C 177.57087,100.36351 178.6682,101.27956 178.63755,103.38294 L 178.63755,120.40506 C 178.59241,122.35173 177.68595,123.43708 175.64983,123.39278 L 147.58104,123.39278 C 145.53004,123.35332 144.67403,122.24465 144.61298,120.42471 L 144.61298,103.42226 C 144.57524,101.50855 145.45797,100.38381 147.62035,100.35592 z "
       id="path27789"
       sodipodi:nodetypes="ccccccccc" />
  </g>
  <g
     id="g5228"
     transform="matrix(0.9998179,1.9083544e-2,-1.9083544e-2,0.9998179,2.3533782,0.2459187)"
     style="fill:#000000;fill-opacity:1;stroke:#000000;stroke-opacity:1">
    <path
       sodipodi:nodetypes="czczcccccc"
       id="path5230"
       d="M 14.150381,110.51278 C 14.150381,110.51278 16.20541,108.8555 20.60273,109.09857 C 25.00005,109.34164 31.739662,111.48505 31.739662,111.48505 C 31.739662,111.48505 25.287313,113.73895 20.867895,114.04831 C 16.448477,114.35767 14.061992,112.72249 14.061992,112.72249 L 13.973604,111.92699 L 28.911235,111.92699 L 28.911235,111.30827 L 14.061992,111.21989 L 14.150381,110.51278 z "
       style="fill:#000000;fill-opacity:1;fill-rule:evenodd;stroke:#000000;stroke-width:0.2;stroke-linecap:butt;stroke-linejoin:miter;stroke-miterlimit:4;stroke-dasharray:none;stroke-opacity:1" />
    <path
       sodipodi:nodetypes="cssssssssssssssss"
       id="path5232"
       d="M 11.402097,110.60117 C 10.746767,110.33601 11.424194,109.78358 10.429825,109.54051 C 9.435456,109.29744 8.4189901,109.38583 7.4246212,109.6289 C 6.4302523,109.87197 7.1373591,110.31391 6.4523494,110.51278 C 5.7673397,110.71165 5.3981613,110.64536 4.6845824,110.42439 C 3.9710035,110.20342 4.175239,109.66015 3.5980339,109.6289 C 3.0208288,109.59765 2.6786492,109.63648 2.3757621,110.29939 C 2.072875,110.9623 2.0927512,111.55403 2.3864854,112.28055 C 2.6802196,113.00707 2.9319805,113.16129 3.5506989,113.20548 C 4.1694173,113.24967 4.1138494,112.66646 4.8613591,112.45732 C 5.6088688,112.24818 5.8778251,112.08168 6.5407377,112.36894 C 7.2036503,112.6562 6.4744464,113.29701 7.5130095,113.60637 C 8.5515726,113.91573 9.7006211,113.89363 10.69499,113.60637 C 11.689359,113.31911 10.910599,112.74458 11.490485,112.45732 C 12.070371,112.17006 12.624369,112.92136 13.014534,112.45732 C 13.404699,111.99328 13.454254,111.06521 13.051145,110.60117 C 12.648036,110.13713 12.057427,110.86633 11.402097,110.60117 z "
       style="fill:#000000;fill-opacity:1;fill-rule:evenodd;stroke:#000000;stroke-width:0.2;stroke-linecap:butt;stroke-linejoin:miter;stroke-miterlimit:4;stroke-dasharray:none;stroke-opacity:1" />
    <path
       sodipodi:nodetypes="czzzzzzzzszz"
       id="path5234"
       d="M 13.965359,111.57344 C 13.965359,115.70559 14.296815,117.51755 13.965359,119.88194 C 13.633903,122.24633 13.280349,121.07518 12.639534,121.03099 C 11.998718,120.9868 11.689359,120.63325 11.402097,119.70517 C 11.114835,118.77709 11.181126,118.18047 11.490485,117.31868 C 11.799844,116.45689 12.330175,119.04225 12.639534,116.25802 C 12.948893,113.47379 13.059378,108.92179 12.727922,106.18175 C 12.396465,103.44171 11.623067,106.02707 11.313708,105.29787 C 11.004349,104.56867 11.181126,103.97205 11.490485,103.26494 C 11.799844,102.55783 11.66221,102.89781 12.109203,102.46944 C 12.639533,101.96121 13.611805,101.07733 13.965359,103.35333 C 14.318912,105.62933 13.965359,107.44129 13.965359,111.57344 z "
       style="fill:#000000;fill-opacity:1;fill-rule:evenodd;stroke:#000000;stroke-width:0.30000001;stroke-linecap:butt;stroke-linejoin:miter;stroke-miterlimit:4;stroke-dasharray:none;stroke-opacity:1" />
  </g>
  <g
     id="g5223"
     style="stroke:#107470;stroke-opacity:1">
    <path
       sodipodi:nodetypes="czczcccccc"
       id="path2297"
       d="M 14.150381,110.51278 C 14.150381,110.51278 16.20541,108.8555 20.60273,109.09857 C 25.00005,109.34164 31.739662,111.48505 31.739662,111.48505 C 31.739662,111.48505 25.287313,113.73895 20.867895,114.04831 C 16.448477,114.35767 14.061992,112.72249 14.061992,112.72249 L 13.973604,111.92699 L 28.911235,111.92699 L 28.911235,111.30827 L 14.061992,111.21989 L 14.150381,110.51278 z "
       style="fill:url(#linearGradient5220);fill-opacity:1.0;fill-rule:evenodd;stroke:#107470;stroke-width:0.2;stroke-linecap:butt;stroke-linejoin:miter;stroke-miterlimit:4;stroke-dasharray:none;stroke-opacity:1" />
    <path
       sodipodi:nodetypes="cssssssssssssssss"
       id="path3270"
       d="M 11.402097,110.60117 C 10.746767,110.33601 11.424194,109.78358 10.429825,109.54051 C 9.435456,109.29744 8.4189901,109.38583 7.4246212,109.6289 C 6.4302523,109.87197 7.1373591,110.31391 6.4523494,110.51278 C 5.7673397,110.71165 5.3981613,110.64536 4.6845824,110.42439 C 3.9710035,110.20342 4.175239,109.66015 3.5980339,109.6289 C 3.0208288,109.59765 2.6786492,109.63648 2.3757621,110.29939 C 2.072875,110.9623 2.0927512,111.55403 2.3864854,112.28055 C 2.6802196,113.00707 2.9319805,113.16129 3.5506989,113.20548 C 4.1694173,113.24967 4.1138494,112.66646 4.8613591,112.45732 C 5.6088688,112.24818 5.8778251,112.08168 6.5407377,112.36894 C 7.2036503,112.6562 6.4744464,113.29701 7.5130095,113.60637 C 8.5515726,113.91573 9.7006211,113.89363 10.69499,113.60637 C 11.689359,113.31911 10.910599,112.74458 11.490485,112.45732 C 12.070371,112.17006 12.624369,112.92136 13.014534,112.45732 C 13.404699,111.99328 13.454254,111.06521 13.051145,110.60117 C 12.648036,110.13713 12.057427,110.86633 11.402097,110.60117 z "
       style="fill:url(#linearGradient5218);fill-rule:evenodd;stroke:#107470;stroke-width:0.2;stroke-linecap:butt;stroke-linejoin:miter;stroke-opacity:1;fill-opacity:1.0;stroke-miterlimit:4;stroke-dasharray:none" />
    <path
       sodipodi:nodetypes="czzzzzzzzszz"
       id="path3268"
       d="M 13.965359,111.57344 C 13.965359,115.70559 14.296815,117.51755 13.965359,119.88194 C 13.633903,122.24633 13.280349,121.07518 12.639534,121.03099 C 11.998718,120.9868 11.689359,120.63325 11.402097,119.70517 C 11.114835,118.77709 11.181126,118.18047 11.490485,117.31868 C 11.799844,116.45689 12.330175,119.04225 12.639534,116.25802 C 12.948893,113.47379 13.059378,108.92179 12.727922,106.18175 C 12.396465,103.44171 11.623067,106.02707 11.313708,105.29787 C 11.004349,104.56867 11.181126,103.97205 11.490485,103.26494 C 11.799844,102.55783 11.66221,102.89781 12.109203,102.46944 C 12.639533,101.96121 13.611805,101.07733 13.965359,103.35333 C 14.318912,105.62933 13.965359,107.44129 13.965359,111.57344 z "
       style="fill:url(#linearGradient5216);fill-rule:evenodd;stroke:#107470;stroke-width:0.3;stroke-linecap:butt;stroke-linejoin:miter;stroke-opacity:1;fill-opacity:1.0;stroke-miterlimit:4;stroke-dasharray:none" />
  </g>
  <path
     style="fill:#000000;fill-opacity:1;fill-rule:evenodd;stroke:#000000;stroke-width:0.40000001;stroke-linecap:butt;stroke-linejoin:miter;stroke-miterlimit:4;stroke-dasharray:none;stroke-opacity:1"
     d="M 40.74953,109.38677 L 45.934779,109.5396 C 45.934779,109.5396 47.459018,108.20893 49.378283,107.26506 C 51.297548,106.32119 53.852524,106.08386 53.852524,106.08386 C 53.852524,106.08386 55.253593,105.74999 56.316585,105.21858 C 57.379577,104.68717 57.22984,104.4639 58.104492,103.9582 C 58.979146,103.4525 59.600685,103.04877 60.188193,103.2693 C 60.775701,103.48981 60.735258,103.80126 60.454525,104.84032 C 60.173792,105.87938 59.06526,107.42551 59.06526,107.42551 L 55.781687,108.51675 L 54.919825,110.17958 L 60.169388,110.27178 L 63.195705,109.42306 C 63.195705,109.42306 65.008403,108.38227 65.911499,108.50267 C 66.814593,108.62309 66.89081,109.21934 66.808084,109.9047 C 66.725356,110.59006 65.58059,111.24412 65.58059,111.24412 L 62.478912,112.5283 L 59.586746,113.06833 L 57.144781,113.18394 L 56.639473,113.35663 L 57.073101,113.49446 L 59.889905,113.3899 L 62.853749,112.53934 L 65.575066,111.43154 C 65.575066,111.43154 66.638552,110.35302 67.177397,110.10316 C 67.716241,109.85331 67.543521,109.87948 67.730446,110.4321 C 67.917371,110.98473 68.943571,111.17128 67.925099,112.31365 C 66.906627,113.45602 63.849501,114.81967 63.849501,114.81967 L 61.124501,116.05242 L 57.686651,116.01363 L 57.181345,116.18631 L 60.863561,116.4199 L 63.329464,115.49214 C 63.329464,115.49214 64.321731,114.70853 65.427894,114.30345 C 66.534059,113.89836 67.347381,113.45038 67.754121,113.87179 C 68.406371,114.54756 67.066788,115.97746 67.066788,115.97746 L 62.500615,118.15638 L 59.597402,119.07124 L 56.663018,118.92223 L 56.34513,119.10044 L 56.714443,119.29891 L 59.839928,119.3285 L 63.06287,118.17295 C 63.06287,118.17295 65.704749,116.57821 66.872005,116.22182 C 68.039261,115.86543 67.637297,116.24438 67.731895,116.74738 C 67.826492,117.25039 67.943152,117.5352 67.250394,118.23384 C 66.557636,118.93249 65.265862,119.80106 65.265862,119.80106 C 65.265862,119.80106 64.005752,121.18641 61.899561,121.57766 C 59.793371,121.9689 59.389598,121.87884 57.013788,121.87135 C 54.637977,121.86385 54.997656,121.85881 53.212149,121.44667 C 51.426641,121.0345 51.633821,120.89993 49.879122,119.97283 C 48.124423,119.04573 47.734001,118.50275 45.436314,117.96607 C 43.138627,117.4294 40.508322,117.57072 40.508322,117.57072 L 40.74953,109.38677 z "
     id="path12081"
     sodipodi:nodetypes="ccscsssscccccsscccccccccsssccccccssccccccccssscssssscc" />
  <path
     style="fill:url(#linearGradient9155);fill-opacity:1;fill-rule:evenodd;stroke:#107470;stroke-width:0.40000001;stroke-linecap:butt;stroke-linejoin:miter;stroke-miterlimit:4;stroke-dasharray:none;stroke-opacity:1"
     d="M 40.1875,109.0625 L 45.375,109.0625 C 45.375,109.0625 46.859375,107.6875 48.75,106.6875 C 50.640625,105.6875 53.1875,105.375 53.1875,105.375 C 53.1875,105.375 54.578125,105 55.625,104.4375 C 56.671875,103.875 56.515625,103.65625 57.375,103.125 C 58.234375,102.59375 58.84375,102.17188 59.4375,102.375 C 60.03125,102.57812 60,102.89062 59.75,103.9375 C 59.5,104.98438 59.268766,105.34421 58.128141,106.29733 C 56.987516,107.25045 56.203125,107.03125 55.1875,107.75 C 54.171875,108.46875 54.375,109.4375 54.375,109.4375 C 54.375,109.4375 57.5625,109.625 59.625,109.375 C 61.6875,109.125 62.625,108.4375 62.625,108.4375 C 62.625,108.4375 64.40625,107.34375 65.3125,107.4375 C 66.21875,107.53125 66.3125,108.125 66.25,108.8125 C 66.1875,109.5 66.125,109.5 65.0625,110.1875 C 64,110.875 63.484375,111.0625 62,111.5625 C 60.515625,112.0625 60.453125,111.98438 59.125,112.1875 C 57.796875,112.39062 57.421875,112.28125 56.6875,112.375 C 55.953125,112.46875 56.203125,112.48438 56.1875,112.5625 C 56.171875,112.64062 56.254154,112.70313 56.625,112.6875 C 57.436579,112.6533 58,112.78125 59.4375,112.5 C 60.875,112.21875 60.96875,112.09375 62.375,111.5625 C 63.78125,111.03125 64.09375,110.89062 65.0625,110.375 C 66.03125,109.85938 65.566965,110.13837 66.029029,109.76517 C 66.435279,109.43705 67.197988,109.45075 67.429917,109.84283 C 67.742662,110.37153 67.228632,111.25306 66.995558,111.49686 C 65.937976,112.60312 65.109375,112.82812 63.4375,113.8125 C 61.765625,114.79688 62.148667,114.56028 60.617417,114.90403 C 59.086167,115.24778 58.296875,115.125 57.3125,115.1875 C 56.328125,115.25 56.015625,115.29688 56.8125,115.375 C 57.609375,115.45312 58.836167,115.45358 60.367417,115.23483 C 61.898667,115.01608 62.254442,114.84153 63.379442,114.27903 C 64.504442,113.71653 65.218852,113.26569 66.149049,112.54289 C 67.110216,111.79603 67.20288,111.98721 67.621859,112.39645 C 68.293734,113.0527 66.6875,114.875 66.6875,114.875 C 66.6875,114.875 64.03125,116.35938 62.1875,117.1875 C 60.34375,118.01562 60.765625,117.95312 59.3125,118.1875 C 57.859375,118.42188 57.1875,118.09375 56.375,118.125 C 55.5625,118.15625 56.046875,118.21875 56.0625,118.3125 C 56.078125,118.40625 55.5625,118.46875 56.4375,118.5 C 57.3125,118.53125 57.984375,118.76562 59.5625,118.4375 C 61.140625,118.10938 61.015625,118.01562 62.75,117.1875 C 64.484375,116.35938 65.986846,115.14772 66.5,115.125 C 66.904616,115.10709 67.044654,115.30178 67.154029,115.80178 C 67.263404,116.30178 66.946462,116.62722 66.672335,116.94822 C 66.033403,117.69641 64.690641,118.35225 64.690641,118.35225 C 64.690641,118.35225 63.383502,119.37637 61.289752,119.96208 C 59.226734,120.5392 59.1875,121 56.8125,121.0625 C 54.4375,121.125 54.796875,121.10937 53,120.75 C 51.203125,120.39062 51.40625,120.25 49.625,119.375 C 47.84375,118.5 47.4375,117.96875 45.125,117.5 C 42.8125,117.03125 40.1875,117.25 40.1875,117.25 L 40.1875,109.0625 z "
     id="path7194"
     sodipodi:nodetypes="ccscsssssscscsssssssssssssssssssssscsssssssssscssssscc" />
  <g
     id="g25762"
     style="fill:#000000;fill-opacity:1;stroke:#000000;stroke-opacity:1"
     transform="matrix(0.99958,2.8978181e-2,-2.8978181e-2,0.99958,3.6207348,-1.5430487)">
    <path
       sodipodi:nodetypes="ccsccscssssscszzcsssssssssssscsscc"
       id="path25764"
       d="M 76.323338,106.09336 L 81.494056,106.09336 C 81.494056,106.09336 83.107143,103.13235 84.587648,102.38105 C 86.068153,101.62975 86.708968,102.00226 87.717852,102.49533 C 89.146252,104.91284 87.993061,105.96104 89.195328,106.31119 C 89.195328,106.31119 92.431464,106.10095 93.624707,107.2058 C 94.81795,108.31065 96.806687,110.82972 96.806687,110.82972 C 96.806687,110.82972 98.158849,112.7477 98.994949,114.04831 C 99.790444,115.28575 99.436688,115.84562 98.734226,116.27319 C 98.225993,116.58254 98.15526,116.52318 97.359765,115.94866 C 96.268354,115.16042 96.250795,115.00228 95.134892,113.94162 C 94.018989,112.88096 93.879149,112.14103 93.083654,111.45602 C 92.288159,110.77101 90.849013,108.77548 90.973056,109.38333 C 91.056867,109.79403 92.586145,111.0027 93.226959,111.64352 C 94.135734,112.55231 95.760726,114.84388 96.59774,115.66649 C 97.402378,116.45728 97.671662,117.17193 96.724042,117.95257 C 95.745042,118.75906 92.662943,115.58667 92.675182,115.37414 C 91.599126,114.45186 91.065712,113.64255 90.018407,112.76136 C 89.644351,112.44663 88.023711,111.46751 88.193189,111.68996 C 88.626917,112.25924 89.579785,112.22407 90.700534,113.36432 C 91.252943,113.92634 92.899063,115.66118 93.486816,116.20799 C 95.649012,118.21958 95.817456,118.69815 95.089144,119.24889 C 93.942697,120.11582 92.78924,118.91412 90.304458,117.08998 C 89.720197,116.66106 89.075803,114.84582 87.67547,114.11273 C 86.975304,113.74618 87.083416,113.86008 86.460268,113.77582 C 86.304481,113.75475 88.135922,114.29582 88.447483,114.52112 C 88.627679,114.65142 91.081503,117.21337 91.336769,117.6024 C 91.73755,118.21319 93.760792,119.18681 92.900169,119.90957 C 91.4478,121.12929 83.619959,112.93751 83.553346,112.91289 C 82.487539,112.5189 82.407937,112.63238 82.333745,112.58991 C 81.537772,113.41772 81.1626,113.87154 80.831143,114.53445 C 80.392195,115.41234 80.433396,115.41833 79.461124,115.72769 C 78.488852,116.03705 76.279144,115.55092 76.279144,115.55092 L 76.323338,106.09336 z "
       style="fill:#000000;fill-opacity:1;fill-rule:evenodd;stroke:#000000;stroke-width:0.5;stroke-linecap:butt;stroke-linejoin:miter;stroke-miterlimit:4;stroke-dasharray:none;stroke-opacity:1" />
    <path
       sodipodi:nodetypes="cccsssscsssscc"
       id="path25766"
       d="M 103.23759,105.29787 L 98.022677,105.47464 L 96.166522,104.23721 C 96.166522,104.23721 94.310367,102.62412 92.277435,102.29266 C 90.244503,101.9612 89.101849,101.32158 88.034794,103.08816 C 87.040425,104.7344 86.358257,105.26779 85.471532,106.66789 C 85.051687,107.3308 84.438844,107.99606 84.587648,108.43566 C 84.799795,109.06238 84.970306,109.1438 85.338949,109.93825 C 85.7146,110.40229 86.377512,110.29181 87.195104,109.84987 C 88.798669,108.98307 90.292749,105.94663 90.809605,106.06119 C 92.402212,106.41419 93.536969,107.85845 95.860304,110.28423 C 98.183639,112.71001 98.236525,114.42553 100.10294,115.7643 C 101.96936,117.10307 103.32598,115.6393 103.32598,115.6393 L 103.23759,105.29787 z "
       style="fill:#000000;fill-opacity:1;fill-rule:evenodd;stroke:#000000;stroke-width:0.5;stroke-linecap:butt;stroke-linejoin:miter;stroke-miterlimit:4;stroke-dasharray:none;stroke-opacity:1" />
    <path
       sodipodi:nodetypes="cssssssss"
       id="path25768"
       d="M 79.350639,116.12544 C 79.162401,116.71369 79.085474,117.1861 79.682095,117.58385 C 80.278716,117.9816 80.635411,118.08168 81.670833,117.62804 C 83.120099,116.99309 84.052292,115.22482 84.985396,114.04831 C 85.493628,113.4075 85.257019,113.04243 84.985396,112.50152 C 84.788941,112.1103 84.089569,111.87782 83.328114,112.14796 C 82.772857,112.34495 82.123824,112.83021 81.626638,113.47378 C 80.90919,114.40247 80.764852,114.52341 80.124037,115.15317 C 79.474559,115.79145 79.439027,115.84922 79.350639,116.12544 z "
       style="fill:#000000;fill-opacity:1;fill-rule:evenodd;stroke:#000000;stroke-width:0.5;stroke-linecap:butt;stroke-linejoin:miter;stroke-miterlimit:4;stroke-dasharray:none;stroke-opacity:1" />
    <path
       sodipodi:nodetypes="csssssssss"
       id="path25770"
       d="M 85.117979,113.95993 C 85.404405,113.73004 85.880446,113.55594 86.576386,113.65056 C 87.102915,113.72215 87.421635,113.7784 87.504465,114.04831 C 87.658566,114.55048 87.703338,114.99849 87.504464,115.32995 C 86.9399,116.27089 86.432755,116.30221 85.515726,117.23029 C 84.598697,118.15837 84.609069,118.57533 84.322484,118.86548 C 83.798456,119.39602 83.752988,119.65003 83.040852,119.48419 C 82.518878,119.36263 82.112775,119.08646 81.891804,118.7329 C 81.501795,118.10888 81.665475,117.50692 81.869706,117.164 C 82.342867,116.36953 83.728577,115.07508 85.117979,113.95993 z "
       style="fill:#000000;fill-opacity:1;fill-rule:evenodd;stroke:#000000;stroke-width:0.5;stroke-linecap:butt;stroke-linejoin:miter;stroke-miterlimit:4;stroke-dasharray:none;stroke-opacity:1" />
    <path
       sodipodi:nodetypes="cssssssss"
       id="path25772"
       d="M 87.858017,115.6393 C 88.300424,115.31318 88.707036,115.20716 89.183843,115.28575 C 89.716441,115.37353 90.167716,115.75886 90.244503,116.21383 C 90.312712,116.61796 90.156114,117.36288 89.714173,117.80482 C 88.937939,118.58106 88.631415,119.0312 87.637046,119.70516 C 86.642677,120.37912 87.139862,120.67743 86.355415,120.63324 C 85.570969,120.58905 85.02959,120.1913 84.49926,119.52839 C 83.96893,118.86548 83.829774,119.73276 84.631843,118.60031 C 85.471532,117.41474 87.243643,116.09219 87.858017,115.6393 z "
       style="fill:#000000;fill-opacity:1;fill-rule:evenodd;stroke:#000000;stroke-width:0.5;stroke-linecap:butt;stroke-linejoin:miter;stroke-miterlimit:4;stroke-dasharray:none;stroke-opacity:1" />
    <path
       sodipodi:nodetypes="csssssss"
       id="path25774"
       d="M 88.123183,119.35162 C 87.611705,119.7537 87.062522,119.97033 87.195104,120.36808 C 87.327687,120.76583 87.846969,120.99785 88.741901,120.9868 C 89.636833,120.97575 89.813609,120.88735 90.774832,120.23549 C 91.736055,119.58363 92.067512,119.0533 92.144852,118.24676 C 92.222192,117.44022 91.791299,117.14191 91.039998,117.05352 C 90.288697,116.96513 89.868852,117.58385 89.58159,118.02579 C 89.050483,118.84288 88.786625,118.83008 88.123183,119.35162 z "
       style="fill:#000000;fill-opacity:1;fill-rule:evenodd;stroke:#000000;stroke-width:0.5;stroke-linecap:butt;stroke-linejoin:miter;stroke-miterlimit:4;stroke-dasharray:none;stroke-opacity:1" />
  </g>
  <g
     id="g24777"
     style="stroke:#107470;stroke-opacity:1">
    <path
       sodipodi:nodetypes="ccsccscssssscszzcsssssssssssscsscc"
       id="path17931"
       d="M 76.323338,106.09336 L 81.494056,106.09336 C 81.494056,106.09336 83.107143,103.13235 84.587648,102.38105 C 86.068153,101.62975 86.708968,102.00226 87.717852,102.49533 C 89.146252,104.91284 87.993061,105.96104 89.195328,106.31119 C 89.195328,106.31119 92.431464,106.10095 93.624707,107.2058 C 94.81795,108.31065 96.806687,110.82972 96.806687,110.82972 C 96.806687,110.82972 98.158849,112.7477 98.994949,114.04831 C 99.790444,115.28575 99.436688,115.84562 98.734226,116.27319 C 98.225993,116.58254 98.15526,116.52318 97.359765,115.94866 C 96.268354,115.16042 96.250795,115.00228 95.134892,113.94162 C 94.018989,112.88096 93.879149,112.14103 93.083654,111.45602 C 92.288159,110.77101 90.849013,108.77548 90.973056,109.38333 C 91.056867,109.79403 92.586145,111.0027 93.226959,111.64352 C 94.135734,112.55231 95.760726,114.84388 96.59774,115.66649 C 97.402378,116.45728 97.671662,117.17193 96.724042,117.95257 C 95.745042,118.75906 92.662943,115.58667 92.675182,115.37414 C 91.599126,114.45186 91.065712,113.64255 90.018407,112.76136 C 89.644351,112.44663 88.023711,111.46751 88.193189,111.68996 C 88.626917,112.25924 89.579785,112.22407 90.700534,113.36432 C 91.252943,113.92634 92.899063,115.66118 93.486816,116.20799 C 95.649012,118.21958 95.817456,118.69815 95.089144,119.24889 C 93.942697,120.11582 92.78924,118.91412 90.304458,117.08998 C 89.720197,116.66106 89.075803,114.84582 87.67547,114.11273 C 86.975304,113.74618 87.083416,113.86008 86.460268,113.77582 C 86.304481,113.75475 88.135922,114.29582 88.447483,114.52112 C 88.627679,114.65142 91.081503,117.21337 91.336769,117.6024 C 91.73755,118.21319 93.760792,119.18681 92.900169,119.90957 C 91.4478,121.12929 83.619959,112.93751 83.553346,112.91289 C 82.487539,112.5189 82.407937,112.63238 82.333745,112.58991 C 81.537772,113.41772 81.1626,113.87154 80.831143,114.53445 C 80.392195,115.41234 80.433396,115.41833 79.461124,115.72769 C 78.488852,116.03705 76.279144,115.55092 76.279144,115.55092 L 76.323338,106.09336 z "
       style="fill:url(#linearGradient20859);fill-rule:evenodd;stroke:#107470;stroke-width:0.5;stroke-linecap:butt;stroke-linejoin:miter;stroke-opacity:1;stroke-miterlimit:4;stroke-dasharray:none;fill-opacity:1.0" />
    <path
       sodipodi:nodetypes="cccsssscsssscc"
       id="path17933"
       d="M 103.23759,105.29787 L 98.022677,105.47464 L 96.166522,104.23721 C 96.166522,104.23721 94.310367,102.62412 92.277435,102.29266 C 90.244503,101.9612 89.101849,101.32158 88.034794,103.08816 C 87.040425,104.7344 86.358257,105.26779 85.471532,106.66789 C 85.051687,107.3308 84.438844,107.99606 84.587648,108.43566 C 84.799795,109.06238 84.970306,109.1438 85.338949,109.93825 C 85.7146,110.40229 86.377512,110.29181 87.195104,109.84987 C 88.798669,108.98307 90.292749,105.94663 90.809605,106.06119 C 92.402212,106.41419 93.536969,107.85845 95.860304,110.28423 C 98.183639,112.71001 98.236525,114.42553 100.10294,115.7643 C 101.96936,117.10307 103.32598,115.6393 103.32598,115.6393 L 103.23759,105.29787 z "
       style="fill:url(#linearGradient20875);fill-rule:evenodd;stroke:#107470;stroke-width:0.5;stroke-linecap:butt;stroke-linejoin:miter;stroke-opacity:1;stroke-miterlimit:4;stroke-dasharray:none;fill-opacity:1.0" />
    <path
       sodipodi:nodetypes="cssssssss"
       id="path23784"
       d="M 79.350639,116.12544 C 79.162401,116.71369 79.085474,117.1861 79.682095,117.58385 C 80.278716,117.9816 80.635411,118.08168 81.670833,117.62804 C 83.120099,116.99309 84.052292,115.22482 84.985396,114.04831 C 85.493628,113.4075 85.257019,113.04243 84.985396,112.50152 C 84.788941,112.1103 84.089569,111.87782 83.328114,112.14796 C 82.772857,112.34495 82.123824,112.83021 81.626638,113.47378 C 80.90919,114.40247 80.764852,114.52341 80.124037,115.15317 C 79.474559,115.79145 79.439027,115.84922 79.350639,116.12544 z "
       style="fill:url(#linearGradient24773);fill-rule:evenodd;stroke:#107470;stroke-width:0.5;stroke-linecap:butt;stroke-linejoin:miter;stroke-opacity:1;fill-opacity:1.0;stroke-miterlimit:4;stroke-dasharray:none" />
    <path
       sodipodi:nodetypes="csssssssss"
       id="path23786"
       d="M 85.117979,113.95993 C 85.404405,113.73004 85.880446,113.55594 86.576386,113.65056 C 87.102915,113.72215 87.421635,113.7784 87.504465,114.04831 C 87.658566,114.55048 87.703338,114.99849 87.504464,115.32995 C 86.9399,116.27089 86.432755,116.30221 85.515726,117.23029 C 84.598697,118.15837 84.609069,118.57533 84.322484,118.86548 C 83.798456,119.39602 83.752988,119.65003 83.040852,119.48419 C 82.518878,119.36263 82.112775,119.08646 81.891804,118.7329 C 81.501795,118.10888 81.665475,117.50692 81.869706,117.164 C 82.342867,116.36953 83.728577,115.07508 85.117979,113.95993 z "
       style="fill:url(#linearGradient24771);fill-rule:evenodd;stroke:#107470;stroke-width:0.5;stroke-linecap:butt;stroke-linejoin:miter;stroke-opacity:1;fill-opacity:1.0;stroke-miterlimit:4;stroke-dasharray:none" />
    <path
       sodipodi:nodetypes="cssssssss"
       id="path23788"
       d="M 87.858017,115.6393 C 88.300424,115.31318 88.707036,115.20716 89.183843,115.28575 C 89.716441,115.37353 90.167716,115.75886 90.244503,116.21383 C 90.312712,116.61796 90.156114,117.36288 89.714173,117.80482 C 88.937939,118.58106 88.631415,119.0312 87.637046,119.70516 C 86.642677,120.37912 87.139862,120.67743 86.355415,120.63324 C 85.570969,120.58905 85.02959,120.1913 84.49926,119.52839 C 83.96893,118.86548 83.829774,119.73276 84.631843,118.60031 C 85.471532,117.41474 87.243643,116.09219 87.858017,115.6393 z "
       style="fill:url(#linearGradient24769);fill-opacity:1;fill-rule:evenodd;stroke:#107470;stroke-width:0.5;stroke-linecap:butt;stroke-linejoin:miter;stroke-miterlimit:4;stroke-dasharray:none;stroke-opacity:1" />
    <path
       sodipodi:nodetypes="csssssss"
       id="path23790"
       d="M 88.123183,119.35162 C 87.611705,119.7537 87.062522,119.97033 87.195104,120.36808 C 87.327687,120.76583 87.846969,120.99785 88.741901,120.9868 C 89.636833,120.97575 89.813609,120.88735 90.774832,120.23549 C 91.736055,119.58363 92.067512,119.0533 92.144852,118.24676 C 92.222192,117.44022 91.791299,117.14191 91.039998,117.05352 C 90.288697,116.96513 89.868852,117.58385 89.58159,118.02579 C 89.050483,118.84288 88.786625,118.83008 88.123183,119.35162 z "
       style="fill:url(#linearGradient24767);fill-opacity:1;fill-rule:evenodd;stroke:#107470;stroke-width:0.5;stroke-linecap:butt;stroke-linejoin:miter;stroke-miterlimit:4;stroke-dasharray:none;stroke-opacity:1" />
  </g>
  <g
     id="g26757"
     style="stroke:#107470;stroke-opacity:1"
     transform="translate(108.55155,0.3865)">
    <path
       sodipodi:nodetypes="czczcccccc"
       id="path26759"
       d="M 14.150381,110.51278 C 14.150381,110.51278 16.20541,108.8555 20.60273,109.09857 C 25.00005,109.34164 31.739662,111.48505 31.739662,111.48505 C 31.739662,111.48505 25.287313,113.73895 20.867895,114.04831 C 16.448477,114.35767 14.061992,112.72249 14.061992,112.72249 L 13.973604,111.92699 L 28.911235,111.92699 L 28.911235,111.30827 L 14.061992,111.21989 L 14.150381,110.51278 z "
       style="fill:url(#linearGradient26765);fill-opacity:1;fill-rule:evenodd;stroke:#107470;stroke-width:0.2;stroke-linecap:butt;stroke-linejoin:miter;stroke-miterlimit:4;stroke-dasharray:none;stroke-opacity:1" />
    <path
       sodipodi:nodetypes="cssssssssssssssss"
       id="path26761"
       d="M 11.402097,110.60117 C 10.746767,110.33601 11.424194,109.78358 10.429825,109.54051 C 9.435456,109.29744 8.4189901,109.38583 7.4246212,109.6289 C 6.4302523,109.87197 7.1373591,110.31391 6.4523494,110.51278 C 5.7673397,110.71165 5.3981613,110.64536 4.6845824,110.42439 C 3.9710035,110.20342 4.175239,109.66015 3.5980339,109.6289 C 3.0208288,109.59765 2.6786492,109.63648 2.3757621,110.29939 C 2.072875,110.9623 2.0927512,111.55403 2.3864854,112.28055 C 2.6802196,113.00707 2.9319805,113.16129 3.5506989,113.20548 C 4.1694173,113.24967 4.1138494,112.66646 4.8613591,112.45732 C 5.6088688,112.24818 5.8778251,112.08168 6.5407377,112.36894 C 7.2036503,112.6562 6.4744464,113.29701 7.5130095,113.60637 C 8.5515726,113.91573 9.7006211,113.89363 10.69499,113.60637 C 11.689359,113.31911 10.910599,112.74458 11.490485,112.45732 C 12.070371,112.17006 12.624369,112.92136 13.014534,112.45732 C 13.404699,111.99328 13.454254,111.06521 13.051145,110.60117 C 12.648036,110.13713 12.057427,110.86633 11.402097,110.60117 z "
       style="fill:url(#linearGradient26767);fill-opacity:1;fill-rule:evenodd;stroke:#107470;stroke-width:0.2;stroke-linecap:butt;stroke-linejoin:miter;stroke-miterlimit:4;stroke-dasharray:none;stroke-opacity:1" />
    <path
       sodipodi:nodetypes="czzzzzzzzszz"
       id="path26763"
       d="M 13.965359,111.57344 C 13.965359,115.70559 14.296815,117.51755 13.965359,119.88194 C 13.633903,122.24633 13.280349,121.07518 12.639534,121.03099 C 11.998718,120.9868 11.689359,120.63325 11.402097,119.70517 C 11.114835,118.77709 11.181126,118.18047 11.490485,117.31868 C 11.799844,116.45689 12.330175,119.04225 12.639534,116.25802 C 12.948893,113.47379 13.059378,108.92179 12.727922,106.18175 C 12.396465,103.44171 11.623067,106.02707 11.313708,105.29787 C 11.004349,104.56867 11.181126,103.97205 11.490485,103.26494 C 11.799844,102.55783 11.66221,102.89781 12.109203,102.46944 C 12.639533,101.96121 13.611805,101.07733 13.965359,103.35333 C 14.318912,105.62933 13.965359,107.44129 13.965359,111.57344 z "
       style="fill:url(#linearGradient26769);fill-opacity:1;fill-rule:evenodd;stroke:#107470;stroke-width:0.30000001;stroke-linecap:butt;stroke-linejoin:miter;stroke-miterlimit:4;stroke-dasharray:none;stroke-opacity:1" />
  </g>
  <path
     style="fill:url(#linearGradient26773);fill-opacity:1;fill-rule:evenodd;stroke:#107470;stroke-width:0.40000001;stroke-linecap:butt;stroke-linejoin:miter;stroke-miterlimit:4;stroke-dasharray:none;stroke-opacity:1"
     d="M 148.45068,109.35558 L 153.63818,109.35558 C 153.63818,109.35558 155.12256,107.98058 157.01318,106.98058 C 158.90381,105.98058 161.45068,105.66808 161.45068,105.66808 C 161.45068,105.66808 162.84131,105.29308 163.88818,104.73058 C 164.93506,104.16808 164.77881,103.94933 165.63818,103.41808 C 166.49756,102.88683 167.10693,102.46496 167.70068,102.66808 C 168.29443,102.8712 168.26318,103.1837 168.01318,104.23058 C 167.76318,105.27746 167.53195,105.63729 166.39133,106.59041 C 165.2507,107.54353 164.46631,107.32433 163.45068,108.04308 C 162.43506,108.76183 162.63818,109.73058 162.63818,109.73058 C 162.63818,109.73058 165.82568,109.91808 167.88818,109.66808 C 169.95068,109.41808 170.88818,108.73058 170.88818,108.73058 C 170.88818,108.73058 172.66943,107.63683 173.57568,107.73058 C 174.48193,107.82433 174.57568,108.41808 174.51318,109.10558 C 174.45068,109.79308 174.38818,109.79308 173.32568,110.48058 C 172.26318,111.16808 171.74756,111.35558 170.26318,111.85558 C 168.77881,112.35558 168.71631,112.27746 167.38818,112.48058 C 166.06006,112.6837 165.68506,112.57433 164.95068,112.66808 C 164.21631,112.76183 164.46631,112.77746 164.45068,112.85558 C 164.43506,112.9337 164.51734,112.99621 164.88818,112.98058 C 165.69976,112.94638 166.26318,113.07433 167.70068,112.79308 C 169.13818,112.51183 169.23193,112.38683 170.63818,111.85558 C 172.04443,111.32433 172.35693,111.1837 173.32568,110.66808 C 174.29443,110.15246 173.83015,110.43145 174.29221,110.05825 C 174.69846,109.73013 175.46117,109.74383 175.6931,110.13591 C 176.00585,110.66461 175.49182,111.54614 175.25874,111.78994 C 174.20116,112.8962 173.37256,113.1212 171.70068,114.10558 C 170.02881,115.08996 170.41185,114.85336 168.8806,115.19711 C 167.34935,115.54086 166.56006,115.41808 165.57568,115.48058 C 164.59131,115.54308 164.27881,115.58996 165.07568,115.66808 C 165.87256,115.7462 167.09935,115.74666 168.6306,115.52791 C 170.16185,115.30916 170.51763,115.13461 171.64263,114.57211 C 172.76763,114.00961 173.48204,113.55877 174.41223,112.83597 C 175.3734,112.08911 175.46606,112.28029 175.88504,112.68953 C 176.55692,113.34578 174.95068,115.16808 174.95068,115.16808 C 174.95068,115.16808 172.29443,116.65246 170.45068,117.48058 C 168.60693,118.3087 169.02881,118.2462 167.57568,118.48058 C 166.12256,118.71496 165.45068,118.38683 164.63818,118.41808 C 163.82568,118.44933 164.31006,118.51183 164.32568,118.60558 C 164.34131,118.69933 163.82568,118.76183 164.70068,118.79308 C 165.57568,118.82433 166.24756,119.0587 167.82568,118.73058 C 169.40381,118.40246 169.27881,118.3087 171.01318,117.48058 C 172.74756,116.65246 174.25003,115.4408 174.76318,115.41808 C 175.1678,115.40017 175.30784,115.59486 175.41721,116.09486 C 175.52659,116.59486 175.20965,116.9203 174.93552,117.2413 C 174.29659,117.98949 172.95383,118.64533 172.95383,118.64533 C 172.95383,118.64533 171.64669,119.66945 169.55294,120.25516 C 167.48992,120.83228 167.45068,121.29308 165.07568,121.35558 C 162.70068,121.41808 163.06006,121.40245 161.26318,121.04308 C 159.46631,120.6837 159.66943,120.54308 157.88818,119.66808 C 156.10693,118.79308 155.70068,118.26183 153.38818,117.79308 C 151.07568,117.32433 148.45068,117.54308 148.45068,117.54308 L 148.45068,109.35558 z "
     id="path26771"
     sodipodi:nodetypes="ccscsssssscscsssssssssssssssssssssscsssssssssscssssscc" />
  <g
     id="g26775"
     style="stroke:#107470;stroke-opacity:1"
     transform="translate(108.19744,0.305141)">
    <path
       sodipodi:nodetypes="ccsccscssssscszzcsssssssssssscsscc"
       id="path26777"
       d="M 76.323338,106.09336 L 81.494056,106.09336 C 81.494056,106.09336 83.107143,103.13235 84.587648,102.38105 C 86.068153,101.62975 86.708968,102.00226 87.717852,102.49533 C 89.146252,104.91284 87.993061,105.96104 89.195328,106.31119 C 89.195328,106.31119 92.431464,106.10095 93.624707,107.2058 C 94.81795,108.31065 96.806687,110.82972 96.806687,110.82972 C 96.806687,110.82972 98.158849,112.7477 98.994949,114.04831 C 99.790444,115.28575 99.436688,115.84562 98.734226,116.27319 C 98.225993,116.58254 98.15526,116.52318 97.359765,115.94866 C 96.268354,115.16042 96.250795,115.00228 95.134892,113.94162 C 94.018989,112.88096 93.879149,112.14103 93.083654,111.45602 C 92.288159,110.77101 90.849013,108.77548 90.973056,109.38333 C 91.056867,109.79403 92.586145,111.0027 93.226959,111.64352 C 94.135734,112.55231 95.760726,114.84388 96.59774,115.66649 C 97.402378,116.45728 97.671662,117.17193 96.724042,117.95257 C 95.745042,118.75906 92.662943,115.58667 92.675182,115.37414 C 91.599126,114.45186 91.065712,113.64255 90.018407,112.76136 C 89.644351,112.44663 88.023711,111.46751 88.193189,111.68996 C 88.626917,112.25924 89.579785,112.22407 90.700534,113.36432 C 91.252943,113.92634 92.899063,115.66118 93.486816,116.20799 C 95.649012,118.21958 95.817456,118.69815 95.089144,119.24889 C 93.942697,120.11582 92.78924,118.91412 90.304458,117.08998 C 89.720197,116.66106 89.075803,114.84582 87.67547,114.11273 C 86.975304,113.74618 87.083416,113.86008 86.460268,113.77582 C 86.304481,113.75475 88.135922,114.29582 88.447483,114.52112 C 88.627679,114.65142 91.081503,117.21337 91.336769,117.6024 C 91.73755,118.21319 93.760792,119.18681 92.900169,119.90957 C 91.4478,121.12929 83.619959,112.93751 83.553346,112.91289 C 82.487539,112.5189 82.407937,112.63238 82.333745,112.58991 C 81.537772,113.41772 81.1626,113.87154 80.831143,114.53445 C 80.392195,115.41234 80.433396,115.41833 79.461124,115.72769 C 78.488852,116.03705 76.279144,115.55092 76.279144,115.55092 L 76.323338,106.09336 z "
       style="fill:url(#linearGradient26789);fill-opacity:1;fill-rule:evenodd;stroke:#107470;stroke-width:0.5;stroke-linecap:butt;stroke-linejoin:miter;stroke-miterlimit:4;stroke-dasharray:none;stroke-opacity:1" />
    <path
       sodipodi:nodetypes="cccsssscsssscc"
       id="path26779"
       d="M 103.23759,105.29787 L 98.022677,105.47464 L 96.166522,104.23721 C 96.166522,104.23721 94.310367,102.62412 92.277435,102.29266 C 90.244503,101.9612 89.101849,101.32158 88.034794,103.08816 C 87.040425,104.7344 86.358257,105.26779 85.471532,106.66789 C 85.051687,107.3308 84.438844,107.99606 84.587648,108.43566 C 84.799795,109.06238 84.970306,109.1438 85.338949,109.93825 C 85.7146,110.40229 86.377512,110.29181 87.195104,109.84987 C 88.798669,108.98307 90.292749,105.94663 90.809605,106.06119 C 92.402212,106.41419 93.536969,107.85845 95.860304,110.28423 C 98.183639,112.71001 98.236525,114.42553 100.10294,115.7643 C 101.96936,117.10307 103.32598,115.6393 103.32598,115.6393 L 103.23759,105.29787 z "
       style="fill:url(#linearGradient26791);fill-opacity:1;fill-rule:evenodd;stroke:#107470;stroke-width:0.5;stroke-linecap:butt;stroke-linejoin:miter;stroke-miterlimit:4;stroke-dasharray:none;stroke-opacity:1" />
    <path
       sodipodi:nodetypes="cssssssss"
       id="path26781"
       d="M 79.350639,116.12544 C 79.162401,116.71369 79.085474,117.1861 79.682095,117.58385 C 80.278716,117.9816 80.635411,118.08168 81.670833,117.62804 C 83.120099,116.99309 84.052292,115.22482 84.985396,114.04831 C 85.493628,113.4075 85.257019,113.04243 84.985396,112.50152 C 84.788941,112.1103 84.089569,111.87782 83.328114,112.14796 C 82.772857,112.34495 82.123824,112.83021 81.626638,113.47378 C 80.90919,114.40247 80.764852,114.52341 80.124037,115.15317 C 79.474559,115.79145 79.439027,115.84922 79.350639,116.12544 z "
       style="fill:url(#linearGradient26793);fill-opacity:1;fill-rule:evenodd;stroke:#107470;stroke-width:0.5;stroke-linecap:butt;stroke-linejoin:miter;stroke-miterlimit:4;stroke-dasharray:none;stroke-opacity:1" />
    <path
       sodipodi:nodetypes="csssssssss"
       id="path26783"
       d="M 85.117979,113.95993 C 85.404405,113.73004 85.880446,113.55594 86.576386,113.65056 C 87.102915,113.72215 87.421635,113.7784 87.504465,114.04831 C 87.658566,114.55048 87.703338,114.99849 87.504464,115.32995 C 86.9399,116.27089 86.432755,116.30221 85.515726,117.23029 C 84.598697,118.15837 84.609069,118.57533 84.322484,118.86548 C 83.798456,119.39602 83.752988,119.65003 83.040852,119.48419 C 82.518878,119.36263 82.112775,119.08646 81.891804,118.7329 C 81.501795,118.10888 81.665475,117.50692 81.869706,117.164 C 82.342867,116.36953 83.728577,115.07508 85.117979,113.95993 z "
       style="fill:url(#linearGradient26795);fill-opacity:1;fill-rule:evenodd;stroke:#107470;stroke-width:0.5;stroke-linecap:butt;stroke-linejoin:miter;stroke-miterlimit:4;stroke-dasharray:none;stroke-opacity:1" />
    <path
       sodipodi:nodetypes="cssssssss"
       id="path26785"
       d="M 87.858017,115.6393 C 88.300424,115.31318 88.707036,115.20716 89.183843,115.28575 C 89.716441,115.37353 90.167716,115.75886 90.244503,116.21383 C 90.312712,116.61796 90.156114,117.36288 89.714173,117.80482 C 88.937939,118.58106 88.631415,119.0312 87.637046,119.70516 C 86.642677,120.37912 87.139862,120.67743 86.355415,120.63324 C 85.570969,120.58905 85.02959,120.1913 84.49926,119.52839 C 83.96893,118.86548 83.829774,119.73276 84.631843,118.60031 C 85.471532,117.41474 87.243643,116.09219 87.858017,115.6393 z "
       style="fill:url(#linearGradient26797);fill-opacity:1;fill-rule:evenodd;stroke:#107470;stroke-width:0.5;stroke-linecap:butt;stroke-linejoin:miter;stroke-miterlimit:4;stroke-dasharray:none;stroke-opacity:1" />
    <path
       sodipodi:nodetypes="csssssss"
       id="path26787"
       d="M 88.123183,119.35162 C 87.611705,119.7537 87.062522,119.97033 87.195104,120.36808 C 87.327687,120.76583 87.846969,120.99785 88.741901,120.9868 C 89.636833,120.97575 89.813609,120.88735 90.774832,120.23549 C 91.736055,119.58363 92.067512,119.0533 92.144852,118.24676 C 92.222192,117.44022 91.791299,117.14191 91.039998,117.05352 C 90.288697,116.96513 89.868852,117.58385 89.58159,118.02579 C 89.050483,118.84288 88.786625,118.83008 88.123183,119.35162 z "
       style="fill:url(#linearGradient26799);fill-opacity:1;fill-rule:evenodd;stroke:#107470;stroke-width:0.5;stroke-linecap:butt;stroke-linejoin:miter;stroke-miterlimit:4;stroke-dasharray:none;stroke-opacity:1" />
  </g>
  <path
     style="fill:none;fill-opacity:1;fill-rule:evenodd;stroke:#a4faf7;stroke-width:1px;stroke-linecap:butt;stroke-linejoin:round;stroke-opacity:1"
     d="M 183.49535,100.48092 L 211.48552,100.48092 C 213.44587,100.48851 214.5432,101.40456 214.51255,103.50794 L 214.51255,120.53006 C 214.46741,122.47673 213.56095,123.56208 211.52483,123.51778 L 183.45604,123.51778 C 181.40504,123.47832 180.54903,122.36965 180.48798,120.54971 L 180.48798,103.54726 C 180.45024,101.63355 181.33297,100.50881 183.49535,100.48092 z "
     id="path27791"
     sodipodi:nodetypes="ccccccccc" />
  <path
     style="fill:none;fill-opacity:1;fill-rule:evenodd;stroke:#a4faf7;stroke-width:1px;stroke-linecap:butt;stroke-linejoin:round;stroke-opacity:1"
     d="M 147.62035,75.48092 L 175.61052,75.48092 C 177.57087,75.48851 178.6682,76.40456 178.63755,78.50794 L 178.63755,95.53006 C 178.59241,97.47673 177.68595,98.56208 175.64983,98.51778 L 147.58104,98.51778 C 145.53004,98.47832 144.67403,97.36965 144.61298,95.54971 L 144.61298,78.54726 C 144.57524,76.63355 145.45797,75.50881 147.62035,75.48092 z "
     id="path27793"
     sodipodi:nodetypes="ccccccccc" />
  <path
     style="fill:none;fill-opacity:1;fill-rule:evenodd;stroke:#a4faf7;stroke-width:1px;stroke-linecap:butt;stroke-linejoin:round;stroke-opacity:1"
     d="M 183.37035,75.355918 L 211.36052,75.355918 C 213.32087,75.363513 214.4182,76.279562 214.38755,78.382945 L 214.38755,95.405058 C 214.34241,97.35173 213.43595,98.43708 211.39983,98.39278 L 183.33104,98.39278 C 181.28004,98.35332 180.42403,97.24465 180.36298,95.424714 L 180.36298,78.422257 C 180.32524,76.508549 181.20797,75.383808 183.37035,75.355918 z "
     id="path27795"
     sodipodi:nodetypes="ccccccccc" />
  <path
     style="fill:none;fill-opacity:1;fill-rule:evenodd;stroke:#a4faf7;stroke-width:1px;stroke-linecap:butt;stroke-linejoin:round;stroke-opacity:1"
     d="M 111.49535,125.23092 L 139.48552,125.23092 C 141.44587,125.23851 142.5432,126.15456 142.51255,128.25794 L 142.51255,145.28006 C 142.46741,147.22673 141.56095,148.31208 139.52483,148.26778 L 111.45604,148.26778 C 109.40504,148.22832 108.54903,147.11965 108.48798,145.29971 L 108.48798,128.29726 C 108.45024,126.38355 109.33297,125.25881 111.49535,125.23092 z "
     id="path27797"
     sodipodi:nodetypes="ccccccccc" />
  <path
     style="fill:none;fill-opacity:1;fill-rule:evenodd;stroke:#a4faf7;stroke-width:1px;stroke-linecap:butt;stroke-linejoin:round;stroke-opacity:1"
     d="M 147.24535,125.48092 L 175.23552,125.48092 C 177.19587,125.48851 178.2932,126.40456 178.26255,128.50794 L 178.26255,145.53006 C 178.21741,147.47673 177.31095,148.56208 175.27483,148.51778 L 147.20604,148.51778 C 145.15504,148.47832 144.29903,147.36965 144.23798,145.54971 L 144.23798,128.54726 C 144.20024,126.63355 145.08297,125.50881 147.24535,125.48092 z "
     id="path27799"
     sodipodi:nodetypes="ccccccccc" />
  <path
     style="fill:none;fill-opacity:1;fill-rule:evenodd;stroke:#a4faf7;stroke-width:1px;stroke-linecap:butt;stroke-linejoin:round;stroke-opacity:1"
     d="M 183.62035,125.48092 L 211.61052,125.48092 C 213.57087,125.48851 214.6682,126.40456 214.63755,128.50794 L 214.63755,145.53006 C 214.59241,147.47673 213.68595,148.56208 211.64983,148.51778 L 183.58104,148.51778 C 181.53004,148.47832 180.67403,147.36965 180.61298,145.54971 L 180.61298,128.54726 C 180.57524,126.63355 181.45797,125.50881 183.62035,125.48092 z "
     id="path27801"
     sodipodi:nodetypes="ccccccccc" />
  <path
     style="fill:none;fill-opacity:1;fill-rule:evenodd;stroke:#a4faf7;stroke-width:1px;stroke-linecap:butt;stroke-linejoin:round;stroke-opacity:1"
     d="M 111.62035,150.48092 L 139.61052,150.48092 C 141.57087,150.48851 142.6682,151.40456 142.63755,153.50794 L 142.63755,170.53006 C 142.59241,172.47673 141.68595,173.56208 139.64983,173.51778 L 111.58104,173.51778 C 109.53004,173.47832 108.67403,172.36965 108.61298,170.54971 L 108.61298,153.54726 C 108.57524,151.63355 109.45797,150.50881 111.62035,150.48092 z "
     id="path27803"
     sodipodi:nodetypes="ccccccccc" />
  <path
     style="fill:none;fill-opacity:1;fill-rule:evenodd;stroke:#a4faf7;stroke-width:1px;stroke-linecap:butt;stroke-linejoin:round;stroke-opacity:1"
     d="M 147.49535,150.48092 L 175.48552,150.48092 C 177.44587,150.48851 178.5432,151.40456 178.51255,153.50794 L 178.51255,170.53006 C 178.46741,172.47673 177.56095,173.56208 175.52483,173.51778 L 147.45604,173.51778 C 145.40504,173.47832 144.54903,172.36965 144.48798,170.54971 L 144.48798,153.54726 C 144.45024,151.63355 145.33297,150.50881 147.49535,150.48092 z "
     id="path27805"
     sodipodi:nodetypes="ccccccccc" />
  <path
     style="fill:none;fill-opacity:1;fill-rule:evenodd;stroke:#a4faf7;stroke-width:1px;stroke-linecap:butt;stroke-linejoin:round;stroke-opacity:1"
     d="M 183.49535,150.35592 L 211.48552,150.35592 C 213.44587,150.36351 214.5432,151.27956 214.51255,153.38294 L 214.51255,170.40506 C 214.46741,172.35173 213.56095,173.43708 211.52483,173.39278 L 183.45604,173.39278 C 181.40504,173.35332 180.54903,172.24465 180.48798,170.42471 L 180.48798,153.42226 C 180.45024,151.50855 181.33297,150.38381 183.49535,150.35592 z "
     id="path27807"
     sodipodi:nodetypes="ccccccccc" />
</svg>
