<?xml version="1.0" encoding="UTF-8" standalone="no"?>
<!-- Created with Inkscape (http://www.inkscape.org/) -->
<svg
   xmlns:dc="http://purl.org/dc/elements/1.1/"
   xmlns:cc="http://web.resource.org/cc/"
   xmlns:rdf="http://www.w3.org/1999/02/22-rdf-syntax-ns#"
   xmlns:svg="http://www.w3.org/2000/svg"
   xmlns="http://www.w3.org/2000/svg"
   xmlns:xlink="http://www.w3.org/1999/xlink"
   xmlns:sodipodi="http://sodipodi.sourceforge.net/DTD/sodipodi-0.dtd"
   xmlns:inkscape="http://www.inkscape.org/namespaces/inkscape"
   width="36.621151"
   height="28.950068"
   id="svg5433"
   sodipodi:version="0.32"
   inkscape:version="0.45.1"
   version="1.0"
   sodipodi:docbase="/storage/projekte/programmieren/warzone/data/base/images/icons"
   sodipodi:docname="main-build.svg"
   inkscape:output_extension="org.inkscape.output.svg.inkscape">
  <defs
     id="defs5435">
    <linearGradient
       inkscape:collect="always"
       xlink:href="#linearGradient11941"
       id="linearGradient5425"
       gradientUnits="userSpaceOnUse"
       x1="121"
       y1="34.307323"
       x2="125.875"
       y2="41.119823" />
    <linearGradient
       inkscape:collect="always"
       xlink:href="#linearGradient11941"
       id="linearGradient9973"
       gradientUnits="userSpaceOnUse"
       x1="129.9375"
       y1="44.4375"
       x2="131.75"
       y2="42.625" />
    <linearGradient
       id="linearGradient11941">
      <stop
         style="stop-color:#d7ab3f;stop-opacity:1;"
         offset="0"
         id="stop11943" />
      <stop
         id="stop11949"
         offset="0.60795456"
         style="stop-color:#d7ab3f;stop-opacity:1;" />
      <stop
         style="stop-color:#6c5316;stop-opacity:1;"
         offset="1"
         id="stop11945" />
    </linearGradient>
    <linearGradient
       inkscape:collect="always"
       xlink:href="#linearGradient11941"
       id="linearGradient5423"
       gradientUnits="userSpaceOnUse"
       x1="116.8125"
       y1="41.0625"
       x2="121.5625"
       y2="45.4375" />
    <linearGradient
       id="linearGradient15838">
      <stop
         style="stop-color:#3e2911;stop-opacity:1;"
         offset="0"
         id="stop15840" />
      <stop
         style="stop-color:#5f3f1b;stop-opacity:1;"
         offset="1"
         id="stop15842" />
    </linearGradient>
    <radialGradient
       inkscape:collect="always"
       xlink:href="#linearGradient15838"
       id="radialGradient15092"
       gradientUnits="userSpaceOnUse"
       gradientTransform="matrix(1,0,0,0.7817293,0.6875,3.9870742)"
       cx="129.40054"
       cy="14.257869"
       fx="129.40054"
       fy="14.257869"
       r="17.957026" />
  </defs>
  <sodipodi:namedview
     id="base"
     pagecolor="#ffffff"
     bordercolor="#666666"
     borderopacity="1.0"
     inkscape:pageopacity="0.0"
     inkscape:pageshadow="2"
     inkscape:zoom="0.35"
     inkscape:cx="350"
     inkscape:cy="520"
     inkscape:document-units="px"
     inkscape:current-layer="layer1"
     inkscape:window-width="910"
     inkscape:window-height="627"
     inkscape:window-x="0"
     inkscape:window-y="25" />
  <metadata
     id="metadata5438">
    <rdf:RDF>
      <cc:Work
         rdf:about="">
        <dc:format>image/svg+xml</dc:format>
        <dc:type
           rdf:resource="http://purl.org/dc/dcmitype/StillImage" />
      </cc:Work>
    </rdf:RDF>
  </metadata>
  <g
     inkscape:label="Ebene 1"
     inkscape:groupmode="layer"
     id="layer1"
     transform="translate(-664.54657,-623.60144)">
    <g
       id="g5410"
       transform="translate(553.10305,623.3811)">
      <path
         sodipodi:nodetypes="ccccccccc"
         id="path15847"
         d="M 121.71271,1.1622771 L 138.83616,1.1622771 L 147.56467,14.060461 L 147.56467,15.33916 L 138.89176,28.237344 L 121.65711,28.181748 L 112.65062,15.283564 L 112.65062,14.060461 L 121.71271,1.1622771 z "
         style="fill:#000000;fill-opacity:1;fill-rule:evenodd;stroke:#000000;stroke-width:1px;stroke-linecap:butt;stroke-linejoin:miter;stroke-opacity:1" />
      <path
         sodipodi:nodetypes="ccccccccc"
         id="path14121"
         d="M 121.6931,1.5953351 L 138.81655,1.5953351 L 147.54507,14.493519 L 147.54507,15.772218 L 138.87215,28.670402 L 121.63751,28.614806 L 112.63102,15.716622 L 112.63102,14.493519 L 121.6931,1.5953351 z "
         style="fill:url(#radialGradient15092);fill-opacity:1;fill-rule:evenodd;stroke:#000000;stroke-width:1px;stroke-linecap:butt;stroke-linejoin:miter;stroke-opacity:1" />
      <path
         style="fill:none;fill-opacity:1;fill-rule:evenodd;stroke:#818eb8;stroke-width:1px;stroke-linecap:butt;stroke-linejoin:miter;stroke-opacity:1"
         d="M 121.0056,0.72033504 L 138.12905,0.72033504 L 146.85757,13.618519 L 146.85757,14.897218 L 138.18465,27.795402 L 120.95001,27.739806 L 111.94352,14.841622 L 111.94352,13.618519 L 121.0056,0.72033504 z "
         id="path14860"
         sodipodi:nodetypes="ccccccccc" />
      <g
         style="fill:#000000;fill-opacity:1"
         transform="translate(1.0131358,-28.770805)"
         id="g9955">
        <path
           sodipodi:nodetypes="ccccc"
           id="path9957"
           d="M 115.0625,42.25 L 119,45.8125 L 122.5,42.8125 L 118.375,39.5625 L 115.0625,42.25 z "
           style="fill:#000000;fill-opacity:1;fill-rule:evenodd;stroke:none;stroke-width:1px;stroke-linecap:butt;stroke-linejoin:miter;stroke-opacity:1" />
        <path
           sodipodi:nodetypes="ccccccc"
           id="path9959"
           d="M 119.25,35.625 L 121,36.25 L 137.0625,51.625 L 139.25,49.75 L 122.75,34.5 L 122.375,32.875 L 119.25,35.625 z "
           style="fill:#000000;fill-opacity:1;fill-rule:evenodd;stroke:none;stroke-width:1px;stroke-linecap:butt;stroke-linejoin:miter;stroke-opacity:1" />
        <path
           sodipodi:nodetypes="czzczcc"
           id="path9961"
           d="M 118.375,39.9375 C 118.375,39.9375 125.01128,32.357058 126.75,32 C 128.5,31.640625 129.375,31.75 131.375,32.5 C 133.375,33.25 134.75,35 134.75,35 C 134.75,35 131.76562,34.390625 130.4375,34.8125 C 129.09015,35.240483 121.9375,42.4375 121.9375,42.4375 L 118.375,39.9375 z "
           style="fill:#000000;fill-opacity:1;fill-rule:evenodd;stroke:none;stroke-width:1px;stroke-linecap:butt;stroke-linejoin:miter;stroke-opacity:1" />
      </g>
      <g
         transform="translate(-0.2368642,-29.145805)"
         id="g9963">
        <path
           style="fill:url(#linearGradient5423);fill-opacity:1;fill-rule:evenodd;stroke:none;stroke-width:1px;stroke-linecap:butt;stroke-linejoin:miter;stroke-opacity:1"
           d="M 115.0625,42.25 L 119,45.8125 L 122.125,42.375 L 118.375,39.5625 L 115.0625,42.25 z "
           id="path9965"
           sodipodi:nodetypes="ccccc" />
        <path
           style="fill:url(#linearGradient9973);fill-opacity:1;fill-rule:evenodd;stroke:none;stroke-width:1px;stroke-linecap:butt;stroke-linejoin:miter;stroke-opacity:1"
           d="M 119.75,35.4375 L 121,36.25 L 137.0625,51.625 L 139.25,49.75 L 122.75,34.5 L 121.8125,33.375 L 119.75,35.4375 z "
           id="path9967"
           sodipodi:nodetypes="ccccccc" />
        <path
           style="fill:url(#linearGradient5425);fill-opacity:1;fill-rule:evenodd;stroke:none;stroke-width:1px;stroke-linecap:butt;stroke-linejoin:miter;stroke-opacity:1"
           d="M 118.375,39.9375 C 118.375,39.9375 125.01128,32.357058 126.75,32 C 128.5,31.640625 129.375,31.75 131.375,32.5 C 133.375,33.25 134.75,35 134.75,35 C 134.75,35 131.76562,34.390625 130.4375,34.8125 C 129.09015,35.240483 121.9375,42.4375 121.9375,42.4375 L 118.375,39.9375 z "
           id="path9969"
           sodipodi:nodetypes="czzczcc" />
      </g>
    </g>
  </g>
</svg>
