<?xml version="1.0" encoding="UTF-8" standalone="no"?>
<!-- Created with Inkscape (http://www.inkscape.org/) -->
<svg
   xmlns:dc="http://purl.org/dc/elements/1.1/"
   xmlns:cc="http://web.resource.org/cc/"
   xmlns:rdf="http://www.w3.org/1999/02/22-rdf-syntax-ns#"
   xmlns:svg="http://www.w3.org/2000/svg"
   xmlns="http://www.w3.org/2000/svg"
   xmlns:xlink="http://www.w3.org/1999/xlink"
   xmlns:sodipodi="http://sodipodi.sourceforge.net/DTD/sodipodi-0.dtd"
   xmlns:inkscape="http://www.inkscape.org/namespaces/inkscape"
   width="28.013474"
   height="20.662785"
   id="svg3350"
   sodipodi:version="0.32"
   inkscape:version="0.45.1"
   version="1.0"
   sodipodi:docbase="/storage/projekte/programmieren/warzone/data/base/images/icons"
   sodipodi:docname="people1.svg"
   inkscape:output_extension="org.inkscape.output.svg.inkscape">
  <defs
     id="defs3352">
    <linearGradient
       inkscape:collect="always"
       xlink:href="#linearGradient8263"
       id="linearGradient12570"
       gradientUnits="userSpaceOnUse"
       x1="41.955437"
       y1="18.544704"
       x2="47.095825"
       y2="18.544704" />
    <linearGradient
       inkscape:collect="always"
       xlink:href="#linearGradient8263"
       id="linearGradient12568"
       gradientUnits="userSpaceOnUse"
       gradientTransform="translate(-40.003562,1.1265562)"
       x1="79.00634"
       y1="11.881027"
       x2="89.964172"
       y2="11.881027" />
    <linearGradient
       inkscape:collect="always"
       xlink:href="#linearGradient8263"
       id="linearGradient12566"
       gradientUnits="userSpaceOnUse"
       gradientTransform="matrix(1.0012945,0,0,0.9761982,-5.7721371e-2,0.1188959)"
       x1="42.149548"
       y1="7.7803698"
       x2="47.026878"
       y2="7.7803698" />
    <linearGradient
       inkscape:collect="always"
       xlink:href="#linearGradient8263"
       id="linearGradient12556"
       gradientUnits="userSpaceOnUse"
       x1="41.955437"
       y1="18.544704"
       x2="47.095825"
       y2="18.544704" />
    <linearGradient
       inkscape:collect="always"
       xlink:href="#linearGradient8263"
       id="linearGradient12554"
       gradientUnits="userSpaceOnUse"
       gradientTransform="translate(-40.003562,1.1265562)"
       x1="79.00634"
       y1="11.881027"
       x2="89.964172"
       y2="11.881027" />
    <linearGradient
       inkscape:collect="always"
       xlink:href="#linearGradient8263"
       id="linearGradient12552"
       gradientUnits="userSpaceOnUse"
       gradientTransform="matrix(1.0012945,0,0,0.9761982,-5.7721371e-2,0.1188959)"
       x1="42.149548"
       y1="7.7803698"
       x2="47.026878"
       y2="7.7803698" />
    <linearGradient
       inkscape:collect="always"
       xlink:href="#linearGradient8263"
       id="linearGradient12542"
       gradientUnits="userSpaceOnUse"
       x1="41.955437"
       y1="18.544704"
       x2="47.095825"
       y2="18.544704" />
    <linearGradient
       inkscape:collect="always"
       xlink:href="#linearGradient8263"
       id="linearGradient12540"
       gradientUnits="userSpaceOnUse"
       gradientTransform="translate(-40.003562,1.1265562)"
       x1="79.00634"
       y1="11.881027"
       x2="89.964172"
       y2="11.881027" />
    <linearGradient
       inkscape:collect="always"
       xlink:href="#linearGradient8263"
       id="linearGradient12538"
       gradientUnits="userSpaceOnUse"
       gradientTransform="matrix(1.0012945,0,0,0.9761982,-5.7721371e-2,0.1188959)"
       x1="42.149548"
       y1="7.7803698"
       x2="47.026878"
       y2="7.7803698" />
    <linearGradient
       inkscape:collect="always"
       xlink:href="#linearGradient8263"
       id="linearGradient12523"
       x1="41.955437"
       y1="18.544704"
       x2="47.095825"
       y2="18.544704"
       gradientUnits="userSpaceOnUse" />
    <linearGradient
       inkscape:collect="always"
       xlink:href="#linearGradient8263"
       id="linearGradient9594"
       gradientUnits="userSpaceOnUse"
       x1="79.00634"
       y1="11.881027"
       x2="89.964172"
       y2="11.881027"
       gradientTransform="translate(-40.003562,1.1265562)" />
    <linearGradient
       id="linearGradient8263">
      <stop
         id="stop8265"
         offset="0"
         style="stop-color:#a4faf7;stop-opacity:1;" />
      <stop
         id="stop8267"
         offset="1"
         style="stop-color:#0a827d;stop-opacity:1;" />
    </linearGradient>
    <linearGradient
       inkscape:collect="always"
       xlink:href="#linearGradient8263"
       id="linearGradient10575"
       x1="42.149548"
       y1="7.7803698"
       x2="47.026878"
       y2="7.7803698"
       gradientUnits="userSpaceOnUse"
       gradientTransform="matrix(1.0012945,0,0,0.9761982,-5.7721371e-2,0.1188959)" />
  </defs>
  <sodipodi:namedview
     id="base"
     pagecolor="#ffffff"
     bordercolor="#ffffff"
     borderopacity="0.0"
     inkscape:pageopacity="0.0"
     inkscape:pageshadow="0"
     inkscape:zoom="15.839192"
     inkscape:cx="7.1812044"
     inkscape:cy="10.486343"
     inkscape:document-units="px"
     inkscape:current-layer="layer1"
     inkscape:window-width="1280"
     inkscape:window-height="949"
     inkscape:window-x="0"
     inkscape:window-y="25" />
  <metadata
     id="metadata3355">
    <rdf:RDF>
      <cc:Work
         rdf:about="">
        <dc:format>image/svg+xml</dc:format>
        <dc:type
           rdf:resource="http://purl.org/dc/dcmitype/StillImage" />
      </cc:Work>
    </rdf:RDF>
  </metadata>
  <g
     inkscape:label="Layer 1"
     inkscape:groupmode="layer"
     id="layer1"
     transform="translate(-620.27898,-750.60222)">
    <path
       sodipodi:type="arc"
       style="fill:#a4faf7;fill-opacity:1;fill-rule:evenodd;stroke:#000000;stroke-width:0.5;stroke-linecap:butt;stroke-linejoin:bevel;stroke-miterlimit:4;stroke-dasharray:none;stroke-dashoffset:0;stroke-opacity:1"
       id="path8601"
       sodipodi:cx="44.3125"
       sodipodi:cy="7.1250005"
       sodipodi:rx="1.9375"
       sodipodi:ry="1.9375"
       d="M 46.25 7.1250005 A 1.9375 1.9375 0 1 1  42.375,7.1250005 A 1.9375 1.9375 0 1 1  46.25 7.1250005 z"
       transform="translate(586.91739,747.76375)" />
    <path
       sodipodi:type="arc"
       style="fill:#000000;fill-opacity:1;fill-rule:evenodd;stroke:#000000;stroke-width:0.5;stroke-linecap:butt;stroke-linejoin:bevel;stroke-miterlimit:4;stroke-dasharray:none;stroke-dashoffset:0;stroke-opacity:1"
       id="path12690"
       sodipodi:cx="44.3125"
       sodipodi:cy="7.1250005"
       sodipodi:rx="1.9375"
       sodipodi:ry="1.9375"
       d="M 46.25 7.1250005 A 1.9375 1.9375 0 1 1  42.375,7.1250005 A 1.9375 1.9375 0 1 1  46.25 7.1250005 z"
       transform="translate(587.18073,748.17404)" />
    <path
       sodipodi:type="arc"
       style="fill:#a4faf7;fill-opacity:1;fill-rule:evenodd;stroke:#000000;stroke-width:0.5;stroke-linecap:butt;stroke-linejoin:bevel;stroke-miterlimit:4;stroke-dasharray:none;stroke-dashoffset:0;stroke-opacity:1"
       id="path8603"
       sodipodi:cx="44.3125"
       sodipodi:cy="7.1250005"
       sodipodi:rx="1.9375"
       sodipodi:ry="1.9375"
       d="M 46.25 7.1250005 A 1.9375 1.9375 0 1 1  42.375,7.1250005 A 1.9375 1.9375 0 1 1  46.25 7.1250005 z"
       transform="translate(592.97989,746.76375)" />
    <path
       sodipodi:type="arc"
       style="fill:#000000;fill-opacity:1;fill-rule:evenodd;stroke:#000000;stroke-width:0.5;stroke-linecap:butt;stroke-linejoin:bevel;stroke-miterlimit:4;stroke-dasharray:none;stroke-dashoffset:0;stroke-opacity:1"
       id="path12692"
       sodipodi:cx="44.3125"
       sodipodi:cy="7.1250005"
       sodipodi:rx="1.9375"
       sodipodi:ry="1.9375"
       d="M 46.25 7.1250005 A 1.9375 1.9375 0 1 1  42.375,7.1250005 A 1.9375 1.9375 0 1 1  46.25 7.1250005 z"
       transform="translate(593.24323,747.17404)" />
    <path
       sodipodi:type="arc"
       style="fill:#a4faf7;fill-opacity:1;fill-rule:evenodd;stroke:#000000;stroke-width:0.5;stroke-linecap:butt;stroke-linejoin:bevel;stroke-miterlimit:4;stroke-dasharray:none;stroke-dashoffset:0;stroke-opacity:1"
       id="path8605"
       sodipodi:cx="44.3125"
       sodipodi:cy="7.1250005"
       sodipodi:rx="1.9375"
       sodipodi:ry="1.9375"
       d="M 46.25 7.1250005 A 1.9375 1.9375 0 1 1  42.375,7.1250005 A 1.9375 1.9375 0 1 1  46.25 7.1250005 z"
       transform="translate(598.91739,745.70125)" />
    <g
       id="g12694"
       transform="translate(599.03765,746.14823)"
       style="fill:#000000;fill-opacity:1;stroke:#000000;stroke-opacity:1">
      <path
         sodipodi:nodetypes="csccsc"
         id="path12696"
         d="M 44.588388,5.1114434 C 43.382063,5.1114434 42.326801,6.0729072 42.398056,7.2468768 C 42.486502,8.7040786 43.586575,8.2006725 43.704622,10.265607 C 44.154054,10.283919 45.38309,10.336595 45.339401,10.308749 C 45.467814,8.1773981 46.758816,8.76817 46.77872,7.2468768 C 46.794107,6.0708326 45.794714,5.1114434 44.588388,5.1114434 z "
         style="fill:#000000;fill-opacity:1;fill-rule:evenodd;stroke:#000000;stroke-width:0.49433336;stroke-linecap:butt;stroke-linejoin:bevel;stroke-miterlimit:4;stroke-dasharray:none;stroke-dashoffset:0;stroke-opacity:1" />
      <path
         sodipodi:nodetypes="ccccccccssssc"
         id="path12698"
         d="M 39.799092,16.48928 L 41.519524,16.48928 L 41.740494,12.566722 L 42.141383,14.651431 L 46.834848,14.739819 L 47.27679,12.618499 L 47.633485,16.525892 L 49.004805,16.515169 C 49.004805,16.515169 48.459793,12.541135 48.460611,11.932838 C 48.46165,11.182286 48.302071,10.374237 47.302028,10.390484 C 47.257026,10.391199 42.267042,10.327905 41.468397,10.368387 C 40.426259,10.42121 40.428191,11.006963 40.270062,11.958727 C 40.088372,13.0523 39.799092,16.48928 39.799092,16.48928 z "
         style="fill:#000000;fill-opacity:1;fill-rule:evenodd;stroke:#000000;stroke-width:0.5;stroke-linecap:butt;stroke-linejoin:miter;stroke-miterlimit:4;stroke-dasharray:none;stroke-opacity:1" />
      <path
         sodipodi:nodetypes="ccccccccc"
         id="path12700"
         d="M 42.24963,21.903462 L 42.161242,14.655618 L 46.80163,14.699812 L 46.80163,21.815074 L 45.21064,21.859268 L 45.21064,16.953714 L 43.796426,16.953713 L 43.752231,21.859268 L 42.24963,21.903462 z "
         style="fill:#000000;fill-opacity:1;fill-rule:evenodd;stroke:#000000;stroke-width:0.5;stroke-linecap:butt;stroke-linejoin:miter;stroke-miterlimit:4;stroke-dasharray:none;stroke-opacity:1" />
    </g>
    <g
       id="g12558"
       transform="translate(598.7743,745.73794)">
      <path
         sodipodi:nodetypes="csccsc"
         id="path12560"
         d="M 44.588388,5.1114434 C 43.382063,5.1114434 42.326801,6.0729072 42.398056,7.2468768 C 42.486502,8.7040786 43.586575,8.2006725 43.704622,10.265607 C 44.154054,10.283919 45.38309,10.336595 45.339401,10.308749 C 45.467814,8.1773981 46.758816,8.76817 46.77872,7.2468768 C 46.794107,6.0708326 45.794714,5.1114434 44.588388,5.1114434 z "
         style="fill:url(#linearGradient12566);fill-opacity:1;fill-rule:evenodd;stroke:#107470;stroke-width:0.49433336;stroke-linecap:butt;stroke-linejoin:bevel;stroke-miterlimit:4;stroke-dasharray:none;stroke-dashoffset:0;stroke-opacity:1" />
      <path
         sodipodi:nodetypes="ccccccccssssc"
         id="path12562"
         d="M 39.799092,16.48928 L 41.519524,16.48928 L 41.740494,12.566722 L 42.141383,14.651431 L 46.834848,14.739819 L 47.27679,12.618499 L 47.633485,16.525892 L 49.004805,16.515169 C 49.004805,16.515169 48.459793,12.541135 48.460611,11.932838 C 48.46165,11.182286 48.302071,10.374237 47.302028,10.390484 C 47.257026,10.391199 42.267042,10.327905 41.468397,10.368387 C 40.426259,10.42121 40.428191,11.006963 40.270062,11.958727 C 40.088372,13.0523 39.799092,16.48928 39.799092,16.48928 z "
         style="fill:url(#linearGradient12568);fill-opacity:1;fill-rule:evenodd;stroke:#107470;stroke-width:0.5;stroke-linecap:butt;stroke-linejoin:miter;stroke-miterlimit:4;stroke-dasharray:none;stroke-opacity:1" />
      <path
         sodipodi:nodetypes="ccccccccc"
         id="path12564"
         d="M 42.24963,21.903462 L 42.161242,14.655618 L 46.80163,14.699812 L 46.80163,21.815074 L 45.21064,21.859268 L 45.21064,16.953714 L 43.796426,16.953713 L 43.752231,21.859268 L 42.24963,21.903462 z "
         style="fill:url(#linearGradient12570);fill-opacity:1;fill-rule:evenodd;stroke:#107470;stroke-width:0.5;stroke-linecap:butt;stroke-linejoin:miter;stroke-miterlimit:4;stroke-dasharray:none;stroke-opacity:1" />
    </g>
    <g
       id="g12702"
       transform="translate(593.11563,747.20889)"
       style="fill:#000000;fill-opacity:1;stroke:#000000;stroke-opacity:1">
      <path
         sodipodi:nodetypes="csccsc"
         id="path12704"
         d="M 44.588388,5.1114434 C 43.382063,5.1114434 42.326801,6.0729072 42.398056,7.2468768 C 42.486502,8.7040786 43.586575,8.2006725 43.704622,10.265607 C 44.154054,10.283919 45.38309,10.336595 45.339401,10.308749 C 45.467814,8.1773981 46.758816,8.76817 46.77872,7.2468768 C 46.794107,6.0708326 45.794714,5.1114434 44.588388,5.1114434 z "
         style="fill:#000000;fill-opacity:1;fill-rule:evenodd;stroke:#000000;stroke-width:0.49433336;stroke-linecap:butt;stroke-linejoin:bevel;stroke-miterlimit:4;stroke-dasharray:none;stroke-dashoffset:0;stroke-opacity:1" />
      <path
         sodipodi:nodetypes="ccccccccssssc"
         id="path12706"
         d="M 39.799092,16.48928 L 41.519524,16.48928 L 41.740494,12.566722 L 42.141383,14.651431 L 46.834848,14.739819 L 47.27679,12.618499 L 47.633485,16.525892 L 49.004805,16.515169 C 49.004805,16.515169 48.459793,12.541135 48.460611,11.932838 C 48.46165,11.182286 48.302071,10.374237 47.302028,10.390484 C 47.257026,10.391199 42.267042,10.327905 41.468397,10.368387 C 40.426259,10.42121 40.428191,11.006963 40.270062,11.958727 C 40.088372,13.0523 39.799092,16.48928 39.799092,16.48928 z "
         style="fill:#000000;fill-opacity:1;fill-rule:evenodd;stroke:#000000;stroke-width:0.5;stroke-linecap:butt;stroke-linejoin:miter;stroke-miterlimit:4;stroke-dasharray:none;stroke-opacity:1" />
      <path
         sodipodi:nodetypes="ccccccccc"
         id="path12708"
         d="M 42.24963,21.903462 L 42.161242,14.655618 L 46.80163,14.699812 L 46.80163,21.815074 L 45.21064,21.859268 L 45.21064,16.953714 L 43.796426,16.953713 L 43.752231,21.859268 L 42.24963,21.903462 z "
         style="fill:#000000;fill-opacity:1;fill-rule:evenodd;stroke:#000000;stroke-width:0.5;stroke-linecap:butt;stroke-linejoin:miter;stroke-miterlimit:4;stroke-dasharray:none;stroke-opacity:1" />
    </g>
    <g
       id="g12544"
       transform="translate(592.85229,746.7986)">
      <path
         sodipodi:nodetypes="csccsc"
         id="path12546"
         d="M 44.588388,5.1114434 C 43.382063,5.1114434 42.326801,6.0729072 42.398056,7.2468768 C 42.486502,8.7040786 43.586575,8.2006725 43.704622,10.265607 C 44.154054,10.283919 45.38309,10.336595 45.339401,10.308749 C 45.467814,8.1773981 46.758816,8.76817 46.77872,7.2468768 C 46.794107,6.0708326 45.794714,5.1114434 44.588388,5.1114434 z "
         style="fill:url(#linearGradient12552);fill-opacity:1;fill-rule:evenodd;stroke:#107470;stroke-width:0.49433336;stroke-linecap:butt;stroke-linejoin:bevel;stroke-miterlimit:4;stroke-dasharray:none;stroke-dashoffset:0;stroke-opacity:1" />
      <path
         sodipodi:nodetypes="ccccccccssssc"
         id="path12548"
         d="M 39.799092,16.48928 L 41.519524,16.48928 L 41.740494,12.566722 L 42.141383,14.651431 L 46.834848,14.739819 L 47.27679,12.618499 L 47.633485,16.525892 L 49.004805,16.515169 C 49.004805,16.515169 48.459793,12.541135 48.460611,11.932838 C 48.46165,11.182286 48.302071,10.374237 47.302028,10.390484 C 47.257026,10.391199 42.267042,10.327905 41.468397,10.368387 C 40.426259,10.42121 40.428191,11.006963 40.270062,11.958727 C 40.088372,13.0523 39.799092,16.48928 39.799092,16.48928 z "
         style="fill:url(#linearGradient12554);fill-opacity:1;fill-rule:evenodd;stroke:#107470;stroke-width:0.5;stroke-linecap:butt;stroke-linejoin:miter;stroke-miterlimit:4;stroke-dasharray:none;stroke-opacity:1" />
      <path
         sodipodi:nodetypes="ccccccccc"
         id="path12550"
         d="M 42.24963,21.903462 L 42.161242,14.655618 L 46.80163,14.699812 L 46.80163,21.815074 L 45.21064,21.859268 L 45.21064,16.953714 L 43.796426,16.953713 L 43.752231,21.859268 L 42.24963,21.903462 z "
         style="fill:url(#linearGradient12556);fill-opacity:1;fill-rule:evenodd;stroke:#107470;stroke-width:0.5;stroke-linecap:butt;stroke-linejoin:miter;stroke-miterlimit:4;stroke-dasharray:none;stroke-opacity:1" />
    </g>
    <g
       id="g12710"
       transform="translate(586.97264,748.18116)"
       style="fill:#000000;fill-opacity:1;stroke:#000000;stroke-opacity:1">
      <path
         sodipodi:nodetypes="csccsc"
         id="path12712"
         d="M 44.588388,5.1114434 C 43.382063,5.1114434 42.326801,6.0729072 42.398056,7.2468768 C 42.486502,8.7040786 43.586575,8.2006725 43.704622,10.265607 C 44.154054,10.283919 45.38309,10.336595 45.339401,10.308749 C 45.467814,8.1773981 46.758816,8.76817 46.77872,7.2468768 C 46.794107,6.0708326 45.794714,5.1114434 44.588388,5.1114434 z "
         style="fill:#000000;fill-opacity:1;fill-rule:evenodd;stroke:#000000;stroke-width:0.49433336;stroke-linecap:butt;stroke-linejoin:bevel;stroke-miterlimit:4;stroke-dasharray:none;stroke-dashoffset:0;stroke-opacity:1" />
      <path
         sodipodi:nodetypes="ccccccccssssc"
         id="path12714"
         d="M 39.799092,16.48928 L 41.519524,16.48928 L 41.740494,12.566722 L 42.141383,14.651431 L 46.834848,14.739819 L 47.27679,12.618499 L 47.633485,16.525892 L 49.004805,16.515169 C 49.004805,16.515169 48.459793,12.541135 48.460611,11.932838 C 48.46165,11.182286 48.302071,10.374237 47.302028,10.390484 C 47.257026,10.391199 42.267042,10.327905 41.468397,10.368387 C 40.426259,10.42121 40.428191,11.006963 40.270062,11.958727 C 40.088372,13.0523 39.799092,16.48928 39.799092,16.48928 z "
         style="fill:#000000;fill-opacity:1;fill-rule:evenodd;stroke:#000000;stroke-width:0.5;stroke-linecap:butt;stroke-linejoin:miter;stroke-miterlimit:4;stroke-dasharray:none;stroke-opacity:1" />
      <path
         sodipodi:nodetypes="ccccccccc"
         id="path12716"
         d="M 42.24963,21.903462 L 42.161242,14.655618 L 46.80163,14.699812 L 46.80163,21.815074 L 45.21064,21.859268 L 45.21064,16.953714 L 43.796426,16.953713 L 43.752231,21.859268 L 42.24963,21.903462 z "
         style="fill:#000000;fill-opacity:1;fill-rule:evenodd;stroke:#000000;stroke-width:0.5;stroke-linecap:butt;stroke-linejoin:miter;stroke-miterlimit:4;stroke-dasharray:none;stroke-opacity:1" />
    </g>
    <g
       id="g12530"
       transform="translate(586.70929,747.77088)">
      <path
         sodipodi:nodetypes="csccsc"
         id="path12532"
         d="M 44.588388,5.1114434 C 43.382063,5.1114434 42.326801,6.0729072 42.398056,7.2468768 C 42.486502,8.7040786 43.586575,8.2006725 43.704622,10.265607 C 44.154054,10.283919 45.38309,10.336595 45.339401,10.308749 C 45.467814,8.1773981 46.758816,8.76817 46.77872,7.2468768 C 46.794107,6.0708326 45.794714,5.1114434 44.588388,5.1114434 z "
         style="fill:url(#linearGradient12538);fill-opacity:1;fill-rule:evenodd;stroke:#107470;stroke-width:0.49433336;stroke-linecap:butt;stroke-linejoin:bevel;stroke-miterlimit:4;stroke-dasharray:none;stroke-dashoffset:0;stroke-opacity:1" />
      <path
         sodipodi:nodetypes="ccccccccssssc"
         id="path12534"
         d="M 39.799092,16.48928 L 41.519524,16.48928 L 41.740494,12.566722 L 42.141383,14.651431 L 46.834848,14.739819 L 47.27679,12.618499 L 47.633485,16.525892 L 49.004805,16.515169 C 49.004805,16.515169 48.459793,12.541135 48.460611,11.932838 C 48.46165,11.182286 48.302071,10.374237 47.302028,10.390484 C 47.257026,10.391199 42.267042,10.327905 41.468397,10.368387 C 40.426259,10.42121 40.428191,11.006963 40.270062,11.958727 C 40.088372,13.0523 39.799092,16.48928 39.799092,16.48928 z "
         style="fill:url(#linearGradient12540);fill-opacity:1;fill-rule:evenodd;stroke:#107470;stroke-width:0.5;stroke-linecap:butt;stroke-linejoin:miter;stroke-miterlimit:4;stroke-dasharray:none;stroke-opacity:1" />
      <path
         sodipodi:nodetypes="ccccccccc"
         id="path12536"
         d="M 42.24963,21.903462 L 42.161242,14.655618 L 46.80163,14.699812 L 46.80163,21.815074 L 45.21064,21.859268 L 45.21064,16.953714 L 43.796426,16.953713 L 43.752231,21.859268 L 42.24963,21.903462 z "
         style="fill:url(#linearGradient12542);fill-opacity:1;fill-rule:evenodd;stroke:#107470;stroke-width:0.5;stroke-linecap:butt;stroke-linejoin:miter;stroke-miterlimit:4;stroke-dasharray:none;stroke-opacity:1" />
    </g>
    <g
       id="g12718"
       transform="translate(580.99323,749.11154)"
       style="fill:#000000;fill-opacity:1;stroke:#000000;stroke-opacity:1">
      <path
         sodipodi:nodetypes="csccsc"
         id="path12720"
         d="M 44.588388,5.1114434 C 43.382063,5.1114434 42.326801,6.0729072 42.398056,7.2468768 C 42.486502,8.7040786 43.586575,8.2006725 43.704622,10.265607 C 44.154054,10.283919 45.38309,10.336595 45.339401,10.308749 C 45.467814,8.1773981 46.758816,8.76817 46.77872,7.2468768 C 46.794107,6.0708326 45.794714,5.1114434 44.588388,5.1114434 z "
         style="fill:#000000;fill-opacity:1;fill-rule:evenodd;stroke:#000000;stroke-width:0.49433336;stroke-linecap:butt;stroke-linejoin:bevel;stroke-miterlimit:4;stroke-dasharray:none;stroke-dashoffset:0;stroke-opacity:1" />
      <path
         sodipodi:nodetypes="ccccccccssssc"
         id="path12722"
         d="M 39.799092,16.48928 L 41.519524,16.48928 L 41.740494,12.566722 L 42.141383,14.651431 L 46.834848,14.739819 L 47.27679,12.618499 L 47.633485,16.525892 L 49.004805,16.515169 C 49.004805,16.515169 48.459793,12.541135 48.460611,11.932838 C 48.46165,11.182286 48.302071,10.374237 47.302028,10.390484 C 47.257026,10.391199 42.267042,10.327905 41.468397,10.368387 C 40.426259,10.42121 40.428191,11.006963 40.270062,11.958727 C 40.088372,13.0523 39.799092,16.48928 39.799092,16.48928 z "
         style="fill:#000000;fill-opacity:1;fill-rule:evenodd;stroke:#000000;stroke-width:0.5;stroke-linecap:butt;stroke-linejoin:miter;stroke-miterlimit:4;stroke-dasharray:none;stroke-opacity:1" />
      <path
         sodipodi:nodetypes="ccccccccc"
         id="path12724"
         d="M 42.24963,21.903462 L 42.161242,14.655618 L 46.80163,14.699812 L 46.80163,21.815074 L 45.21064,21.859268 L 45.21064,16.953714 L 43.796426,16.953713 L 43.752231,21.859268 L 42.24963,21.903462 z "
         style="fill:#000000;fill-opacity:1;fill-rule:evenodd;stroke:#000000;stroke-width:0.5;stroke-linecap:butt;stroke-linejoin:miter;stroke-miterlimit:4;stroke-dasharray:none;stroke-opacity:1" />
    </g>
    <g
       id="g12525"
       transform="translate(580.72989,748.70125)">
      <path
         sodipodi:nodetypes="csccsc"
         id="path8599"
         d="M 44.588388,5.1114434 C 43.382063,5.1114434 42.326801,6.0729072 42.398056,7.2468768 C 42.486502,8.7040786 43.586575,8.2006725 43.704622,10.265607 C 44.154054,10.283919 45.38309,10.336595 45.339401,10.308749 C 45.467814,8.1773981 46.758816,8.76817 46.77872,7.2468768 C 46.794107,6.0708326 45.794714,5.1114434 44.588388,5.1114434 z "
         style="fill:url(#linearGradient10575);fill-opacity:1;fill-rule:evenodd;stroke:#107470;stroke-width:0.49433336;stroke-linecap:butt;stroke-linejoin:bevel;stroke-miterlimit:4;stroke-dasharray:none;stroke-dashoffset:0;stroke-opacity:1" />
      <path
         sodipodi:nodetypes="ccccccccssssc"
         id="path9592"
         d="M 39.799092,16.48928 L 41.519524,16.48928 L 41.740494,12.566722 L 42.141383,14.651431 L 46.834848,14.739819 L 47.27679,12.618499 L 47.633485,16.525892 L 49.004805,16.515169 C 49.004805,16.515169 48.459793,12.541135 48.460611,11.932838 C 48.46165,11.182286 48.302071,10.374237 47.302028,10.390484 C 47.257026,10.391199 42.267042,10.327905 41.468397,10.368387 C 40.426259,10.42121 40.428191,11.006963 40.270062,11.958727 C 40.088372,13.0523 39.799092,16.48928 39.799092,16.48928 z "
         style="fill:url(#linearGradient9594);fill-opacity:1;fill-rule:evenodd;stroke:#107470;stroke-width:0.5;stroke-linecap:butt;stroke-linejoin:miter;stroke-miterlimit:4;stroke-dasharray:none;stroke-opacity:1" />
      <path
         sodipodi:nodetypes="ccccccccc"
         id="path10577"
         d="M 42.24963,21.903462 L 42.161242,14.655618 L 46.80163,14.699812 L 46.80163,21.815074 L 45.21064,21.859268 L 45.21064,16.953714 L 43.796426,16.953713 L 43.752231,21.859268 L 42.24963,21.903462 z "
         style="fill:url(#linearGradient12523);fill-opacity:1;fill-rule:evenodd;stroke:#107470;stroke-width:0.5;stroke-linecap:butt;stroke-linejoin:miter;stroke-miterlimit:4;stroke-dasharray:none;stroke-opacity:1" />
    </g>
  </g>
</svg>
