<?xml version="1.0" encoding="UTF-8" standalone="no"?>
<!-- Created with Inkscape (http://www.inkscape.org/) -->

<svg
   xmlns:dc="http://purl.org/dc/elements/1.1/"
   xmlns:cc="http://creativecommons.org/ns#"
   xmlns:rdf="http://www.w3.org/1999/02/22-rdf-syntax-ns#"
   xmlns:svg="http://www.w3.org/2000/svg"
   xmlns="http://www.w3.org/2000/svg"
   xmlns:xlink="http://www.w3.org/1999/xlink"
   xmlns:sodipodi="http://sodipodi.sourceforge.net/DTD/sodipodi-0.dtd"
   xmlns:inkscape="http://www.inkscape.org/namespaces/inkscape"
   width="38"
   height="30"
   id="svg4990"
   sodipodi:version="0.32"
   inkscape:version="0.92.5 (2060ec1f9f, 2020-04-08)"
   version="1.0"
   sodipodi:docname="design.svg"
   inkscape:output_extension="org.inkscape.output.svg.inkscape">
  <defs
     id="defs4992">
    <inkscape:path-effect
       effect="skeletal"
       id="path-effect4696"
       is_visible="true"
       pattern="m 827.94053,658.2344 3.7124,-0.0884 5.7644,0.0472 -5.7644,-0.0472 1.2816,-8.26429 3.0936,-0.0884 2.0329,10.07627 h -10.2972 z"
       copytype="repeated"
       prop_scale="1"
       scale_y_rel="false"
       spacing="0.9"
       normal_offset="-4"
       tang_offset="0"
       prop_units="false"
       vertical_pattern="false"
       fuse_tolerance="0" />
    <inkscape:path-effect
       effect="skeletal"
       id="path-effect4659"
       is_visible="true"
       pattern="m 827.70689,649.78148 h 9.8733 v 13.36957 h -9.8733 z"
       copytype="repeated"
       prop_scale="1.5"
       scale_y_rel="false"
       spacing="4.4"
       normal_offset="0"
       tang_offset="0"
       prop_units="false"
       vertical_pattern="false"
       fuse_tolerance="0" />
    <inkscape:path-effect
       effect="skeletal"
       id="path-effect931"
       is_visible="true"
       pattern="M 0,0 H 1"
       copytype="single_stretched"
       prop_scale="1"
       scale_y_rel="false"
       spacing="0"
       normal_offset="0"
       tang_offset="0"
       prop_units="false"
       vertical_pattern="false"
       fuse_tolerance="0" />
    <linearGradient
       id="linearGradient4860">
      <stop
         style="stop-color:#dadada;stop-opacity:1;"
         offset="0"
         id="stop4862" />
      <stop
         style="stop-color:#9d9d9d;stop-opacity:1;"
         offset="1"
         id="stop4864" />
    </linearGradient>
    <linearGradient
       id="linearGradient18792">
      <stop
         id="stop18794"
         offset="0"
         style="stop-color:#e1e1e1;stop-opacity:1;" />
      <stop
         id="stop18796"
         offset="1"
         style="stop-color:#cdcdcd;stop-opacity:1;" />
    </linearGradient>
    <linearGradient
       id="linearGradient31734">
      <stop
         style="stop-color:#4f4f4f;stop-opacity:1;"
         offset="0"
         id="stop31736" />
      <stop
         style="stop-color:#626262;stop-opacity:1;"
         offset="1"
         id="stop31738" />
    </linearGradient>
    <radialGradient
       inkscape:collect="always"
       xlink:href="#linearGradient31734"
       id="radialGradient4872"
       gradientUnits="userSpaceOnUse"
       gradientTransform="matrix(1,0,0,0.7817294,790.88479,630.51636)"
       cx="54.872875"
       cy="43.040981"
       fx="54.872875"
       fy="43.040981"
       r="17.957026" />
    <inkscape:path-effect
       effect="skeletal"
       id="path-effect4696-7"
       is_visible="true"
       pattern="m 827.94053,658.2344 3.7124,-0.0884 5.7644,0.0472 -5.7644,-0.0472 1.2816,-8.26429 3.0936,-0.0884 2.0329,10.07627 h -10.2972 z"
       copytype="repeated"
       prop_scale="1"
       scale_y_rel="false"
       spacing="0.9"
       normal_offset="-6.6"
       tang_offset="0"
       prop_units="false"
       vertical_pattern="false"
       fuse_tolerance="0" />
    <linearGradient
       id="linearGradient40457">
      <stop
         id="stop40459"
         offset="0"
         style="stop-color:#22253f;stop-opacity:1;" />
      <stop
         id="stop40461"
         offset="1"
         style="stop-color:#373c66;stop-opacity:1;" />
    </linearGradient>
  </defs>
  <sodipodi:namedview
     id="base"
     pagecolor="#ffffff"
     bordercolor="#666666"
     borderopacity="1.0"
     inkscape:pageopacity="0.0"
     inkscape:pageshadow="2"
     inkscape:zoom="16"
     inkscape:cx="21.057421"
     inkscape:cy="13.396781"
     inkscape:document-units="px"
     inkscape:current-layer="layer1"
     inkscape:window-width="1848"
     inkscape:window-height="1016"
     inkscape:window-x="72"
     inkscape:window-y="27"
     showgrid="false"
     inkscape:window-maximized="1"
     inkscape:snap-bbox="false"
     inkscape:snap-object-midpoints="true" />
  <metadata
     id="metadata4995">
    <rdf:RDF>
      <cc:Work
         rdf:about="">
        <dc:format>image/svg+xml</dc:format>
        <dc:type
           rdf:resource="http://purl.org/dc/dcmitype/StillImage" />
        <dc:title></dc:title>
      </cc:Work>
    </rdf:RDF>
  </metadata>
  <g
     inkscape:label="Ebene 1"
     inkscape:groupmode="layer"
     id="layer1"
     transform="translate(-827.20689,-648.30004)">
    <rect
       style="fill:#00529e;fill-opacity:1;stroke:none;stroke-width:1.26842511;stroke-miterlimit:4;stroke-dasharray:none;stroke-opacity:1"
       id="rect3505"
       width="38"
       height="30"
       x="827.20691"
       y="648.30005" />
    <path
       style="fill:none;stroke:#000000;stroke-width:1px;stroke-linecap:butt;stroke-linejoin:miter;stroke-opacity:1"
       d="m 1437.0963,197.80804 280.5,8.5 -0.5,12.5 -279.163,3.91421 z"
       id="path876"
       inkscape:connector-curvature="0"
       sodipodi:nodetypes="ccccc" />
    <path
       style="fill:#246387;fill-opacity:1;stroke:#000000;stroke-width:1px;stroke-linecap:butt;stroke-linejoin:miter;stroke-opacity:1"
       d="m 1234.9983,295.40855 -40,-78 35.5,-47.5 200.1188,5.74264 72.7326,94.97921 -20.3514,30.27815 z"
       id="path874"
       inkscape:connector-curvature="0"
       sodipodi:nodetypes="ccccccc" />
    <circle
       style="fill:none;fill-opacity:1;stroke:#000000;stroke-width:3.09892535;stroke-miterlimit:4;stroke-dasharray:none;stroke-opacity:1"
       id="path844"
       cx="1249.7751"
       cy="327.13165"
       r="52.727463" />
    <circle
       style="fill:none;fill-opacity:1;stroke:#000000;stroke-width:2.43176126;stroke-miterlimit:4;stroke-dasharray:none;stroke-opacity:1"
       id="path844-3"
       cx="1249.7751"
       cy="327.13165"
       r="41.438522" />
    <circle
       style="fill:none;fill-opacity:1;stroke:#000000;stroke-width:3.09892535;stroke-miterlimit:4;stroke-dasharray:none;stroke-opacity:1"
       id="path844-3-6"
       cx="1249.7751"
       cy="327.13165"
       r="15.801477" />
    <circle
       style="fill:none;fill-opacity:1;stroke:#000000;stroke-width:3.09892535;stroke-miterlimit:4;stroke-dasharray:none;stroke-opacity:1"
       id="path844-7"
       cx="1369.7751"
       cy="327.13165"
       r="52.727463" />
    <circle
       style="fill:none;fill-opacity:1;stroke:#000000;stroke-width:2.43176126;stroke-miterlimit:4;stroke-dasharray:none;stroke-opacity:1"
       id="path844-3-5"
       cx="1369.7751"
       cy="327.13165"
       r="41.438522" />
    <circle
       style="fill:none;fill-opacity:1;stroke:#000000;stroke-width:3.09892535;stroke-miterlimit:4;stroke-dasharray:none;stroke-opacity:1"
       id="path844-3-6-3"
       cx="1201.4838"
       cy="774.02313"
       r="0" />
    <circle
       style="fill:none;fill-opacity:1;stroke:#000000;stroke-width:3.09892535;stroke-miterlimit:4;stroke-dasharray:none;stroke-opacity:1"
       id="path844-5"
       cx="1489.7751"
       cy="327.13165"
       r="52.727463" />
    <circle
       style="fill:none;fill-opacity:1;stroke:#000000;stroke-width:2.43176126;stroke-miterlimit:4;stroke-dasharray:none;stroke-opacity:1"
       id="path844-3-62"
       cx="1489.7751"
       cy="327.13165"
       r="41.438522" />
    <circle
       style="fill:none;fill-opacity:1;stroke:#000000;stroke-width:3.09892535;stroke-miterlimit:4;stroke-dasharray:none;stroke-opacity:1"
       id="path844-3-6-9"
       cx="1489.7751"
       cy="327.13165"
       r="15.801477" />
    <ellipse
       style="fill:none;fill-opacity:1;stroke:#000000;stroke-width:3.09892535;stroke-miterlimit:4;stroke-dasharray:none;stroke-opacity:1"
       id="path844-5-1"
       cx="1609.7753"
       cy="327.13165"
       rx="52.727535"
       ry="52.727463" />
    <ellipse
       style="fill:none;fill-opacity:1;stroke:#000000;stroke-width:2.43176126;stroke-miterlimit:4;stroke-dasharray:none;stroke-opacity:1"
       id="path844-3-62-2"
       cx="1609.7753"
       cy="327.13165"
       rx="41.43858"
       ry="41.438522" />
    <ellipse
       style="fill:none;fill-opacity:1;stroke:#000000;stroke-width:3.09892535;stroke-miterlimit:4;stroke-dasharray:none;stroke-opacity:1"
       id="path844-3-6-9-7"
       cx="1609.7753"
       cy="327.13165"
       rx="15.801499"
       ry="15.801477" />
    <path
       style="fill:none;fill-opacity:1;stroke:#000000;stroke-width:1;stroke-miterlimit:4;stroke-dasharray:none;stroke-opacity:1"
       d="m 1077.6994,715.88671 3.7124,-0.0884 5.7644,0.0472 -5.7644,-0.0472 1.2816,-8.26429 3.0936,-0.0884 2.0329,10.07627 h -10.2972 z m 11.1972,0 3.7124,-0.0884 c 1.9215,0.0157 3.8429,0.0315 5.7644,0.0472 -1.9215,-0.0157 -3.8429,-0.0315 -5.7644,-0.0472 l 1.2816,-8.26429 3.0936,-0.0884 2.0329,10.07626 h -10.2972 z m 11.1972,0 3.7124,-0.0884 5.7644,0.0472 -5.7644,-0.0472 1.2816,-8.26429 3.0936,-0.0884 c 0.6776,3.35876 1.3553,6.71752 2.0329,10.07627 h -10.2972 c 0.059,-0.54506 0.1178,-1.09012 0.1767,-1.63518 z m 11.1972,0 c 1.2375,-0.0295 2.4749,-0.0589 3.7124,-0.0884 l 5.7644,0.0472 -5.7644,-0.0472 1.2816,-8.26429 c 1.0312,-0.0295 2.0624,-0.0589 3.0936,-0.0884 0.6776,3.35876 1.3553,6.71752 2.0329,10.07627 h -10.2972 c 0.059,-0.54506 0.1178,-1.09012 0.1767,-1.63518 z m 11.1972,0 3.7124,-0.0884 c 1.9215,0.0157 3.8429,0.0315 5.7644,0.0472 -1.9215,-0.0157 -3.8429,-0.0315 -5.7644,-0.0472 0.4272,-2.75476 0.8544,-5.50952 1.2816,-8.26429 l 3.0936,-0.0884 c 0.6776,3.35876 1.3553,6.71752 2.0329,10.07627 h -10.2972 z m 11.1972,0 3.7124,-0.0884 c 1.9215,0.0157 3.8429,0.0315 5.7644,0.0472 -1.9215,-0.0157 -3.8429,-0.0315 -5.7644,-0.0472 l 1.2816,-8.26429 3.0936,-0.0884 2.0329,10.07627 -10.2972,10e-6 z m 11.1972,0 c 1.2375,-0.0295 2.4749,-0.0589 3.7124,-0.0884 1.9215,0.0157 3.8429,0.0315 5.7644,0.0472 -1.9215,-0.0157 -3.8429,-0.0315 -5.7644,-0.0472 l 1.2816,-8.26429 c 1.0312,-0.0295 2.0624,-0.0589 3.0936,-0.0884 l 2.0329,10.07627 -10.2972,0 z m 11.1972,0 3.7124,-0.0884 c 1.9215,0.0157 3.8429,0.0315 5.7644,0.0472 -1.9215,-0.0157 -3.8429,-0.0315 -5.7644,-0.0472 l 1.2816,-8.26429 3.0936,-0.0884 2.0329,10.07627 -10.2972,10e-6 z m 11.1972,0 3.7124,-0.0884 c 1.9215,0.0157 3.8429,0.0315 5.7644,0.0472 -1.9215,-0.0157 -3.8429,-0.0315 -5.7644,-0.0472 l 1.2816,-8.26429 3.0936,-0.0884 c 0.6776,3.35876 1.3553,6.71752 2.0329,10.07627 h -10.2972 c 0.059,-0.54506 0.1178,-1.09012 0.1767,-1.63518 z m 11.1972,0 c 1.2375,-0.0295 2.4749,-0.0589 3.7124,-0.0884 1.9215,0.0157 3.8429,0.0315 5.7644,0.0472 -1.9215,-0.0157 -3.8429,-0.0315 -5.7644,-0.0472 0.4272,-2.75476 0.8544,-5.50952 1.2816,-8.26429 1.0312,-0.0295 2.0624,-0.0589 3.0936,-0.0884 l 2.0329,10.07627 h -10.2972 z m 11.1972,0 c 1.2375,-0.0295 2.4749,-0.0589 3.7124,-0.0884 l 5.7644,0.0472 -5.7644,-0.0472 c 0.4272,-2.75476 0.8544,-5.50952 1.2816,-8.26429 1.0312,-0.0295 2.0624,-0.0589 3.0936,-0.0884 0.6776,3.35876 1.3553,6.71752 2.0329,10.07627 h -10.2972 c 0.059,-0.54506 0.1178,-1.09012 0.1767,-1.63518 z m 11.1972,0 3.7124,-0.0884 c 1.9215,0.0157 3.8429,0.0315 5.7644,0.0472 -1.9215,-0.0157 -3.8429,-0.0315 -5.7644,-0.0472 l 1.2816,-8.26429 3.0936,-0.0884 c 0.6776,3.35876 1.3553,6.71752 2.0329,10.07627 h -10.2972 z m 11.1972,0 c 1.2375,-0.0295 2.4749,-0.0589 3.7124,-0.0884 1.9215,0.0157 3.8429,0.0315 5.7644,0.0472 -1.9215,-0.0157 -3.8429,-0.0315 -5.7644,-0.0472 0.4272,-2.75476 0.8544,-5.50952 1.2816,-8.26429 l 3.0936,-0.0884 c 0.6776,3.35876 1.3553,6.71752 2.0329,10.07627 h -10.2972 c 0.059,-0.54506 0.1178,-1.09012 0.1767,-1.63518 z m 11.1972,0 c 1.2375,-0.0295 2.4749,-0.0589 3.7124,-0.0884 l 5.7644,0.0472 -5.7644,-0.0472 1.2816,-8.26429 c 1.0312,-0.0295 2.0624,-0.0589 3.0936,-0.0884 0.6776,3.35876 1.3553,6.71752 2.0329,10.07627 h -10.2972 c 0.059,-0.54506 0.1178,-1.09012 0.1767,-1.63518 z m 11.1972,0 3.7124,-0.0884 c 1.9215,0.0157 3.8429,0.0315 5.7644,0.0472 -1.9215,-0.0157 -3.8429,-0.0315 -5.7644,-0.0472 0.4272,-2.75476 0.8544,-5.50952 1.2816,-8.26429 1.0312,-0.0295 2.0624,-0.0589 3.0936,-0.0884 l 2.0329,10.07627 h -10.2972 z m 11.1972,0 3.7124,-0.0884 5.7644,0.0472 -5.7644,-0.0472 1.2816,-8.26429 3.0936,-0.0884 2.0329,10.07627 h -10.2972 z m 11.1972,0 c 1.2375,-0.0295 2.4749,-0.0589 3.7124,-0.0884 l 5.7644,0.0472 -5.7644,-0.0472 1.2816,-8.26429 3.0936,-0.0884 2.0329,10.07627 h -10.2972 z m 11.1972,0 3.7124,-0.0884 5.7644,0.0472 -5.7644,-0.0472 1.2816,-8.26429 3.0936,-0.0884 2.0329,10.07627 h -10.2972 z m 11.1972,0 3.7124,-0.0884 5.7644,0.0472 -5.7644,-0.0472 1.2816,-8.26429 3.0936,-0.0884 2.0329,10.07627 h -10.2972 z m 11.1972,0 3.7124,-0.0884 5.7644,0.0472 -5.7644,-0.0472 1.2816,-8.26429 3.0936,-0.0884 2.0329,10.07627 h -10.2972 z m 11.1972,0 3.7124,-0.0884 5.7644,0.0472 -5.7644,-0.0472 1.2816,-8.26429 3.0936,-0.0884 2.0329,10.07627 h -10.2972 z m 11.1972,0 3.7124,-0.0884 5.7644,0.0472 -5.7644,-0.0472 1.2816,-8.26429 3.0936,-0.0884 2.0329,10.07627 h -10.2972 z m 11.1972,0 3.7124,-0.0884 5.7644,0.0472 -5.7644,-0.0472 1.2816,-8.26429 3.0936,-0.0884 2.0329,10.07627 h -10.2972 z m 11.1972,0 3.7124,-0.0884 5.7644,0.0472 -5.7644,-0.0472 1.2816,-8.26429 3.0936,-0.0884 2.0329,10.07627 h -10.2972 z m 11.1972,0 3.7124,-0.0884 5.7644,0.0472 -5.7644,-0.0472 1.2816,-8.26429 3.0936,-0.0884 2.0329,10.07627 h -10.2972 z m 11.1972,0 3.7124,-0.0884 5.7644,0.0472 -5.7644,-0.0472 1.2816,-8.26429 3.0936,-0.0884 2.0329,10.07627 h -10.2972 z m 11.1972,0 3.7124,-0.0884 5.7644,0.0472 -5.7644,-0.0472 1.2816,-8.26429 3.0936,-0.0884 2.0329,10.07627 h -10.2972 z m 11.1972,0 3.7124,-0.0884 c 1.9215,0.0157 3.8429,0.0315 5.7644,0.0472 -1.9215,-0.0157 -3.8429,-0.0315 -5.7644,-0.0472 0.4272,-2.75476 0.8544,-5.50952 1.2816,-8.26429 l 3.0936,-0.0884 2.0329,10.07627 h -10.2972 z m 11.1972,0 3.7124,-0.0884 5.7644,0.0472 -5.7644,-0.0472 1.2816,-8.26429 3.0936,-0.0884 2.0329,10.07627 h -10.2972 z m 11.1972,0 3.7124,-0.0884 5.7644,0.0472 -5.7644,-0.0472 1.2816,-8.26429 3.0936,-0.0884 2.0329,10.07627 h -10.2972 z m 11.1972,0 3.7124,-0.0884 5.7644,0.0472 -5.7644,-0.0472 1.2816,-8.26429 3.0936,-0.0884 2.0329,10.07627 h -10.2972 z m 11.1972,0 3.7124,-0.0884 5.7644,0.0472 -5.7644,-0.0472 1.2816,-8.26429 3.0936,-0.0884 2.0329,10.07627 h -10.2972 z m 11.1972,0 3.7124,-0.0884 5.4961,0.045 c 0.091,7.4e-4 0.1811,0.002 0.2716,0.003 -0.091,-0.001 -0.1811,-0.002 -0.2716,-0.003 l -5.4961,-0.045 1.2816,-8.26429 3.0936,-0.0884 1.1209,5.55586 c 0.3245,1.50698 0.6223,3.01658 0.8936,4.52817 -0.2978,-0.005 -0.5957,-0.008 -0.8936,-0.008 h -9.3852 z m 11.2193,0.0388 c 1.2516,0.0186 2.5032,0.0817 3.752,0.18838 1.9325,0.22681 3.8518,0.55812 5.7477,0.98967 -1.8959,-0.43155 -3.8152,-0.76286 -5.7477,-0.98967 0.7291,-2.6908 1.5235,-5.36937 2.3823,-8.03358 1.1967,0.12954 2.3895,0.29342 3.5768,0.49115 0.1414,3.44729 0.156,6.88584 0.046,10.3088 -3.2809,-0.76016 -6.6312,-1.21024 -9.9925,-1.32748 0.077,-0.5426 0.1553,-1.08502 0.2357,-1.62727 z m 11.184,1.61741 c 1.2205,0.27767 2.4327,0.59702 3.6338,0.95717 1.8458,0.61773 3.6587,1.33186 5.4284,2.13816 -1.7697,-0.8063 -3.5826,-1.52043 -5.4284,-2.13816 1.265,-2.48669 2.5896,-4.94887 3.9726,-7.38437 1.1411,0.36984 2.2725,0.77211 3.3924,1.20634 -0.5622,3.40607 -1.2443,6.77791 -2.044,10.10865 -3.0611,-1.40758 -6.255,-2.52985 -9.5233,-3.34404 0.1878,-0.51509 0.3773,-1.02968 0.5685,-1.54375 z m 10.623,3.86618 c 1.1393,0.51853 2.2618,1.07592 3.3648,1.67129 1.6821,0.97786 3.3115,2.04405 4.878,3.19432 -1.5665,-1.15027 -3.1959,-2.21646 -4.878,-3.19432 1.7407,-2.17848 3.535,-4.32013 5.3818,-6.42282 1.0436,0.59516 2.0715,1.22084 3.0821,1.87657 -1.2404,3.21911 -2.5936,6.37848 -4.0573,9.47127 -2.7032,-2.00118 -5.6026,-3.7418 -8.64,-5.19909 0.288,-0.46659 0.5776,-0.93233 0.8686,-1.39722 z m 9.6117,5.93931 c 1.0077,0.74117 1.9903,1.51837 2.945,2.33073 0.7282,0.66049 1.438,1.34147 2.1279,2.04238 m -0.4676,0.46782 0,0 0,3e-5 0,0 m 0.467,-0.46724 c 0.6517,0.6625 1.2849,1.34211 1.8994,2.03771 -0.6145,-0.6956 -1.2477,-1.37521 -1.8994,-2.03771 z m -0.467,0.46724 0,0 0,-3e-5 m 0.4676,-0.46782 c -0.6899,-0.70091 -1.3997,-1.38189 -2.1279,-2.04238 2.156,-1.76614 4.3596,-3.48315 6.6098,-5.14889 0.4766,0.42464 0.9472,0.85723 1.4117,1.29771 m -6.3587,6.36138 0,0 0,3e-5 0,0 m 6.3607,-6.36337 c 0.3864,0.36971 0.7678,0.74425 1.1441,1.12351 -1.8894,2.88911 -3.8813,5.6906 -5.9691,8.40143 -0.7305,-0.83387 -1.4882,-1.64373 -2.2725,-2.4275 m 0.7338,-0.73407 v 0 -3e-5 0 m -0.7338,0.73407 c -1.5699,-1.57088 -3.2446,-3.03551 -5.0071,-4.38732 0.3773,-0.39708 0.756,-0.79297 1.1361,-1.18768 m 8.0813,7.75195 c 0.827,0.93884 1.6212,1.90765 2.3813,2.90377 1.1305,1.58284 2.175,3.22616 3.1297,4.91964 -0.9547,-1.69348 -1.9992,-3.3368 -3.1297,-4.91964 2.4816,-1.26828 4.9982,-2.48006 7.5474,-3.6346 0.7084,0.97264 1.3887,1.96548 2.0403,2.977 -2.4567,2.42121 -4.9924,4.74277 -7.6005,6.96163 -1.6422,-2.93977 -3.5602,-5.72228 -5.7313,-8.28915 0.4532,-0.30769 0.9075,-0.61391 1.3628,-0.91865 z m 6.3178,9.36556 c 0.6147,1.09014 1.1931,2.20216 1.7337,3.3334 0.7834,1.78173 1.4734,3.60392 2.066,5.45624 -0.5926,-1.85232 -1.2826,-3.67451 -2.066,-5.45624 2.6913,-0.7349 5.4045,-1.40933 8.1373,-2.02256 0.4934,1.09334 0.9563,2.20128 1.3878,3.3223 -2.8997,1.87337 -5.8546,3.63505 -8.8584,5.28198 -1.0155,-3.21272 -2.3315,-6.33168 -3.9254,-9.29849 0.5076,-0.20714 1.0159,-0.41268 1.525,-0.61663 z m 4.2783,10.46356 c 0.382,1.19214 0.7239,2.39805 1.0245,3.61508 0.4068,1.90307 0.7126,3.82659 0.9138,5.7602 -0.2012,-1.93361 -0.507,-3.85713 -0.9138,-5.7602 2.7835,-0.17549 5.5758,-0.28655 8.3746,-0.33245 0.2611,1.17302 0.489,2.35505 0.6831,3.54454 -3.218,1.24559 -6.4677,2.36744 -9.7427,3.36251 -0.335,-3.3476 -0.9952,-6.66494 -1.958,-9.89361 0.5391,-0.10039 1.0786,-0.19908 1.6185,-0.29607 z m 2.0634,11.11113 c 0.1285,1.24481 0.2134,2.4953 0.2534,3.7488 0,0.14482 -5e-4,0.28965 -0,0.43447 m -0.6817,0 0,0 0,3e-5 m 0.6809,0 -0.043,5.2356 z m -0.6809,0 0,0 0,-3e-5 0,0 m 0.6817,0 c 0,-0.14482 0,-0.28965 0,-0.43447 0.9228,0.13716 1.8452,0.28197 2.7669,0.43447 m -3.4495,0 0,0 2e-4,3e-5 m 4.0942,0 4.8543,0.7528 0.088,3.0936 -10.0762,2.0329 v -5.8793 m 1.0378,0 v -3e-5 0 m -1.0378,0 c 2e-4,-1.41032 -0.059,-2.82052 -0.1753,-4.2263 0.5478,0.0125 1.0957,0.0269 1.6436,0.043 m 0.1644,11.04498 c 0.017,1.25188 -0.01,2.50495 -0.082,3.75641 -0.1722,1.93824 -0.45,3.86589 -0.8291,5.7728 0.3791,-1.90691 0.6569,-3.83456 0.8291,-5.7728 2.7102,0.65279 5.4098,1.37176 8.0967,2.15594 -0.096,1.201 -0.2271,2.39884 -0.3921,3.59189 -3.4418,0.23744 -6.8782,0.347 -10.3024,0.33082 0.6695,-3.29986 1.0257,-6.66058 1.0457,-10.02377 0.5447,0.061 1.0892,0.12395 1.6336,0.18871 z m -1.3035,11.22485 c -0.2441,1.22758 -0.5302,2.44794 -0.8576,3.65828 -0.5672,1.86189 -1.232,3.69342 -1.99,5.48444 0.758,-1.79102 1.4228,-3.62255 1.99,-5.48444 2.52,1.19692 5.0171,2.45409 7.4892,3.77054 -0.3385,1.151 -0.7098,2.29298 -1.1133,3.42431 -3.42,-0.46961 -6.8092,-1.06002 -10.1607,-1.76906 1.3241,-3.09846 2.3597,-6.32127 3.0838,-9.61004 0.52,0.17361 1.0395,0.34894 1.5586,0.52597 z m -3.5758,10.72409 c -0.4874,1.15303 -1.014,2.29044 -1.579,3.40942 -0.9315,1.70849 -1.9524,3.36685 -3.0585,4.96493 1.1061,-1.59808 2.127,-3.25644 3.0585,-4.96493 2.2257,1.68065 4.4162,3.41563 6.5694,5.20396 -0.5659,1.05905 -1.1626,2.10322 -1.7895,3.13089 -3.2526,-1.15124 -6.4488,-2.41619 -9.5818,-3.79268 1.9249,-2.75897 3.586,-5.70579 4.9605,-8.78206 0.4743,0.27527 0.9477,0.55209 1.4204,0.83047 z m -5.6724,9.77288 c -0.7124,1.02824 -1.4613,2.03245 -2.2457,3.00983 -0.9676,1.13053 -1.9827,2.22016 -3.0435,3.26435 -0.3263,0.32086 -0.6566,0.63726 -0.991,0.94916 0.3344,-0.3119 0.6647,-0.6283 0.991,-0.94916 1.0608,-1.04419 2.0759,-2.13382 3.0435,-3.26435 1.8273,2.10399 3.6071,4.25638 5.3372,6.45618 -0.7782,0.92516 -1.5853,1.82958 -2.4208,2.71164 -0.049,-0.0301 -0.098,-0.0603 -0.1469,-0.0905 -2.89,-1.7832 -5.6967,-3.66821 -8.4172,-5.64885 0.4791,-0.44317 0.9495,-0.89567 1.4109,-1.35736 1.9165,-1.91538 3.6749,-3.98663 5.2632,-6.18317 0.4076,0.366 0.814,0.7334 1.2193,1.10221 z m -7.5906,8.36896 c -0.9165,0.85201 -1.864,1.67166 -2.8398,2.4577 -1.5526,1.17177 -3.1682,2.2584 -4.8364,3.25617 1.6682,-0.99777 3.2838,-2.0844 4.8364,-3.25617 1.3329,2.44722 2.6099,4.93101 3.8302,7.44913 -0.9547,0.73395 -1.9304,1.4402 -2.9253,2.11802 -2.484,-2.39279 -4.8698,-4.86741 -7.1544,-7.41737 2.8961,-1.71663 5.6269,-3.70597 8.1342,-5.94525 0.3198,0.44477 0.6382,0.8907 0.9551,1.33777 z m -9.197,6.55979 c -1.074,0.64235 -2.1709,1.24874 -3.2879,1.8179 -1.7612,0.82832 -3.5653,1.56408 -5.402,2.20353 1.8367,-0.63945 3.6408,-1.37521 5.402,-2.20353 0.8028,2.67157 1.5457,5.36664 2.2279,8.08297 -1.0806,0.52116 -2.1764,1.01206 -3.286,1.47196 -1.9461,-2.85117 -3.7819,-5.76061 -5.5046,-8.72182 3.1862,-1.09662 6.2708,-2.4907 9.1952,-4.15948 0.2201,0.50202 0.4385,1.00485 0.6554,1.50847 z m -10.3512,4.54231 c -1.1822,0.41211 -2.379,0.78464 -3.5881,1.11634 -1.8921,0.45536 -3.8072,0.81073 -5.735,1.06236 1.9278,-0.25163 3.8429,-0.607 5.735,-1.06236 0.2467,2.77839 0.4295,5.56721 0.5476,8.36424 -1.1654,0.291 -2.3404,0.54919 -3.5236,0.77381 -1.3282,-3.18506 -2.5343,-6.40483 -3.615,-9.6528 3.3383,-0.42276 6.6384,-1.16774 9.842,-2.21219 0.114,0.53642 0.2264,1.07329 0.3371,1.6106 z m -11.055,2.34922 c -1.2409,0.16126 -2.4885,0.27934 -3.7402,0.35298 -0.6161,0.0168 -1.2326,0.0227 -1.849,0.0178 l -3.9389,-0.0322 3.9389,0.0322 c 0.6164,0.005 1.2329,-0.001 1.849,-0.0178 -0.3355,2.7677 -0.7389,5.53275 -1.2109,8.29294 -0.2126,0.008 -0.4253,0.0142 -0.6381,0.0197 l -2.5497,0.0729 -2.0329,-10.07627 h 4.5826 c 1.8665,3.4e-4 3.7328,-0.10307 5.5889,-0.30634 0,0.54797 0,1.09603 3e-4,1.64418 z m -11.2485,0.29735 -3.7124,0.0884 -5.7644,-0.0472 5.7644,0.0472 -1.2816,8.26428 -3.0936,0.0884 -2.0329,-10.07627 h 10.2972 z m -11.1972,0 -3.7124,0.0884 -5.7644,-0.0472 5.7644,0.0472 -1.2816,8.26429 -3.0936,0.0884 -2.0329,-10.07627 h 10.2972 z m -11.1972,0 -3.7124,0.0884 -5.7644,-0.0472 5.7644,0.0472 -1.2816,8.26428 -3.0936,0.0884 -2.0329,-10.07627 h 10.2972 z m -11.1972,0 -3.7124,0.0884 -5.7644,-0.0472 5.7644,0.0472 -1.2816,8.26428 -3.0936,0.0884 -2.0329,-10.07627 h 10.2972 z m -11.1972,0 c -1.2375,0.0295 -2.4749,0.0589 -3.7124,0.0884 l -5.7644,-0.0472 5.7644,0.0472 -1.2816,8.26428 -3.0936,0.0884 -2.0329,-10.07628 h 10.2972 z m -11.1972,-1e-5 -3.7124,0.0884 -5.7644,-0.0472 5.7644,0.0472 -1.2816,8.26429 -3.0936,0.0884 -2.0329,-10.07627 10.2972,0 z m -11.1972,1e-5 -3.7124,0.0884 -5.7644,-0.0472 5.7644,0.0472 -1.2816,8.26428 -3.0936,0.0884 -2.0329,-10.07627 10.2972,1e-5 z m -11.1972,0 -3.7124,0.0884 -5.7644,-0.0472 5.7644,0.0472 -1.2816,8.26428 -3.0936,0.0884 -2.0329,-10.07626 10.2972,-1e-5 z m -11.1972,0 -3.7124,0.0884 -5.7644,-0.0472 5.7644,0.0472 -1.2816,8.26428 -3.0936,0.0884 -2.0329,-10.07628 h 10.2972 z m -11.1972,-1e-5 -3.7124,0.0884 -5.7644,-0.0472 5.7644,0.0472 -1.2816,8.26429 -3.0936,0.0884 -2.0329,-10.07627 h 10.2972 z m -11.1972,1e-5 -3.7124,0.0884 c -1.9215,-0.0157 -3.8429,-0.0315 -5.7644,-0.0472 1.9215,0.0157 3.8429,0.0315 5.7644,0.0472 l -1.2816,8.26428 -3.0936,0.0884 c -0.6776,-3.35875 -1.3553,-6.71751 -2.0329,-10.07626 l 10.2972,-1e-5 z m -11.1972,0 -3.7124,0.0884 -5.7644,-0.0472 5.7644,0.0472 -1.2816,8.26428 -3.0936,0.0884 -2.0329,-10.07626 10.2972,-1e-5 z m -11.1972,0 -3.7124,0.0884 -5.7644,-0.0472 5.7644,0.0472 -1.2816,8.26428 -3.0936,0.0884 -2.0329,-10.07627 10.2972,0 z m -11.1972,0 -3.7124,0.0884 -5.7644,-0.0472 5.7644,0.0472 -1.2816,8.26428 -3.0936,0.0884 -2.0329,-10.07627 h 10.2972 z m -11.1972,0 -3.7124,0.0884 -5.7644,-0.0472 5.7644,0.0472 -1.2816,8.26428 -3.0936,0.0884 -2.0329,-10.07627 h 10.2972 z m -11.1972,0 -3.7124,0.0884 -5.7644,-0.0472 5.7644,0.0472 -1.2816,8.26428 -3.0936,0.0884 -2.0329,-10.07627 h 10.2972 z m -11.1972,0 -3.7124,0.0884 -5.7644,-0.0472 5.7644,0.0472 -1.2816,8.26428 -3.0936,0.0884 -2.0329,-10.07627 h 10.2972 z m -11.1972,0 -3.7124,0.0884 -5.7644,-0.0472 5.7644,0.0472 -1.2816,8.26428 -3.0936,0.0884 -2.0329,-10.07627 h 10.2972 z m -11.1972,0 -3.7124,0.0884 -5.7644,-0.0472 5.7644,0.0472 -1.2816,8.26428 -3.0936,0.0884 -2.0329,-10.07627 h 10.2972 z m -11.1972,0 -3.7124,0.0884 -5.7644,-0.0472 5.7644,0.0472 -1.2816,8.26428 -3.0936,0.0884 -2.0329,-10.07627 h 10.2972 z m -11.1972,0 -3.7124,0.0884 -5.7644,-0.0472 5.7644,0.0472 -1.2816,8.26428 -3.0936,0.0884 -2.0329,-10.07627 h 10.2972 z m -11.1972,0 -3.7124,0.0884 -5.7644,-0.0472 5.7644,0.0472 -1.2816,8.26428 -3.0936,0.0884 -2.0329,-10.07627 h 10.2972 z m -11.1972,0 c -1.2375,0.0295 -2.4749,0.0589 -3.7124,0.0884 l -5.7644,-0.0472 5.7644,0.0472 -1.2816,8.26428 -3.0936,0.0884 -2.0329,-10.07627 h 10.2972 z m -11.1972,0 -3.7124,0.0884 -5.7644,-0.0472 5.7644,0.0472 -1.2816,8.26428 -3.0936,0.0884 -2.0329,-10.07627 h 10.2972 z m -11.1972,0 -3.7124,0.0884 -5.7644,-0.0472 5.7644,0.0472 -1.2816,8.26428 -3.0936,0.0884 -2.0329,-10.07627 h 10.2972 z m -11.1972,0 -3.7124,0.0884 -5.7644,-0.0472 5.7644,0.0472 -1.2816,8.26428 -3.0936,0.0884 -2.0329,-10.07627 h 10.2972 z m -11.1972,0 c -1.2375,0.0295 -2.4749,0.0589 -3.7124,0.0884 l -5.7644,-0.0472 5.7644,0.0472 -1.2816,8.26428 -3.0936,0.0884 -2.0329,-10.07627 h 10.2972 z m -11.1972,0 -3.7124,0.0884 -5.7644,-0.0472 5.7644,0.0472 -1.2816,8.26428 -3.0936,0.0884 -2.0329,-10.07627 h 10.2972 z m -11.1972,0 -3.7124,0.0884 -5.7644,-0.0472 5.7644,0.0472 -1.2816,8.26428 -3.0936,0.0884 -2.0329,-10.07627 h 10.2972 z m -11.1972,0 -3.7124,0.0884 -5.7644,-0.0472 5.7644,0.0472 -1.2816,8.26428 -3.0936,0.0884 -2.0329,-10.07627 h 10.2972 z m -11.1972,0 -3.7124,0.0884 -5.7644,-0.0472 5.7644,0.0472 -1.2816,8.26428 -3.0936,0.0884 -2.0329,-10.07627 h 10.2972 z m -11.1972,0 -3.7124,0.0884 -5.7644,-0.0472 5.7644,0.0472 -1.2816,8.26428 -3.0936,0.0884 -2.0329,-10.07627 h 10.2972 z m -11.1972,0 -3.7124,0.0884 -0.014,-1.2e-4 c -1.9424,-0.0159 -3.8817,-0.13993 -5.8078,-0.36783 1.9261,0.2279 3.8654,0.35192 5.8078,0.36783 l 0.014,1.2e-4 -0.014,0.087 c -0.429,2.72569 -0.925,5.44553 -1.4871,8.15746 -1.2089,-0.001 -2.4169,-0.0376 -3.6224,-0.10881 -0.5103,-3.41216 -0.8902,-6.82858 -1.1416,-10.24242 2.0741,0.25398 4.1625,0.38351 6.2511,0.38313 h 3.9026 z m -11.2546,-0.5387 c -1.2426,-0.14772 -2.4812,-0.33856 -3.713,-0.57165 -1.8997,-0.42206 -3.7764,-0.94466 -5.6202,-1.56355 1.8438,0.61889 3.7205,1.14149 5.6202,1.56355 -0.999,2.60388 -2.0605,5.1895 -3.1836,7.75473 -1.1747,-0.24907 -2.3427,-0.53155 -3.5022,-0.84696 0.2063,-3.44532 0.536,-6.86941 0.987,-10.26543 3.1906,1.0839 6.4815,1.86984 9.8146,2.33507 -0.1325,0.53175 -0.2668,1.06317 -0.4028,1.59424 z m -10.9656,-2.74046 c -1.187,-0.39788 -2.3616,-0.83606 -3.5209,-1.31366 -1.7753,-0.79791 -3.5079,-1.68828 -5.1877,-2.66684 1.6798,0.97856 3.4124,1.86893 5.1877,2.66684 -1.5055,2.34879 -3.0676,4.66703 -4.6852,6.95258 -1.0987,-0.48204 -2.1846,-0.99558 -3.2562,-1.54014 0.8974,-3.33273 1.9113,-6.61875 3.0393,-9.85119 2.9031,1.70497 5.9701,3.13674 9.1426,4.27254 -0.2383,0.49397 -0.4781,0.98726 -0.7196,1.47987 z m -10.1841,-4.90322 c -1.0811,-0.62983 -2.1414,-1.29712 -3.178,-2.00101 -1.5739,-1.14299 -3.0854,-2.37034 -4.5242,-3.67781 1.4388,1.30747 2.9503,2.53482 4.5242,3.67781 -1.9517,1.98958 -3.9539,3.93632 -6.0058,5.83807 -0.9805,-0.70001 -1.9425,-1.42962 -2.8843,-2.18834 1.5632,-3.07441 3.2357,-6.0766 5.0154,-8.99972 2.4775,2.2722 5.1824,4.29596 8.0564,6.04851 -0.3331,0.43518 -0.6677,0.86934 -1.0037,1.30249 z m -8.9521,-6.89037 c -0.2846,-0.25953 -0.5664,-0.52234 -0.8454,-0.7884 m 0.4412,-0.44141 c 0,0 0,0 0,0 -10e-5,-10e-6 -10e-5,-3e-5 0,-4e-5 m -0.4429,0.44309 c -0.6032,-0.57565 -1.1924,-1.16601 -1.7675,-1.77029 -1.2963,-1.45145 -2.5103,-2.9736 -3.6384,-4.55612 1.1281,1.58252 2.3421,3.10467 3.6384,4.55612 -2.3293,1.53047 -4.7002,3.00646 -7.1105,4.42723 -0.8113,-0.89523 -1.596,-1.81351 -2.3532,-2.75334 2.1827,-2.66999 4.4564,-5.24649 6.8146,-7.72641 1.6738,2.36868 3.5433,4.59637 5.5938,6.64565 m -0.7338,0.73407 c 2e-4,1e-5 2e-4,3e-5 0,4e-5 0,0 0,0 0,0 m 0.7338,-0.73407 c 0.3044,0.3046 0.6128,0.60522 0.9249,0.90179 -0.417,0.35538 -0.8353,0.70942 -1.255,1.06209 m -7.2175,-8.56114 c -0.7256,-1.01908 -1.4167,-2.06418 -2.0719,-3.13262 -0.9643,-1.68991 -1.8389,-3.4305 -2.62,-5.21144 0.7811,1.78094 1.6557,3.52153 2.62,5.21144 -2.599,1.01037 -5.2265,1.9623 -7.8804,2.85504 -0.6052,-1.03686 -1.1812,-2.09119 -1.7272,-3.16145 2.6891,-2.16295 5.4456,-4.22037 8.263,-6.16917 1.3421,3.09067 2.9721,6.05517 4.8673,8.83511 -0.4827,0.25923 -0.9663,0.51693 -1.4508,0.77309 z m -5.3411,-9.95946 c -0.5034,-1.14625 -0.9685,-2.3104 -1.3942,-3.48981 -0.6027,-1.85083 -1.1083,-3.73233 -1.5129,-5.63414 0.4046,1.90181 0.9102,3.78331 1.5129,5.63414 -2.7511,0.46424 -5.5177,0.86608 -8.2976,1.20478 -0.3818,-1.13749 -0.7318,-2.28683 -1.0492,-3.44651 3.0711,-1.57597 6.1859,-3.03435 9.3381,-4.37209 0.689,3.29602 1.6906,6.52936 2.9822,9.64164 -0.5258,0.15564 -1.0523,0.30964 -1.5793,0.46199 z m -3.2158,-10.83692 c -0.2604,-1.22409 -0.479,-2.45799 -0.6546,-3.69904 -0.2116,-1.93421 -0.3187,-3.87905 -0.3174,-5.8242 -0,1.94515 0.1058,3.88999 0.3174,5.8242 -2.7858,-0.10791 -5.5739,-0.28219 -8.3622,-0.52357 -0.141,-1.19708 -0.2476,-2.40042 -0.3191,-3.60848 2.8951,-0.79068 5.8054,-1.48328 8.7268,-2.07581 m 0.2738,0 2e-4,-5e-5 0,0 m 0.2217,0 0.8163,-0.16471 v 0.16471 m -1.0376,0 v 0 5e-5 m 1.0376,0 c -6e-4,3.27683 0.3186,6.55302 0.9365,9.77455 -0.5462,0.0459 -1.0927,0.09 -1.6394,0.13235 m -0.9322,-11.14836 -0.088,-3.7124 0.011,-1.41005 m 0.6736,0 0,0 0,-5e-5 m -0.6728,0 c 0.012,-1.43663 0.083,-2.87153 0.2111,-4.30064 -0.1284,1.42911 -0.1993,2.86401 -0.2111,4.30064 z m 0.6728,0 0,5e-5 0,0 m -0.6736,0 -0.011,1.41005 -8.2643,-1.2816 -0,-0.12845 m 8.9489,0 0,-5e-5 0,0 m -8.9518,0 c -0.026,-1.12094 -0.021,-2.24163 0.014,-3.36078 3.3967,-0.60808 6.8011,-1.08467 10.2063,-1.4319 -0.1497,1.59321 -0.2257,3.19287 -0.2254,4.79268 m -1.0376,0 v 5e-5 0 m 1.0376,0 v 5.29915 l -1.6351,-0.1767 m 0.3457,-11.15068 c 0.1129,-1.24626 0.2693,-2.48959 0.4683,-3.72719 0.3695,-1.91048 0.8406,-3.80069 1.4091,-5.66049 -0.5685,1.8598 -1.0396,3.75001 -1.4091,5.66049 -2.6301,-0.92677 -5.2435,-1.91681 -7.8383,-2.96917 0.2168,-1.18175 0.4673,-2.35748 0.7509,-3.52555 3.4494,0.11194 6.8809,0.34829 10.2877,0.70691 -0.9968,3.21849 -1.6923,6.52894 -2.0639,9.87295 -0.5352,-0.11753 -1.0701,-0.23685 -1.6047,-0.35795 z m 2.4381,-11.03593 c 0.3655,-1.19735 0.7717,-2.38337 1.2176,-3.55526 0.7495,-1.7964 1.5925,-3.55276 2.5248,-5.25894 -0.9323,1.70618 -1.7753,3.46254 -2.5248,5.25894 -2.3889,-1.44132 -4.7489,-2.93999 -7.0778,-4.49505 0.4517,-1.11121 0.9352,-2.21054 1.45,-3.29635 3.3563,0.80654 6.6692,1.73041 9.9319,2.76945 -1.625,2.94948 -2.9736,6.0544 -4.0229,9.25637 -0.5003,-0.22475 -0.9999,-0.45114 -1.4988,-0.67916 z m 4.6243,-10.3146 c 0.5999,-1.09821 1.2376,-2.17667 1.9123,-3.23259 1.0987,-1.60528 2.2828,-3.15074 3.5481,-4.62625 -1.2653,1.47551 -2.4494,3.02097 -3.5481,4.62625 -2.0436,-1.89549 -4.046,-3.84239 -6.0051,-5.83975 0.6717,-0.99872 1.3733,-1.97971 2.1043,-2.94132 3.1174,1.47573 6.166,3.06169 9.1389,4.75572 -2.1995,2.54238 -4.1473,5.3037 -5.8205,8.22556 -0.4443,-0.32106 -0.8876,-0.6436 -1.3299,-0.96762 z m 6.635,-9.14283 c 0.58,-0.67443 1.1778,-1.33465 1.7929,-1.97964 0.2503,-0.2623 0.5035,-0.52197 0.7593,-0.77899 1.4163,-1.33568 2.9057,-2.59003 4.458,-3.75929 -1.5523,1.16926 -3.0417,2.42361 -4.458,3.75929 -1.5935,-2.28743 -3.1331,-4.6181 -4.6179,-6.98977 0.8747,-0.83586 1.7732,-1.64534 2.6938,-2.42768 2.7277,2.11086 5.3633,4.3156 7.9039,6.6077 -1.9579,1.46209 -3.8115,3.06147 -5.5384,4.78942 -0.6503,0.64988 -1.2824,1.31771 -1.8958,2.00228 -0.3672,-0.40645 -0.7332,-0.81422 -1.0978,-1.22332 z m 8.4324,-7.51996 c 0.9998,-0.75193 2.0266,-1.46973 3.0777,-2.15216 1.6644,-1.00729 3.382,-1.9258 5.1424,-2.75181 -1.7604,0.82601 -3.478,1.74452 -5.1424,2.75181 -1.0766,-2.57176 -2.0954,-5.17368 -3.0554,-7.80355 1.0215,-0.63192 2.0611,-1.2349 3.1173,-1.80819 2.2306,2.63279 4.3571,5.33588 6.3765,8.10277 -3.0554,1.41977 -5.9767,3.12437 -8.7055,5.09105 -0.2717,-0.47566 -0.5419,-0.95231 -0.8106,-1.42992 z m 9.8185,-5.5939 c 1.133,-0.53218 2.285,-1.02664 3.4533,-1.4821 1.835,-0.64939 3.7031,-1.20258 5.5941,-1.65582 -1.891,0.45324 -3.7591,1.00643 -5.5941,1.65582 -0.5338,-2.73857 -1.0057,-5.49423 -1.4149,-8.26476 1.1272,-0.41063 2.2669,-0.78975 3.4177,-1.13662 1.6535,3.03022 3.191,6.10717 4.6093,9.22435 -3.2779,0.77339 -6.4853,1.85637 -9.5636,3.22617 -0.169,-0.52172 -0.3362,-1.04407 -0.5018,-1.56704 z m 10.752,-3.49041 c 1.2171,-0.29186 2.445,-0.54237 3.681,-0.75028 1.9281,-0.26198 3.8693,-0.42033 5.8132,-0.47131 -1.9439,0.051 -3.8851,0.20933 -5.8132,0.47131 0.035,-2.78785 0.1362,-5.57972 0.3038,-8.37339 1.1919,-0.17197 2.3907,-0.30988 3.595,-0.41297 0.9966,3.30315 1.865,6.62947 2.6023,9.97245 -3.3624,0.0732 -6.7178,0.48069 -10.0076,1.19979 -0.06,-0.54492 -0.1181,-1.09013 -0.1745,-1.6356 z"
       id="rect928"
       inkscape:path-effect="#path-effect4696"
       inkscape:original-d="m 1077.5227,716.48376 h 367.6956 c 14.0778,0 28.0801,5.75107 38.0346,15.70555 v 3e-5 c 9.9544,9.95447 15.7055,23.95676 15.7055,38.03451 v 3e-5 6.36396 2e-5 c 0,14.07777 -5.7511,28.08007 -15.7055,38.03455 -9.9545,9.95449 -23.9568,15.70555 -38.0346,15.70555 h -367.6956 c -14.0777,0 -28.08,-5.75105 -38.0345,-15.70551 0,-10e-6 0,-3e-5 0,-4e-5 -9.9545,-9.95449 -15.7056,-23.9568 -15.7056,-38.03457 v -5e-5 -6.36386 -5e-5 c 0,-14.07777 5.7511,-28.08008 15.7056,-38.03457 9.9544,-9.95448 23.9567,-15.70555 38.0345,-15.70555 z"
       inkscape:connector-curvature="0"
       transform="translate(168.29141,-446.89149)" />
    <path
       style="fill:none;fill-opacity:1;stroke:#000000;stroke-width:1;stroke-miterlimit:4;stroke-dasharray:none;stroke-opacity:1"
       d="m 428.29523,1037.8042 h 9.8733 v 8.2288 h -9.8733 z"
       id="rect4637"
       inkscape:connector-curvature="0" />
    <circle
       style="fill:none;fill-opacity:1;stroke:#000000;stroke-width:0.5;stroke-miterlimit:4;stroke-dasharray:none;stroke-opacity:1"
       id="path4681"
       cx="434.10635"
       cy="1054.0452"
       r="1.7014757" />
    <path
       style="fill:none;stroke:#000000;stroke-width:1px;stroke-linecap:butt;stroke-linejoin:miter;stroke-opacity:1"
       d="m 406.99323,1050.6644 3.7124,-0.088 5.7644,0.047 -5.7644,-0.047 1.2816,-8.2643 3.0936,-0.088 2.0329,10.0763 h -10.2972 z"
       id="path4731"
       inkscape:connector-curvature="0"
       sodipodi:nodetypes="ccccccccc" />
    <circle
       style="fill:none;fill-opacity:1;stroke:#000000;stroke-width:3.09892535;stroke-miterlimit:4;stroke-dasharray:none;stroke-opacity:1"
       id="path844-3-6-9-3"
       cx="1369.7751"
       cy="327.13165"
       r="15.801477" />
    <path
       style="fill:none;stroke:#000000;stroke-width:1px;stroke-linecap:butt;stroke-linejoin:miter;stroke-opacity:1"
       d="m 1197.5496,350.79143 -39.5513,-15.38288 21,-84 97.5,-24 255,23 118,5 41,40 0.9404,31.97234 -6.4404,21.02766 z"
       id="path872"
       inkscape:connector-curvature="0"
       sodipodi:nodetypes="cccccccccc" />
    <rect
       style="fill:none;fill-opacity:1;stroke:#000000;stroke-opacity:1"
       id="rect878"
       width="71.5"
       height="23"
       x="1717.5963"
       y="200.30804" />
    <g
       id="g4243"
       transform="matrix(0.99998518,0,0,1.0000002,-0.50516658,-0.39972761)">
      <path
         sodipodi:nodetypes="ccccc"
         inkscape:connector-curvature="0"
         id="path876-5"
         d="m 847.37863,659.77234 11.37269,0.42701 -0.0202,0.62795 -11.31849,0.19664 z"
         style="fill:none;stroke:#ffffff;stroke-width:0.34999999;stroke-linecap:butt;stroke-linejoin:miter;stroke-miterlimit:4;stroke-dasharray:none;stroke-opacity:1" />
      <rect
         y="659.89783"
         x="855.13239"
         height="1.155435"
         width="3.5918956"
         id="rect878-7"
         style="fill:#00529e;fill-opacity:1;stroke:#ffffff;stroke-width:0.34999999;stroke-miterlimit:4;stroke-dasharray:none;stroke-opacity:1" />
      <path
         sodipodi:nodetypes="ccccccc"
         inkscape:connector-curvature="0"
         id="path874-3"
         d="m 837.22598,664.67543 -2.00945,-3.91844 1.78339,-2.38622 10.05322,0.28849 3.65382,4.7714 -1.02238,1.52107 z"
         style="fill:#00529e;fill-opacity:1;stroke:#ffffff;stroke-width:0.34999999;stroke-linecap:butt;stroke-linejoin:miter;stroke-miterlimit:4;stroke-dasharray:none;stroke-opacity:1" />
      <path
         sodipodi:nodetypes="cccccccccc"
         inkscape:connector-curvature="0"
         id="path872-8"
         d="m 835.3447,667.45766 -1.98692,-0.77278 1.05497,-4.21985 4.89804,-1.20567 12.81025,1.15544 5.92789,0.25118 2.05968,2.00945 0.0472,1.60617 -0.32354,1.05635 z"
         style="fill:none;stroke:#ffffff;stroke-width:0.44999999;stroke-linecap:butt;stroke-linejoin:miter;stroke-miterlimit:4;stroke-dasharray:none;stroke-opacity:1" />
      <circle
         r="2.6488328"
         cy="666.26904"
         cx="837.96832"
         id="path844-56"
         style="fill:#00529e;fill-opacity:1;stroke:#ffffff;stroke-width:0.176434;stroke-miterlimit:4;stroke-dasharray:none;stroke-opacity:1" />
      <circle
         r="2.0817182"
         cy="666.26904"
         cx="837.96832"
         id="path844-3-2"
         style="fill:none;fill-opacity:1;stroke:#ffffff;stroke-width:0.37599999;stroke-miterlimit:4;stroke-dasharray:none;stroke-opacity:1" />
      <circle
         r="0.7938078"
         cy="666.26904"
         cx="837.96832"
         id="path844-3-6-91"
         style="fill:none;fill-opacity:1;stroke:#ffffff;stroke-width:0.176434;stroke-miterlimit:4;stroke-dasharray:none;stroke-opacity:1" />
      <circle
         r="2.6488328"
         cy="666.26904"
         cx="843.9967"
         id="path844-7-2"
         style="fill:#00529e;fill-opacity:1;stroke:#ffffff;stroke-width:0.176434;stroke-miterlimit:4;stroke-dasharray:none;stroke-opacity:1" />
      <circle
         r="2.0817182"
         cy="666.26904"
         cx="843.9967"
         id="path844-3-5-7"
         style="fill:none;fill-opacity:1;stroke:#ffffff;stroke-width:0.37599999;stroke-miterlimit:4;stroke-dasharray:none;stroke-opacity:1" />
      <circle
         r="2.6488328"
         cy="666.26904"
         cx="850.02502"
         id="path844-5-0"
         style="fill:#00529e;fill-opacity:1;stroke:#ffffff;stroke-width:0.176434;stroke-miterlimit:4;stroke-dasharray:none;stroke-opacity:1" />
      <circle
         r="2.0817182"
         cy="666.26904"
         cx="850.02502"
         id="path844-3-62-9"
         style="fill:none;fill-opacity:1;stroke:#ffffff;stroke-width:0.37599999;stroke-miterlimit:4;stroke-dasharray:none;stroke-opacity:1" />
      <circle
         r="0.7938078"
         cy="666.26904"
         cx="850.02502"
         id="path844-3-6-9-36"
         style="fill:none;fill-opacity:1;stroke:#ffffff;stroke-width:0.176434;stroke-miterlimit:4;stroke-dasharray:none;stroke-opacity:1" />
      <ellipse
         ry="2.6488328"
         rx="2.6488364"
         cy="666.26904"
         cx="856.05347"
         id="path844-5-1-0"
         style="fill:#00529e;fill-opacity:1;stroke:#ffffff;stroke-width:0.176434;stroke-miterlimit:4;stroke-dasharray:none;stroke-opacity:1" />
      <ellipse
         ry="2.0817182"
         rx="2.0817211"
         cy="666.26904"
         cx="856.05347"
         id="path844-3-62-2-6"
         style="fill:none;fill-opacity:1;stroke:#ffffff;stroke-width:0.37599999;stroke-miterlimit:4;stroke-dasharray:none;stroke-opacity:1" />
      <ellipse
         ry="0.7938078"
         rx="0.79380888"
         cy="666.26904"
         cx="856.05347"
         id="path844-3-6-9-7-2"
         style="fill:none;fill-opacity:1;stroke:#ffffff;stroke-width:0.176434;stroke-miterlimit:4;stroke-dasharray:none;stroke-opacity:1" />
      <path
         transform="matrix(0.0502363,0,0,0.0502363,783.63857,627.38502)"
         inkscape:connector-curvature="0"
         inkscape:original-d="m 1077.5227,716.48376 h 367.6956 c 14.0778,0 28.0801,5.75107 38.0346,15.70555 v 3e-5 c 9.9544,9.95447 15.7055,23.95676 15.7055,38.03451 v 3e-5 6.36396 2e-5 c 0,14.07777 -5.7511,28.08007 -15.7055,38.03455 -9.9545,9.95449 -23.9568,15.70555 -38.0346,15.70555 h -367.6956 c -14.0777,0 -28.08,-5.75105 -38.0345,-15.70551 0,-10e-6 0,-3e-5 0,-4e-5 -9.9545,-9.95449 -15.7056,-23.9568 -15.7056,-38.03457 v -5e-5 -6.36386 -5e-5 c 0,-14.07777 5.7511,-28.08008 15.7056,-38.03457 9.9544,-9.95448 23.9567,-15.70555 38.0345,-15.70555 z"
         inkscape:path-effect="#path-effect4696-7"
         id="rect928-6"
         d="m 1077.6994,713.28671 3.7124,-0.0884 5.7644,0.0472 -5.7644,-0.0472 1.2816,-8.26429 3.0936,-0.0884 2.0329,10.07627 h -10.2972 z m 11.1972,0 3.7124,-0.0884 c 1.9215,0.0157 3.8429,0.0315 5.7644,0.0472 -1.9215,-0.0157 -3.8429,-0.0315 -5.7644,-0.0472 l 1.2816,-8.26429 3.0936,-0.0884 2.0329,10.07626 h -10.2972 z m 11.1972,0 3.7124,-0.0884 5.7644,0.0472 -5.7644,-0.0472 1.2816,-8.26429 3.0936,-0.0884 c 0.6776,3.35876 1.3553,6.71752 2.0329,10.07627 h -10.2972 c 0.059,-0.54506 0.1178,-1.09012 0.1767,-1.63518 z m 11.1972,0 c 1.2375,-0.0295 2.4749,-0.0589 3.7124,-0.0884 l 5.7644,0.0472 -5.7644,-0.0472 1.2816,-8.26429 c 1.0312,-0.0295 2.0624,-0.0589 3.0936,-0.0884 0.6776,3.35876 1.3553,6.71752 2.0329,10.07627 h -10.2972 c 0.059,-0.54506 0.1178,-1.09012 0.1767,-1.63518 z m 11.1972,0 3.7124,-0.0884 c 1.9215,0.0157 3.8429,0.0315 5.7644,0.0472 -1.9215,-0.0157 -3.8429,-0.0315 -5.7644,-0.0472 0.4272,-2.75476 0.8544,-5.50952 1.2816,-8.26429 l 3.0936,-0.0884 c 0.6776,3.35876 1.3553,6.71752 2.0329,10.07627 h -10.2972 z m 11.1972,0 3.7124,-0.0884 c 1.9215,0.0157 3.8429,0.0315 5.7644,0.0472 -1.9215,-0.0157 -3.8429,-0.0315 -5.7644,-0.0472 l 1.2816,-8.26429 3.0936,-0.0884 2.0329,10.07627 -10.2972,1e-5 z m 11.1972,0 c 1.2375,-0.0295 2.4749,-0.0589 3.7124,-0.0884 1.9215,0.0157 3.8429,0.0315 5.7644,0.0472 -1.9215,-0.0157 -3.8429,-0.0315 -5.7644,-0.0472 l 1.2816,-8.26429 c 1.0312,-0.0295 2.0624,-0.0589 3.0936,-0.0884 l 2.0329,10.07627 -10.2972,0 z m 11.1972,0 3.7124,-0.0884 c 1.9215,0.0157 3.8429,0.0315 5.7644,0.0472 -1.9215,-0.0157 -3.8429,-0.0315 -5.7644,-0.0472 l 1.2816,-8.26429 3.0936,-0.0884 2.0329,10.07627 -10.2972,1e-5 z m 11.1972,0 3.7124,-0.0884 c 1.9215,0.0157 3.8429,0.0315 5.7644,0.0472 -1.9215,-0.0157 -3.8429,-0.0315 -5.7644,-0.0472 l 1.2816,-8.26429 3.0936,-0.0884 c 0.6776,3.35876 1.3553,6.71752 2.0329,10.07627 h -10.2972 c 0.059,-0.54506 0.1178,-1.09012 0.1767,-1.63518 z m 11.1972,0 c 1.2375,-0.0295 2.4749,-0.0589 3.7124,-0.0884 1.9215,0.0157 3.8429,0.0315 5.7644,0.0472 -1.9215,-0.0157 -3.8429,-0.0315 -5.7644,-0.0472 0.4272,-2.75476 0.8544,-5.50952 1.2816,-8.26429 1.0312,-0.0295 2.0624,-0.0589 3.0936,-0.0884 l 2.0329,10.07627 h -10.2972 z m 11.1972,0 c 1.2375,-0.0295 2.4749,-0.0589 3.7124,-0.0884 l 5.7644,0.0472 -5.7644,-0.0472 c 0.4272,-2.75476 0.8544,-5.50952 1.2816,-8.26429 1.0312,-0.0295 2.0624,-0.0589 3.0936,-0.0884 0.6776,3.35876 1.3553,6.71752 2.0329,10.07627 h -10.2972 c 0.059,-0.54506 0.1178,-1.09012 0.1767,-1.63518 z m 11.1972,0 3.7124,-0.0884 c 1.9215,0.0157 3.8429,0.0315 5.7644,0.0472 -1.9215,-0.0157 -3.8429,-0.0315 -5.7644,-0.0472 l 1.2816,-8.26429 3.0936,-0.0884 c 0.6776,3.35876 1.3553,6.71752 2.0329,10.07627 h -10.2972 z m 11.1972,0 c 1.2375,-0.0295 2.4749,-0.0589 3.7124,-0.0884 1.9215,0.0157 3.8429,0.0315 5.7644,0.0472 -1.9215,-0.0157 -3.8429,-0.0315 -5.7644,-0.0472 0.4272,-2.75476 0.8544,-5.50952 1.2816,-8.26429 l 3.0936,-0.0884 c 0.6776,3.35876 1.3553,6.71752 2.0329,10.07627 h -10.2972 c 0.059,-0.54506 0.1178,-1.09012 0.1767,-1.63518 z m 11.1972,0 c 1.2375,-0.0295 2.4749,-0.0589 3.7124,-0.0884 l 5.7644,0.0472 -5.7644,-0.0472 1.2816,-8.26429 c 1.0312,-0.0295 2.0624,-0.0589 3.0936,-0.0884 0.6776,3.35876 1.3553,6.71752 2.0329,10.07627 h -10.2972 c 0.059,-0.54506 0.1178,-1.09012 0.1767,-1.63518 z m 11.1972,0 3.7124,-0.0884 c 1.9215,0.0157 3.8429,0.0315 5.7644,0.0472 -1.9215,-0.0157 -3.8429,-0.0315 -5.7644,-0.0472 0.4272,-2.75476 0.8544,-5.50952 1.2816,-8.26429 1.0312,-0.0295 2.0624,-0.0589 3.0936,-0.0884 l 2.0329,10.07627 h -10.2972 z m 11.1972,0 3.7124,-0.0884 5.7644,0.0472 -5.7644,-0.0472 1.2816,-8.26429 3.0936,-0.0884 2.0329,10.07627 h -10.2972 z m 11.1972,0 c 1.2375,-0.0295 2.4749,-0.0589 3.7124,-0.0884 l 5.7644,0.0472 -5.7644,-0.0472 1.2816,-8.26429 3.0936,-0.0884 2.0329,10.07627 h -10.2972 z m 11.1972,0 3.7124,-0.0884 5.7644,0.0472 -5.7644,-0.0472 1.2816,-8.26429 3.0936,-0.0884 2.0329,10.07627 h -10.2972 z m 11.1972,0 3.7124,-0.0884 5.7644,0.0472 -5.7644,-0.0472 1.2816,-8.26429 3.0936,-0.0884 2.0329,10.07627 h -10.2972 z m 11.1972,0 3.7124,-0.0884 5.7644,0.0472 -5.7644,-0.0472 1.2816,-8.26429 3.0936,-0.0884 2.0329,10.07627 h -10.2972 z m 11.1972,0 3.7124,-0.0884 5.7644,0.0472 -5.7644,-0.0472 1.2816,-8.26429 3.0936,-0.0884 2.0329,10.07627 h -10.2972 z m 11.1972,0 3.7124,-0.0884 5.7644,0.0472 -5.7644,-0.0472 1.2816,-8.26429 3.0936,-0.0884 2.0329,10.07627 h -10.2972 z m 11.1972,0 3.7124,-0.0884 5.7644,0.0472 -5.7644,-0.0472 1.2816,-8.26429 3.0936,-0.0884 2.0329,10.07627 h -10.2972 z m 11.1972,0 3.7124,-0.0884 5.7644,0.0472 -5.7644,-0.0472 1.2816,-8.26429 3.0936,-0.0884 2.0329,10.07627 h -10.2972 z m 11.1972,0 3.7124,-0.0884 5.7644,0.0472 -5.7644,-0.0472 1.2816,-8.26429 3.0936,-0.0884 2.0329,10.07627 h -10.2972 z m 11.1972,0 3.7124,-0.0884 5.7644,0.0472 -5.7644,-0.0472 1.2816,-8.26429 3.0936,-0.0884 2.0329,10.07627 h -10.2972 z m 11.1972,0 3.7124,-0.0884 5.7644,0.0472 -5.7644,-0.0472 1.2816,-8.26429 3.0936,-0.0884 2.0329,10.07627 h -10.2972 z m 11.1972,0 3.7124,-0.0884 c 1.9215,0.0157 3.8429,0.0315 5.7644,0.0472 -1.9215,-0.0157 -3.8429,-0.0315 -5.7644,-0.0472 0.4272,-2.75476 0.8544,-5.50952 1.2816,-8.26429 l 3.0936,-0.0884 2.0329,10.07627 h -10.2972 z m 11.1972,0 3.7124,-0.0884 5.7644,0.0472 -5.7644,-0.0472 1.2816,-8.26429 3.0936,-0.0884 2.0329,10.07627 h -10.2972 z m 11.1972,0 3.7124,-0.0884 5.7644,0.0472 -5.7644,-0.0472 1.2816,-8.26429 3.0936,-0.0884 2.0329,10.07627 h -10.2972 z m 11.1972,0 3.7124,-0.0884 5.7644,0.0472 -5.7644,-0.0472 1.2816,-8.26429 3.0936,-0.0884 2.0329,10.07627 h -10.2972 z m 11.1972,0 3.7124,-0.0884 5.7644,0.0472 -5.7644,-0.0472 1.2816,-8.26429 3.0936,-0.0884 2.0329,10.07627 h -10.2972 z m 11.1972,0 3.7124,-0.0884 5.4961,0.045 c 0.095,7.8e-4 0.1901,0.002 0.2851,0.003 -0.095,-0.001 -0.19,-0.002 -0.2851,-0.003 l -5.4961,-0.045 1.2816,-8.26429 3.0936,-0.0884 1.1209,5.55586 c 0.3399,1.50711 0.6529,3.01696 0.9394,4.52891 -0.313,-0.006 -0.6262,-0.008 -0.9394,-0.009 h -9.3852 z m 11.319,0.0413 c 1.3131,0.0212 2.6256,0.0888 3.9345,0.20192 2.0259,0.23679 4.0366,0.5827 6.0222,1.03347 -1.9856,-0.45077 -3.9963,-0.79668 -6.0222,-1.03347 0.7498,-2.68858 1.5649,-5.3647 2.4443,-8.02624 1.2464,0.136 2.4883,0.30767 3.7241,0.51452 0.1735,3.45329 0.2197,6.89841 0.141,10.3285 -3.4405,-0.79633 -6.9561,-1.26785 -10.4884,-1.39179 0.08,-0.54248 0.1611,-1.08478 0.2445,-1.62691 z m 11.7209,1.6932 c 1.2776,0.29182 2.5462,0.62724 3.8028,1.00539 1.9322,0.64565 3.8296,1.39233 5.682,2.2358 -1.8524,-0.84347 -3.7498,-1.59015 -5.682,-2.2358 1.2843,-2.48049 2.6279,-4.93623 4.0299,-7.36507 1.1871,0.38593 2.3638,0.80563 3.5286,1.25861 -0.5327,3.4184 -1.1855,6.80313 -1.9562,10.14735 -3.2081,-1.47583 -6.5549,-2.6516 -9.9818,-3.50454 0.1906,-0.51443 0.3828,-1.02835 0.5767,-1.54174 z m 11.1193,4.04656 c 1.1918,0.54425 2.3662,1.12926 3.5202,1.75418 1.7615,1.02374 3.4684,2.14043 5.1106,3.34582 -1.6422,-1.20539 -3.3491,-2.32208 -5.1106,-3.34582 1.7584,-2.16828 3.5702,-4.2995 5.4345,-6.39153 1.0857,0.62088 2.1552,1.27362 3.207,1.95773 -1.2134,3.23776 -2.5398,6.41637 -3.977,9.52896 -2.8377,-2.10149 -5.8775,-3.92767 -9.0609,-5.45578 0.2905,-0.46538 0.5826,-0.9299 0.8762,-1.39356 z m 10.067,6.22429 c 1.0558,0.77844 2.0857,1.59483 3.087,2.4483 0.7648,0.69274 1.5106,1.40714 2.2362,2.14266 m -2.3053,2.3063 0,0 0,3e-5 0,0 m 2.3047,-2.30571 c 0.6844,0.69616 1.3493,1.40984 1.9943,2.13993 -0.645,-0.73009 -1.3099,-1.44377 -1.9943,-2.13993 z m -2.3047,2.30571 0,0 0,-3e-5 m 2.3053,-2.3063 c -0.7256,-0.73552 -1.4714,-1.44992 -2.2362,-2.14266 2.1721,-1.75195 4.3916,-3.45454 6.6578,-5.10564 0.4968,0.44328 0.9876,0.89488 1.4719,1.35474 m -8.1963,8.19986 0,0 0,3e-5 0,0 m 8.1984,-8.20184 c 0.4026,0.38637 0.7999,0.77769 1.1919,1.17382 -1.866,2.91427 -3.8351,5.74116 -5.9007,8.4776 -0.7676,-0.87665 -1.5641,-1.72868 -2.3887,-2.55398 m -1.1039,1.1044 v 0 -3e-5 0 m 1.1039,-1.10441 c -1.6531,-1.6517 -3.4135,-3.19072 -5.2642,-4.61048 0.3796,-0.39532 0.7605,-0.78945 1.1429,-1.18237 m 8.4827,8.13718 c 0.8665,0.98604 1.6982,2.00281 2.494,3.04764 1.1859,1.65846 2.2812,3.37922 3.282,5.15192 -1.0008,-1.7727 -2.0961,-3.49346 -3.282,-5.15192 2.4939,-1.25147 5.0226,-2.44634 7.5837,-3.58389 0.737,1.01366 1.4446,2.04803 2.1221,3.1016 -2.4397,2.44885 -4.9588,4.79827 -7.551,7.04521 -1.7228,-3.08202 -3.7361,-6.00103 -6.0173,-8.69865 0.4551,-0.30545 0.9112,-0.60942 1.3685,-0.91191 z m 6.6228,9.81313 c 0.6427,1.14186 1.2471,2.30635 1.8118,3.49079 0.8209,1.86436 1.5436,3.77098 2.1645,5.70952 -0.6209,-1.93854 -1.3436,-3.84516 -2.1645,-5.70952 2.6997,-0.71652 5.4209,-1.3725 8.1616,-1.96718 0.5124,1.13811 0.9929,2.29135 1.4407,3.45818 -2.8889,1.90347 -5.8337,3.69548 -8.8279,5.37296 -1.064,-3.36747 -2.4433,-6.63544 -4.1151,-9.7455 0.5089,-0.20468 1.0185,-0.40776 1.5289,-0.60925 z m 4.4789,10.95192 c 0.3983,1.24836 0.7547,2.51125 1.0678,3.786 0.4263,1.99269 0.747,4.00763 0.9584,6.03447 -0.2114,-2.02684 -0.5321,-4.04178 -0.9584,-6.03447 2.7878,-0.15557 5.5842,-0.24662 8.3869,-0.27241 0.2705,1.22155 0.5064,2.45262 0.7072,3.69169 -3.2136,1.27815 -6.4595,2.4328 -9.7313,3.46089 -0.3514,-3.51486 -1.0428,-6.99369 -2.0515,-10.37812 0.5399,-0.0977 1.0802,-0.19374 1.6209,-0.28805 z m 2.1592,11.64027 c 0.1333,1.30554 0.2211,2.61751 0.2621,3.93323 2e-4,0.15202 -3e-4,0.30404 -0,0.45607 m -3.2809,0 0,0 0,3e-5 m 3.2801,0 -0.043,5.2356 z m -3.2801,0 0,0 0,-3e-5 0,0 m 3.2809,0 c 0,-0.15203 0,-0.30405 0,-0.45607 0.923,0.14435 1.8454,0.29636 2.7672,0.45607 m -6.0487,0 0,0 2e-4,3e-5 m 6.6934,0 4.8543,0.7528 0.088,3.0936 -10.0762,2.0329 v -5.8793 m -1.5614,0 v -3e-5 0 m 1.5614,0 c -4e-4,-1.4829 -0.063,-2.96466 -0.185,-4.44099 0.5481,0.0154 1.0962,0.0326 1.6443,0.0517 m 0.1731,11.27578 c 0.016,1.31408 -0.014,2.62861 -0.09,3.94077 -0.1798,2.0325 -0.4698,4.05261 -0.8657,6.05018 0.3959,-1.99757 0.6859,-4.01768 0.8657,-6.05018 2.7085,0.67375 5.4062,1.41358 8.091,2.21854 -0.1015,1.25116 -0.2389,2.49864 -0.4117,3.74081 -3.4469,0.26972 -6.889,0.41133 -10.3196,0.42699 0.7015,-3.46109 1.0748,-6.98879 1.0972,-10.52471 0.5446,0.064 1.0891,0.12988 1.6335,0.1976 z m -1.3653,11.76728 c -0.2567,1.28527 -0.5574,2.56258 -0.9012,3.82912 -0.5928,1.94916 -1.2877,3.86615 -2.0804,5.74083 0.7927,-1.87468 1.4876,-3.79167 2.0804,-5.74083 2.5143,1.21633 5.0056,2.49281 7.4715,3.82848 -0.3534,1.1974 -0.7408,2.38527 -1.1617,3.56196 -3.4315,-0.4398 -6.8328,-1.00062 -10.1969,-1.6803 1.3881,-3.24719 2.4729,-6.62447 3.2315,-10.07347 0.5194,0.17636 1.0383,0.35444 1.5568,0.53421 z m -3.7422,11.22574 c -0.5116,1.20622 -1.0643,2.39607 -1.6573,3.56674 -0.975,1.78875 -2.044,3.52558 -3.2028,5.20032 1.1588,-1.67474 2.2278,-3.41157 3.2028,-5.20032 2.2161,1.6985 4.3967,3.45123 6.5398,5.25723 -0.5904,1.10169 -1.2128,2.18799 -1.8669,3.25727 -3.2704,-1.1239 -6.4849,-2.36173 -9.6369,-3.71133 2.0209,-2.89519 3.7633,-5.98398 5.2043,-9.20798 0.4731,0.2778 0.9455,0.55716 1.417,0.83807 z m -5.9434,10.23375 c -0.7482,1.07692 -1.5347,2.12906 -2.3587,3.15362 -1.0145,1.18657 -2.0793,2.33119 -3.1926,3.42932 -0.3427,0.33696 -0.6898,0.66921 -1.0409,0.9967 0.3511,-0.32749 0.6982,-0.65974 1.0409,-0.9967 1.1133,-1.09813 2.1781,-2.24275 3.1926,-3.42932 1.8137,2.12029 3.5796,4.28887 5.2956,6.50479 -0.8123,0.96405 -1.6548,1.90684 -2.527,2.82675 -0.049,-0.0297 -0.099,-0.0595 -0.1482,-0.0892 -2.9144,-1.75944 -5.7458,-3.62125 -8.4911,-5.57925 0.5039,-0.46581 0.999,-0.94152 1.4849,-1.42696 2.0151,-2.01688 3.8625,-4.19336 5.5303,-6.49888 0.4059,0.36832 0.8106,0.73805 1.2142,1.10917 z m -7.9671,8.78342 c -0.9631,0.89294 -1.958,1.75161 -2.982,2.57476 -1.6273,1.22938 -3.3194,2.36901 -5.066,3.41515 1.7466,-1.04614 3.4387,-2.18577 5.066,-3.41515 1.3164,2.46003 2.5767,4.9564 3.7801,7.48687 -0.9952,0.76377 -2.0119,1.49851 -3.0485,2.20348 -2.5112,-2.37494 -4.9246,-4.83229 -7.2369,-7.36556 3.0367,-1.8012 5.9025,-3.88985 8.539,-6.24319 0.3175,0.44673 0.6337,0.89461 0.9483,1.34364 z m -9.6395,6.87791 c -1.1251,0.67173 -2.2738,1.30558 -3.4436,1.90029 -1.8429,0.86799 -3.7305,1.63879 -5.6526,2.30867 1.9221,-0.66988 3.8097,-1.44068 5.6526,-2.30867 0.7847,2.68039 1.5093,5.38405 2.1731,8.10874 -1.1248,0.54134 -2.2654,1.0511 -3.4204,1.52852 -1.9758,-2.83965 -3.8417,-5.73815 -5.5946,-8.68899 3.3394,-1.14913 6.5714,-2.61046 9.6375,-4.36123 0.2176,0.50342 0.4336,1.00765 0.648,1.51267 z m -10.8344,4.75585 c -1.2378,0.42992 -2.4911,0.81836 -3.7573,1.16404 -1.9809,0.47708 -3.9866,0.84955 -6.0066,1.11366 2.02,-0.26411 4.0257,-0.63658 6.0066,-1.11366 0.227,2.78323 0.3899,5.57665 0.4881,8.37804 -1.2134,0.30156 -2.437,0.56897 -3.6693,0.80148 -1.3605,-3.17987 -2.599,-6.39503 -3.7125,-9.63896 3.504,-0.44321 6.9641,-1.22338 10.3218,-2.31775 0.1114,0.53727 0.2212,1.07499 0.3292,1.61315 z m -11.579,2.45816 c -1.3011,0.16752 -2.6097,0.28995 -3.923,0.36601 -0.6465,0.018 -1.2934,0.0247 -1.9405,0.02 l -3.9389,-0.0323 3.9389,0.0323 c 0.6471,0.005 1.294,-0.002 1.9405,-0.02 -0.3568,2.76854 -0.7815,5.5342 -1.275,8.29477 -0.2217,0.008 -0.4435,0.0145 -0.6655,0.02 l -2.5497,0.0729 -2.0329,-10.07627 h 4.5826 c 1.9626,-5e-4 3.9232,-0.10928 5.8718,-0.32246 -10e-4,0.54827 -0,1.09663 -0.01,1.64508 z m -11.5228,0.31257 -3.7124,0.0884 -5.7644,-0.0472 5.7644,0.0472 -1.2816,8.26429 -3.0936,0.0884 -2.0329,-10.07627 h 10.2972 z m -11.1972,0 -3.7124,0.0884 -5.7644,-0.0472 5.7644,0.0472 -1.2816,8.26429 -3.0936,0.0884 -2.0329,-10.07627 h 10.2972 z m -11.1972,0 -3.7124,0.0884 -5.7644,-0.0472 5.7644,0.0472 -1.2816,8.26429 -3.0936,0.0884 -2.0329,-10.07627 h 10.2972 z m -11.1972,0 -3.7124,0.0884 -5.7644,-0.0472 5.7644,0.0472 -1.2816,8.26429 -3.0936,0.0884 -2.0329,-10.07627 h 10.2972 z m -11.1972,0 c -1.2375,0.0295 -2.4749,0.0589 -3.7124,0.0884 l -5.7644,-0.0472 5.7644,0.0472 -1.2816,8.26429 -3.0936,0.0884 -2.0329,-10.07628 h 10.2972 z m -11.1972,-10e-6 -3.7124,0.0884 -5.7644,-0.0472 5.7644,0.0472 -1.2816,8.26429 -3.0936,0.0884 -2.0329,-10.07627 10.2972,0 z m -11.1972,10e-6 -3.7124,0.0884 -5.7644,-0.0472 5.7644,0.0472 -1.2816,8.26429 -3.0936,0.0884 -2.0329,-10.07627 10.2972,10e-6 z m -11.1972,0 -3.7124,0.0884 -5.7644,-0.0472 5.7644,0.0472 -1.2816,8.26428 -3.0936,0.0884 -2.0329,-10.07626 10.2972,-10e-6 z m -11.1972,0 -3.7124,0.0884 -5.7644,-0.0472 5.7644,0.0472 -1.2816,8.26429 -3.0936,0.0884 -2.0329,-10.07628 h 10.2972 z m -11.1972,-10e-6 -3.7124,0.0884 -5.7644,-0.0472 5.7644,0.0472 -1.2816,8.26429 -3.0936,0.0884 -2.0329,-10.07627 h 10.2972 z m -11.1972,10e-6 -3.7124,0.0884 c -1.9215,-0.0157 -3.8429,-0.0315 -5.7644,-0.0472 1.9215,0.0157 3.8429,0.0315 5.7644,0.0472 l -1.2816,8.26429 -3.0936,0.0884 c -0.6776,-3.35875 -1.3553,-6.71751 -2.0329,-10.07626 l 10.2972,-10e-6 z m -11.1972,0 -3.7124,0.0884 -5.7644,-0.0472 5.7644,0.0472 -1.2816,8.26428 -3.0936,0.0884 -2.0329,-10.07626 10.2972,-10e-6 z m -11.1972,0 -3.7124,0.0884 -5.7644,-0.0472 5.7644,0.0472 -1.2816,8.26429 -3.0936,0.0884 -2.0329,-10.07627 10.2972,0 z m -11.1972,0 -3.7124,0.0884 -5.7644,-0.0472 5.7644,0.0472 -1.2816,8.26429 -3.0936,0.0884 -2.0329,-10.07627 h 10.2972 z m -11.1972,0 -3.7124,0.0884 -5.7644,-0.0472 5.7644,0.0472 -1.2816,8.26429 -3.0936,0.0884 -2.0329,-10.07627 h 10.2972 z m -11.1972,0 -3.7124,0.0884 -5.7644,-0.0472 5.7644,0.0472 -1.2816,8.26429 -3.0936,0.0884 -2.0329,-10.07627 h 10.2972 z m -11.1972,0 -3.7124,0.0884 -5.7644,-0.0472 5.7644,0.0472 -1.2816,8.26429 -3.0936,0.0884 -2.0329,-10.07627 h 10.2972 z m -11.1972,0 -3.7124,0.0884 -5.7644,-0.0472 5.7644,0.0472 -1.2816,8.26429 -3.0936,0.0884 -2.0329,-10.07627 h 10.2972 z m -11.1972,0 -3.7124,0.0884 -5.7644,-0.0472 5.7644,0.0472 -1.2816,8.26429 -3.0936,0.0884 -2.0329,-10.07627 h 10.2972 z m -11.1972,0 -3.7124,0.0884 -5.7644,-0.0472 5.7644,0.0472 -1.2816,8.26429 -3.0936,0.0884 -2.0329,-10.07627 h 10.2972 z m -11.1972,0 -3.7124,0.0884 -5.7644,-0.0472 5.7644,0.0472 -1.2816,8.26429 -3.0936,0.0884 -2.0329,-10.07627 h 10.2972 z m -11.1972,0 -3.7124,0.0884 -5.7644,-0.0472 5.7644,0.0472 -1.2816,8.26429 -3.0936,0.0884 -2.0329,-10.07627 h 10.2972 z m -11.1972,0 c -1.2375,0.0295 -2.4749,0.0589 -3.7124,0.0884 l -5.7644,-0.0472 5.7644,0.0472 -1.2816,8.26429 -3.0936,0.0884 -2.0329,-10.07627 h 10.2972 z m -11.1972,0 -3.7124,0.0884 -5.7644,-0.0472 5.7644,0.0472 -1.2816,8.26429 -3.0936,0.0884 -2.0329,-10.07627 h 10.2972 z m -11.1972,0 -3.7124,0.0884 -5.7644,-0.0472 5.7644,0.0472 -1.2816,8.26429 -3.0936,0.0884 -2.0329,-10.07627 h 10.2972 z m -11.1972,0 -3.7124,0.0884 -5.7644,-0.0472 5.7644,0.0472 -1.2816,8.26429 -3.0936,0.0884 -2.0329,-10.07627 h 10.2972 z m -11.1972,0 c -1.2375,0.0295 -2.4749,0.0589 -3.7124,0.0884 l -5.7644,-0.0472 5.7644,0.0472 -1.2816,8.26429 -3.0936,0.0884 -2.0329,-10.07627 h 10.2972 z m -11.1972,0 -3.7124,0.0884 -5.7644,-0.0472 5.7644,0.0472 -1.2816,8.26429 -3.0936,0.0884 -2.0329,-10.07627 h 10.2972 z m -11.1972,0 -3.7124,0.0884 -5.7644,-0.0472 5.7644,0.0472 -1.2816,8.26429 -3.0936,0.0884 -2.0329,-10.07627 h 10.2972 z m -11.1972,0 -3.7124,0.0884 -5.7644,-0.0472 5.7644,0.0472 -1.2816,8.26429 -3.0936,0.0884 -2.0329,-10.07627 h 10.2972 z m -11.1972,0 -3.7124,0.0884 -5.7644,-0.0472 5.7644,0.0472 -1.2816,8.26429 -3.0936,0.0884 -2.0329,-10.07627 h 10.2972 z m -11.1972,0 -3.7124,0.0884 -5.7644,-0.0472 5.7644,0.0472 -1.2816,8.26429 -3.0936,0.0884 -2.0329,-10.07627 h 10.2972 z m -11.1972,0 -3.7124,0.0884 -0.014,-1.2e-4 c -2.0391,-0.0168 -4.0733,-0.14621 -6.0924,-0.38415 2.0191,0.23794 4.0533,0.3674 6.0924,0.38415 l 0.014,1.2e-4 -0.014,0.087 c -0.4503,2.7255 -0.9676,5.44494 -1.5507,8.15623 -1.2606,-0.003 -2.5196,-0.042 -3.7756,-0.11743 -0.5436,-3.41492 -0.9564,-6.83468 -1.2406,-10.25244 2.1772,0.26629 4.3708,0.40244 6.5669,0.403 h 3.9026 z m -11.6223,-0.56526 c -1.302,-0.15598 -2.5992,-0.35699 -3.8888,-0.60216 -1.9896,-0.44084 -3.9545,-0.98683 -5.8845,-1.63373 1.93,0.6469 3.8949,1.19289 5.8845,1.63373 -1.0191,2.5997 -2.1005,5.18091 -3.2433,7.74152 -1.2226,-0.26025 -2.4379,-0.55523 -3.6441,-0.88448 0.1755,-3.45441 0.4747,-6.88817 0.8954,-10.29443 3.344,1.13577 6.7941,1.95885 10.2921,2.44647 -0.1353,0.53137 -0.2724,1.0624 -0.4113,1.59308 z m -11.4826,-2.86746 c -1.2419,-0.41769 -2.4706,-0.8776 -3.6833,-1.37886 -1.8582,-0.83463 -3.6719,-1.76633 -5.431,-2.79085 1.7591,1.02452 3.5728,1.95622 5.431,2.79085 -1.5239,2.34063 -3.1043,4.65048 -4.7403,6.92741 -1.1426,-0.50285 -2.2721,-1.03853 -3.3868,-1.60655 0.8692,-3.34816 1.855,-6.65018 2.9552,-9.89919 3.044,1.78891 6.2577,3.28988 9.5827,4.48014 -0.2409,0.49303 -0.4834,0.98539 -0.7275,1.47705 z m -10.6603,-5.13482 c -1.1315,-0.6612 -2.2414,-1.36178 -3.3269,-2.10088 -1.6498,-1.19766 -3.2354,-2.48429 -4.7465,-3.85567 1.5111,1.37138 3.0967,2.65801 4.7465,3.85567 -1.9685,1.97743 -3.9875,3.91179 -6.0561,5.80093 -1.0209,-0.73046 -2.0226,-1.49184 -3.0037,-2.28367 1.5374,-3.09616 3.1844,-6.12067 4.9387,-9.06669 2.6059,2.3882 5.445,4.51322 8.4589,6.35229 -0.3355,0.43369 -0.6725,0.86637 -1.0109,1.29802 z m -9.3875,-7.22655 c -0.2987,-0.27274 -0.5946,-0.54894 -0.8876,-0.82858 m 2.2789,-2.27989 c 0,0 0,0 0,0 -6e-4,-10e-6 -6e-4,-3e-5 0,-4e-5 m -2.2806,2.28157 c -0.6325,-0.60587 -1.2503,-1.22677 -1.8529,-1.86193 -1.3609,-1.5235 -2.6349,-3.11951 -3.8182,-4.77769 1.1833,1.65818 2.4573,3.25419 3.8182,4.77769 -2.3437,1.51445 -4.7287,2.97433 -7.1529,4.3789 -0.8449,-0.93432 -1.6618,-1.89223 -2.4499,-2.87219 2.1625,-2.69637 4.4165,-5.29946 6.7555,-7.80621 1.7574,2.48583 3.7214,4.82639 5.8774,6.98427 m 1.1039,-1.10441 c -3e-4,1e-5 -3e-4,3e-5 0,4e-5 0,0 0,0 0,0 m -1.1039,1.10441 c 0.3206,0.32028 0.6451,0.63632 0.9736,0.94808 -0.4192,0.35335 -0.8397,0.70535 -1.2615,1.05598 m -7.5732,-8.98275 c -0.7595,-1.0685 -1.4825,-2.16376 -2.1677,-3.28311 -1.0109,-1.76896 -1.9274,-3.59041 -2.7459,-5.45401 0.8185,1.8636 1.735,3.68505 2.7459,5.45401 -2.6094,0.99279 -5.247,1.92705 -7.9107,2.80205 -0.6292,-1.07973 -1.2278,-2.17743 -1.795,-3.29158 2.6752,-2.1918 5.4183,-4.27828 8.2229,-6.25638 1.4069,3.23904 3.1166,6.34617 5.1061,9.26298 -0.4843,0.25688 -0.9695,0.51223 -1.4556,0.76604 z m -5.595,-10.42701 c -0.5256,-1.20017 -1.0111,-2.419 -1.4553,-3.65382 -0.6313,-1.93688 -1.1609,-3.90623 -1.585,-5.8977 0.4241,1.99147 0.9537,3.96082 1.585,5.8977 -2.7575,0.44511 -5.5302,0.82773 -8.3159,1.14711 -0.3961,-1.18409 -0.7591,-2.38057 -1.0881,-3.58789 3.0635,-1.60728 6.1712,-3.0972 9.3169,-4.4667 0.7218,3.45689 1.771,6.84535 3.1249,10.10701 -0.5269,0.15308 -1.0544,0.30451 -1.5825,0.45429 z m -3.365,-11.34525 c -0.2712,-1.28252 -0.4986,-2.57559 -0.6811,-3.87657 -0.2223,-2.02726 -0.3354,-4.06695 -0.3356,-6.10875 2e-4,2.0418 0.1133,4.08149 0.3356,6.10875 -2.7881,-0.1286 -5.5784,-0.32365 -8.3686,-0.58589 -0.1457,-1.24746 -0.2556,-2.50168 -0.329,-3.76115 2.8939,-0.82005 5.8036,-1.54221 8.7247,-2.16446 m 2.8725,0 2e-4,-5e-5 0,0 m -2.377,0 0.8163,-0.16471 v 0.16471 m 1.5611,0 v 0 5e-5 m -1.5611,0 c 9e-4,3.44546 0.3355,6.88482 0.9829,10.26406 -0.5468,0.0431 -1.0937,0.0844 -1.6409,0.12401 m -0.9771,-11.62953 -0.088,-3.7124 0.011,-1.41005 m 3.2723,0 0,0 0,-5e-5 m -3.2715,0 c 0.012,-1.50814 0.087,-3.01357 0.2205,-4.51222 -0.134,1.49865 -0.2081,3.00408 -0.2205,4.51222 z m 3.2715,0 0,5e-5 0,0 m -3.2723,0 -0.011,1.41005 -8.2643,-1.2816 -0,-0.12845 m 11.5476,0 0,-5e-5 0,0 m -11.5505,0 c -0.025,-1.1691 -0.019,-2.3375 0.018,-3.50392 3.3986,-0.64162 6.8055,-1.15152 10.2137,-1.53184 -0.1571,1.67294 -0.237,3.35362 -0.2375,5.03576 m 1.5611,0 v 5e-5 0 m -1.5611,0 v 5.29915 l -1.6351,-0.1767 m 0.3632,-11.44615 c 0.1196,-1.30625 0.2846,-2.60883 0.4942,-3.90493 0.3859,-2.00132 0.878,-3.98056 1.4721,-5.92758 -0.5941,1.94702 -1.0862,3.92626 -1.4721,5.92758 -2.6264,-0.94697 -5.236,-1.95711 -7.8267,-3.02948 0.2267,-1.23008 0.4884,-2.45361 0.7846,-3.66896 3.4576,0.0809 6.8979,0.28638 10.3141,0.61437 -1.0444,3.37361 -1.7728,6.84491 -2.1624,10.35552 -0.5349,-0.12039 -1.0695,-0.24256 -1.6038,-0.36652 z m 2.5511,-11.55839 c 0.3838,-1.25284 0.8101,-2.4936 1.2782,-3.71948 0.7838,-1.88024 1.6657,-3.71863 2.6416,-5.50504 -0.9759,1.78641 -1.8578,3.6248 -2.6416,5.50504 -2.3813,-1.45996 -4.7334,-2.97718 -7.0543,-4.5507 0.4713,-1.15577 0.9757,-2.29915 1.5127,-3.42849 3.3708,0.77795 6.6988,1.67344 9.9773,2.68432 -1.7047,3.09209 -3.1182,6.34536 -4.2177,9.70144 -0.4994,-0.2274 -0.9981,-0.45643 -1.4962,-0.68709 z m 4.842,-10.79628 c 0.6297,-1.14919 1.2991,-2.27789 2.0075,-3.38329 1.1509,-1.68211 2.3919,-3.30261 3.7187,-4.85135 -1.3268,1.54874 -2.5678,3.16924 -3.7187,4.85135 -2.032,-1.91257 -4.0226,-3.87647 -5.9696,-5.89073 0.7009,-1.03953 1.433,-2.06081 2.1958,-3.06218 3.1383,1.44959 6.2083,3.00964 9.2033,4.67799 -2.3112,2.67249 -4.356,5.56965 -6.1114,8.63311 -0.4429,-0.32349 -0.8848,-0.64846 -1.3256,-0.9749 z m 6.9571,-9.58373 c 0.6095,-0.70746 1.2376,-1.40033 1.8841,-2.0776 0.2635,-0.27506 0.5298,-0.54733 0.7989,-0.81678 1.4874,-1.40247 3.0499,-2.71897 4.677,-3.94577 -1.6271,1.2268 -3.1896,2.5433 -4.677,3.94577 -1.5777,-2.30228 -3.1013,-4.64757 -4.5701,-7.03363 0.9133,-0.8706 1.8509,-1.71348 2.8112,-2.52789 2.7537,2.08979 5.4157,4.27402 7.9827,6.5462 -2.0555,1.53542 -4.0036,3.21592 -5.822,5.03278 -0.6837,0.68432 -1.3482,1.38701 -1.9928,2.10689 -0.3653,-0.40867 -0.7293,-0.81866 -1.092,-1.22997 z m 8.8496,-7.89247 c 1.0486,-0.7872 2.125,-1.53837 3.2265,-2.25224 1.7426,-1.05611 3.5402,-2.01884 5.3824,-2.88443 -1.8422,0.86559 -3.6398,1.82832 -5.3824,2.88443 -1.0593,-2.58262 -2.0605,-5.19517 -3.003,-7.83543 1.0639,-0.65703 2.1464,-1.28378 3.246,-1.8795 2.2591,2.61804 4.4144,5.30696 6.4628,8.06025 -3.2022,1.48864 -6.2645,3.27686 -9.1287,5.34189 -0.2693,-0.47735 -0.5372,-0.95567 -0.8036,-1.43497 z m 10.2809,-5.86081 c 1.1864,-0.55591 2.3926,-1.07217 3.6157,-1.54752 1.9201,-0.68026 3.8753,-1.2597 5.855,-1.73458 -1.9797,0.47488 -3.9349,1.05432 -5.855,1.73458 -0.5149,-2.74543 -0.9677,-5.50772 -1.3578,-8.28466 1.1733,-0.4261 2.3597,-0.81936 3.5576,-1.17903 1.6846,3.0218 3.2533,6.09091 4.7031,9.20082 -3.4373,0.8102 -6.7982,1.94473 -10.0244,3.38083 -0.1664,-0.52286 -0.3311,-1.04634 -0.4942,-1.57044 z m 11.2553,-3.65274 c 1.275,-0.30401 2.5615,-0.56477 3.8569,-0.781 2.0202,-0.27491 4.0554,-0.44157 6.0951,-0.49623 -2.0397,0.0547 -4.0749,0.22132 -6.0951,0.49623 0.056,-2.79072 0.1772,-5.58524 0.3655,-8.38133 1.2418,-0.17781 2.491,-0.32022 3.7462,-0.42648 1.0301,3.30106 1.9322,6.62587 2.7034,9.96791 -3.5342,0.0779 -7.0556,0.50493 -10.5058,1.25826 -0.057,-0.54552 -0.1125,-1.0913 -0.1662,-1.63736 z"
         style="fill:none;fill-opacity:1;stroke:#ffffff;stroke-width:3.98118496;stroke-miterlimit:4;stroke-dasharray:none;stroke-opacity:1" />
      <circle
         r="0.7938078"
         cy="666.26904"
         cx="843.9967"
         id="path844-3-6-9-3-1"
         style="fill:none;fill-opacity:1;stroke:#ffffff;stroke-width:0.176434;stroke-miterlimit:4;stroke-dasharray:none;stroke-opacity:1" />
    </g>
  </g>
</svg>
