<?xml version="1.0" encoding="UTF-8" standalone="no"?>
<!-- Created with Inkscape (http://www.inkscape.org/) -->
<svg
   xmlns:dc="http://purl.org/dc/elements/1.1/"
   xmlns:cc="http://web.resource.org/cc/"
   xmlns:rdf="http://www.w3.org/1999/02/22-rdf-syntax-ns#"
   xmlns:svg="http://www.w3.org/2000/svg"
   xmlns="http://www.w3.org/2000/svg"
   xmlns:xlink="http://www.w3.org/1999/xlink"
   xmlns:sodipodi="http://sodipodi.sourceforge.net/DTD/sodipodi-0.dtd"
   xmlns:inkscape="http://www.inkscape.org/namespaces/inkscape"
   width="48px"
   height="48px"
   id="svg1872"
   sodipodi:version="0.32"
   inkscape:version="0.44"
   sodipodi:docname="warzone2100.svg">
  <defs
     id="defs1874">
    <linearGradient
       id="linearGradient2839">
      <stop
         style="stop-color:#a6cbea;stop-opacity:1;"
         offset="0"
         id="stop2841" />
      <stop
         id="stop2851"
         offset="1"
         style="stop-color:#0069bf;stop-opacity:1;" />
    </linearGradient>
    <radialGradient
       inkscape:collect="always"
       xlink:href="#linearGradient2839"
       id="radialGradient2859"
       cx="0.64382273"
       cy="7.8258533"
       fx="0.64382273"
       fy="7.8258533"
       r="23.564184"
       gradientTransform="matrix(0.831873,-1.37502e-7,0,0.860453,1.233849,6.243388)"
       gradientUnits="userSpaceOnUse" />
  </defs>
  <sodipodi:namedview
     id="base"
     pagecolor="#ffffff"
     bordercolor="#666666"
     borderopacity="1.0"
     inkscape:pageopacity="0.0"
     inkscape:pageshadow="2"
     inkscape:zoom="15.999999"
     inkscape:cx="23.941465"
     inkscape:cy="22.961081"
     inkscape:current-layer="layer2"
     showgrid="true"
     inkscape:grid-bbox="true"
     inkscape:document-units="px"
     gridspacingx="0.25px"
     gridspacingy="0.25px"
     inkscape:window-width="1275"
     inkscape:window-height="970"
     inkscape:window-x="0"
     inkscape:window-y="0"
     showguides="true" />
  <metadata
     id="metadata1877">
    <rdf:RDF>
      <cc:Work
         rdf:about="">
        <dc:format>image/svg+xml</dc:format>
        <dc:type
           rdf:resource="http://purl.org/dc/dcmitype/StillImage" />
        <cc:license
           rdf:resource="http://creativecommons.org/licenses/GPL/2.0/" />
        <dc:title>Warzone 2100</dc:title>
        <dc:date>2006-08-07</dc:date>
        <dc:creator>
          <cc:Agent>
            <dc:title>Linas Žvirblis</dc:title>
          </cc:Agent>
        </dc:creator>
      </cc:Work>
      <cc:License
         rdf:about="http://creativecommons.org/licenses/GPL/2.0/">
        <cc:permits
           rdf:resource="http://web.resource.org/cc/Reproduction" />
        <cc:permits
           rdf:resource="http://web.resource.org/cc/Distribution" />
        <cc:requires
           rdf:resource="http://web.resource.org/cc/Notice" />
        <cc:permits
           rdf:resource="http://web.resource.org/cc/DerivativeWorks" />
        <cc:requires
           rdf:resource="http://web.resource.org/cc/ShareAlike" />
        <cc:requires
           rdf:resource="http://web.resource.org/cc/SourceCode" />
      </cc:License>
    </rdf:RDF>
  </metadata>
  <g
     id="layer1"
     inkscape:label="Background"
     inkscape:groupmode="layer"
     style="display:inline"
     sodipodi:insensitive="true">
    <path
       style="opacity:1;color:black;fill:url(#radialGradient2859);fill-opacity:1;fill-rule:evenodd;stroke:#003d7f;stroke-width:1.18707633;stroke-linecap:butt;stroke-linejoin:miter;marker:none;marker-start:none;marker-mid:none;marker-end:none;stroke-miterlimit:4;stroke-dasharray:none;stroke-dashoffset:0;stroke-opacity:1;visibility:visible;display:inline;overflow:visible"
       d="M 47.444564,25.45069 L 43.247444,30.406462 L 4.7760058,30.406462 L 0.59353814,25.45069 L 0.59353814,14.441617 L 3.613157,11.593538 L 44.23004,11.593538 L 47.444564,14.838121 L 47.444564,25.45069 z "
       id="path1947"
       sodipodi:nodetypes="ccccccccc" />
    <path
       style="opacity:1;color:black;fill:#0069bf;fill-opacity:1;fill-rule:evenodd;stroke:#003d7f;stroke-width:1.34607196;stroke-linecap:butt;stroke-linejoin:miter;marker:none;marker-start:none;marker-mid:none;marker-end:none;stroke-miterlimit:4;stroke-dasharray:none;stroke-dashoffset:0;stroke-opacity:1;visibility:visible;display:inline;overflow:visible"
       d="M 35.607693,39.076964 L 12.702654,39.076964 L 8.3170871,30.52666 L 12.799094,26.173036 L 35.628364,26.173036 L 39.721015,30.52666 L 35.607693,39.076964 z "
       id="path2837"
       sodipodi:nodetypes="ccccccc" />
  </g>
  <g
     inkscape:groupmode="layer"
     id="layer2"
     inkscape:label="Text"
     style="display:inline"
     sodipodi:insensitive="true">
    <g
       id="g2852"
       transform="matrix(1,0,0,1.121213,0.5,-3.674267)">
      <use
         height="48"
         width="48"
         transform="matrix(0,0.891892,-1,0,37.00108,26.02027)"
         id="use2835"
         xlink:href="#rect2869"
         y="0"
         x="0" />
      <use
         height="48"
         width="48"
         transform="matrix(-1,0,0,-0.891892,20.5,49.43742)"
         id="use2837"
         xlink:href="#rect2869"
         y="0"
         x="0" />
      <use
         height="48"
         width="48"
         transform="matrix(0,0.891892,-1,0,37.00108,26.02681)"
         id="use2841"
         xlink:href="#path5630"
         y="0"
         x="0" />
      <use
         height="48"
         width="48"
         transform="matrix(1,0,0,0.891892,10.75,15.08961)"
         id="use2843"
         xlink:href="#rect2869"
         y="0"
         x="0" />
      <use
         height="48"
         width="48"
         transform="matrix(0,-0.891892,1,0,-5.755583,38.50675)"
         id="use2845"
         xlink:href="#rect2869"
         y="0"
         x="0" />
      <use
         height="48"
         width="48"
         transform="matrix(1,0,0,0.891892,20.75,11.52606)"
         id="use2847"
         xlink:href="#rect2869"
         y="0"
         x="0" />
      <use
         height="48"
         width="48"
         transform="matrix(0,0.891892,-1,0,47.00108,26.24324)"
         id="use2849"
         xlink:href="#rect2869"
         y="0"
         x="0" />
      <use
         height="48"
         width="48"
         transform="matrix(1,0,0,0.891892,20.75,15.3166)"
         id="use2851"
         xlink:href="#rect2869"
         y="0"
         x="0" />
      <use
         height="48"
         width="48"
         transform="matrix(0,-0.891892,1,0,4.248922,38.72973)"
         id="use2853"
         xlink:href="#rect2869"
         y="0"
         x="0" />
      <use
         height="48"
         width="48"
         transform="matrix(-1,0,0,-0.891892,30.5,49.66039)"
         id="use2855"
         xlink:href="#rect2869"
         y="0"
         x="0" />
      <use
         height="48"
         width="48"
         transform="matrix(-1,0,0,-0.891892,30.5,53.45093)"
         id="use2857"
         xlink:href="#rect2869"
         y="0"
         x="0" />
      <use
         height="48"
         width="48"
         transform="matrix(-1,0,0,-0.891892,24.5,53.44691)"
         id="use2859"
         xlink:href="#rect2869"
         y="0"
         x="0" />
      <use
         height="48"
         width="48"
         transform="matrix(-1,0,0,-0.891892,24.5,49.65637)"
         id="use2861"
         xlink:href="#rect2869"
         y="0"
         x="0" />
      <use
         height="48"
         width="48"
         transform="matrix(1,0,0,0.891892,26.75,11.52204)"
         id="use2863"
         xlink:href="#rect2869"
         y="0"
         x="0" />
      <use
         height="48"
         width="48"
         transform="matrix(1,0,0,0.891892,26.75,15.31258)"
         id="use2865"
         xlink:href="#rect2869"
         y="0"
         x="0" />
      <use
         height="48"
         width="48"
         transform="matrix(0,0.891892,-1,0,53.00559,26.24324)"
         id="use2867"
         xlink:href="#rect2869"
         y="0"
         x="0" />
      <use
         height="48"
         width="48"
         transform="matrix(-1,0,0,-0.891892,36.5,49.66039)"
         id="use2869"
         xlink:href="#rect2869"
         y="0"
         x="0" />
      <use
         height="48"
         width="48"
         transform="matrix(-1,0,0,-0.891892,36.5,53.44691)"
         id="use2871"
         xlink:href="#rect2869"
         y="0"
         x="0" />
      <use
         height="48"
         width="48"
         transform="matrix(8.852539e-8,-0.891892,1,7.895508e-8,10.24442,38.72973)"
         id="use2873"
         xlink:href="#rect2869"
         y="0"
         x="0" />
    </g>
    <g
       id="g2875"
       transform="translate(4.502e-3,0)">
      <rect
         y="20"
         x="7"
         height="2.5820365"
         width="0.80342841"
         id="rect4736"
         style="opacity:0;color:black;fill:white;fill-opacity:1;fill-rule:evenodd;stroke:white;stroke-width:1.20000005;stroke-linecap:butt;stroke-linejoin:miter;marker:none;marker-start:none;marker-mid:none;marker-end:none;stroke-miterlimit:4;stroke-dasharray:none;stroke-dashoffset:0;stroke-opacity:1;visibility:visible;display:inline;overflow:visible" />
      <rect
         y="19.5"
         x="6"
         height="2.9683943"
         width="2.4221468"
         id="rect4738"
         style="opacity:0;color:black;fill:white;fill-opacity:1;fill-rule:evenodd;stroke:white;stroke-width:1.20000005;stroke-linecap:butt;stroke-linejoin:miter;marker:none;marker-start:none;marker-mid:none;marker-end:none;stroke-miterlimit:4;stroke-dasharray:none;stroke-dashoffset:0;stroke-opacity:1;visibility:visible;display:inline;overflow:visible" />
      <path
         sodipodi:nodetypes="ccccc"
         id="rect2869"
         d="M 2.5063135,19.255583 L 3.5,20.259422 L 3.5,22.498817 L 2.5,23.501078 L 2.5063135,19.255583 z "
         style="opacity:1;color:black;fill:white;fill-opacity:1;fill-rule:evenodd;stroke:none;stroke-width:1.20000005;stroke-linecap:butt;stroke-linejoin:miter;marker:none;marker-start:none;marker-mid:none;marker-end:none;stroke-miterlimit:4;stroke-dasharray:none;stroke-dashoffset:0;stroke-opacity:1;visibility:visible;display:inline;overflow:visible" />
      <use
         height="48"
         width="48"
         transform="translate(0,-4.505583)"
         id="use2874"
         xlink:href="#rect2869"
         y="0"
         x="0" />
      <use
         height="48"
         width="48"
         transform="matrix(0,-1,1,0,-16.50108,26.2455)"
         id="use2876"
         xlink:href="#rect2869"
         y="0"
         x="0" />
      <use
         height="48"
         width="48"
         transform="matrix(0,-1,1,0,-12.25559,26.25108)"
         id="use2878"
         xlink:href="#rect2869"
         y="0"
         x="0" />
      <use
         height="48"
         width="48"
         transform="matrix(-1,0,0,-1,14,42.75216)"
         id="use2890"
         xlink:href="#rect2869"
         y="0"
         x="0" />
      <use
         height="48"
         width="48"
         transform="matrix(-1,0,0,-1,14,38.50216)"
         id="use2892"
         xlink:href="#rect2869"
         y="0"
         x="0" />
      <use
         height="48"
         width="48"
         transform="translate(10,-4.005585)"
         id="use3799"
         xlink:href="#rect2869"
         y="0"
         x="0" />
      <use
         height="48"
         width="48"
         transform="translate(10,0.244415)"
         id="use3801"
         xlink:href="#rect2869"
         y="0"
         x="0" />
      <use
         height="48"
         width="48"
         transform="matrix(-1,0,0,-1,19.75,38.75108)"
         id="use3803"
         xlink:href="#rect2869"
         y="0"
         x="0" />
      <use
         height="48"
         width="48"
         transform="matrix(-1,0,0,-1,19.75,43.00108)"
         id="use3805"
         xlink:href="#rect2869"
         y="0"
         x="0" />
      <use
         height="48"
         width="48"
         transform="translate(15.75,-4.00108)"
         id="use3807"
         xlink:href="#rect2869"
         y="0"
         x="0" />
      <use
         height="48"
         width="48"
         transform="translate(15.75,0.24892)"
         id="use3809"
         xlink:href="#rect2869"
         y="0"
         x="0" />
      <use
         height="48"
         width="48"
         transform="matrix(0,1,-1,0,36.25108,12.5)"
         id="use3811"
         xlink:href="#rect2869"
         y="0"
         x="0" />
      <use
         height="48"
         width="48"
         transform="matrix(-1,0,0,-1,25.5,38.75559)"
         id="use3813"
         xlink:href="#rect2869"
         y="0"
         x="0" />
      <use
         height="48"
         width="48"
         transform="matrix(0,1,-1,0,42.00108,12.5)"
         id="use3815"
         xlink:href="#rect2869"
         y="0"
         x="0" />
      <use
         height="48"
         width="48"
         transform="matrix(0,1,-1,0,47.49911,12.5)"
         id="use4702"
         xlink:href="#rect2869"
         y="0"
         x="0" />
      <use
         height="48"
         width="48"
         transform="matrix(0,-1,1,0,4.996953,26.5)"
         id="use4704"
         xlink:href="#rect2869"
         y="0"
         x="0" />
      <use
         height="48"
         width="48"
         transform="translate(26.99999,0.24892)"
         id="use4706"
         xlink:href="#rect2869"
         y="0"
         x="0" />
      <use
         height="48"
         width="48"
         transform="translate(26.99999,-4.00108)"
         id="use4708"
         xlink:href="#rect2869"
         y="0"
         x="0" />
      <use
         height="48"
         width="48"
         transform="matrix(0,1,-1,0,53.25107,12.5)"
         id="use4710"
         xlink:href="#rect2869"
         y="0"
         x="0" />
      <use
         height="48"
         width="48"
         transform="matrix(0,-1,1,0,10.4944,26.5)"
         id="use4712"
         xlink:href="#rect2869"
         y="0"
         x="0" />
      <use
         height="48"
         width="48"
         transform="matrix(-1,0,0,-1,36.74999,43.00108)"
         id="use4714"
         xlink:href="#rect2869"
         y="0"
         x="0" />
      <use
         height="48"
         width="48"
         transform="matrix(-1,0,0,-1,36.74999,38.75559)"
         id="use4716"
         xlink:href="#rect2869"
         y="0"
         x="0" />
      <use
         height="48"
         width="48"
         transform="translate(32.75,0.24892)"
         id="use4718"
         xlink:href="#rect2869"
         y="0"
         x="0" />
      <use
         height="48"
         width="48"
         transform="translate(32.75,-4.00108)"
         id="use4720"
         xlink:href="#rect2869"
         y="0"
         x="0" />
      <use
         height="48"
         width="48"
         transform="matrix(0,1,-1,0,59.00108,12.5)"
         id="use4722"
         xlink:href="#rect2869"
         y="0"
         x="0" />
      <use
         height="48"
         width="48"
         transform="matrix(-1,0,0,-1,42.5,38.75559)"
         id="use4724"
         xlink:href="#rect2869"
         y="0"
         x="0" />
      <use
         height="48"
         width="48"
         transform="matrix(-1,0,0,-1,42.5,43.00108)"
         id="use4726"
         xlink:href="#rect2869"
         y="0"
         x="0" />
      <use
         height="48"
         width="48"
         transform="translate(38.5,-4.00108)"
         id="use4728"
         xlink:href="#rect2869"
         y="0"
         x="0" />
      <use
         height="48"
         width="48"
         transform="translate(38.5,0.24892)"
         id="use4730"
         xlink:href="#rect2869"
         y="0"
         x="0" />
      <use
         height="48"
         width="48"
         transform="matrix(0,1,-1,0,64.75108,12.5)"
         id="use4732"
         xlink:href="#rect2869"
         y="0"
         x="0" />
      <use
         height="48"
         width="48"
         transform="matrix(0,-1,1,0,21.99442,26.5)"
         id="use4734"
         xlink:href="#rect2869"
         y="0"
         x="0" />
      <path
         sodipodi:nodetypes="ccccccc"
         id="path5630"
         d="M 7.4965023,22.750785 L 6.9951826,23.252757 L 6.4926649,22.756413 L 6.4982808,19.996543 L 7.005736,19.501078 L 7.5,20.013153 L 7.4965023,22.750785 z "
         style="opacity:1;color:black;fill:white;fill-opacity:1;fill-rule:evenodd;stroke:none;stroke-width:1.20000005;stroke-linecap:butt;stroke-linejoin:miter;marker:none;marker-start:none;marker-mid:none;marker-end:none;stroke-miterlimit:4;stroke-dasharray:none;stroke-dashoffset:0;stroke-opacity:1;visibility:visible;display:inline;overflow:visible" />
      <use
         height="48"
         width="48"
         transform="translate(7.3351e-3,-3.752757)"
         id="use5633"
         xlink:href="#path5630"
         y="0"
         x="0" />
      <use
         height="48"
         width="48"
         transform="matrix(0,1,-1,0,36.25276,12.5)"
         id="use5635"
         xlink:href="#path5630"
         y="0"
         x="0" />
      <use
         height="48"
         width="48"
         transform="matrix(0,1,-1,0,42.00108,12.50734)"
         id="use1924"
         xlink:href="#path5630"
         y="0"
         x="0" />
      <use
         height="48"
         width="48"
         transform="matrix(0,1,-1,0,64.75108,12.50734)"
         id="use1936"
         xlink:href="#path5630"
         y="0"
         x="0" />
      <use
         height="48"
         width="48"
         transform="matrix(0.707683,-0.764375,0.707684,0.764375,4.349462,7.697301)"
         id="use2833"
         xlink:href="#rect2869"
         y="0"
         x="0" />
      <use
         height="48"
         width="48"
         transform="matrix(-0.707107,-0.943001,0.707107,-0.943001,12.14802,44.26904)"
         id="use1954"
         xlink:href="#rect2869"
         y="0"
         x="0" />
      <use
         height="48"
         width="48"
         transform="matrix(0.707107,0.943002,-0.707107,0.943002,40.34353,-5.269058)"
         id="use1958"
         xlink:href="#rect2869"
         y="0"
         x="0" />
    </g>
  </g>
</svg>
