<?xml version="1.0" encoding="UTF-8" standalone="no"?>
<!-- Created with Inkscape (http://www.inkscape.org/) -->
<svg
   xmlns:dc="http://purl.org/dc/elements/1.1/"
   xmlns:cc="http://creativecommons.org/ns#"
   xmlns:rdf="http://www.w3.org/1999/02/22-rdf-syntax-ns#"
   xmlns:svg="http://www.w3.org/2000/svg"
   xmlns="http://www.w3.org/2000/svg"
   xmlns:xlink="http://www.w3.org/1999/xlink"
   xmlns:sodipodi="http://sodipodi.sourceforge.net/DTD/sodipodi-0.dtd"
   xmlns:inkscape="http://www.inkscape.org/namespaces/inkscape"
   version="1.0"
   width="29.123524"
   height="15.469339"
   id="svg2427"
   sodipodi:version="0.32"
   inkscape:version="0.46"
   sodipodi:docname="tank.svg"
   inkscape:output_extension="org.inkscape.output.svg.inkscape">
  <metadata
     id="metadata38">
    <rdf:RDF>
      <cc:Work
         rdf:about="">
        <dc:format>image/svg+xml</dc:format>
        <dc:type
           rdf:resource="http://purl.org/dc/dcmitype/StillImage" />
      </cc:Work>
    </rdf:RDF>
  </metadata>
  <sodipodi:namedview
     inkscape:window-height="949"
     inkscape:window-width="1280"
     inkscape:pageshadow="2"
     inkscape:pageopacity="0.0"
     guidetolerance="10.0"
     gridtolerance="10.0"
     objecttolerance="10.0"
     borderopacity="1.0"
     bordercolor="#666666"
     pagecolor="#ffffff"
     id="base"
     showgrid="false"
     inkscape:zoom="37.083425"
     inkscape:cx="14.865159"
     inkscape:cy="7.9666428"
     inkscape:window-x="0"
     inkscape:window-y="25"
     inkscape:current-layer="svg2427" />
  <defs
     id="defs2429">
    <linearGradient
       id="linearGradient8263">
      <stop
         id="stop8265"
         style="stop-color:#a4d9fa;stop-opacity:1"
         offset="0" />
      <stop
         id="stop8267"
         style="stop-color:#7bb8d9;stop-opacity:1"
         offset="1" />
    </linearGradient>
    <linearGradient
       x1="206.62498"
       y1="18.28126"
       x2="213.06248"
       y2="18.28126"
       id="linearGradient22930"
       xlink:href="#linearGradient8263"
       gradientUnits="userSpaceOnUse"
       gradientTransform="matrix(-1.9031491,0,0,1.1671945,636.79085,561.08998)" />
    <linearGradient
       x1="198.49998"
       y1="19.31251"
       x2="211.56248"
       y2="19.31251"
       id="linearGradient22948"
       xlink:href="#linearGradient8263"
       gradientUnits="userSpaceOnUse"
       gradientTransform="matrix(-1.5316156,0,0,1.2604045,556.79848,559.38599)" />
    <linearGradient
       x1="196.43748"
       y1="23.68751"
       x2="211.99998"
       y2="23.68751"
       id="linearGradient22966"
       xlink:href="#linearGradient8263"
       gradientUnits="userSpaceOnUse"
       gradientTransform="matrix(-1.5316156,0,0,1.2604045,556.79848,559.38599)" />
    <linearGradient
       x1="198.87418"
       y1="24.687429"
       x2="209.28143"
       y2="24.687429"
       id="linearGradient22970"
       xlink:href="#linearGradient8263"
       gradientUnits="userSpaceOnUse"
       gradientTransform="matrix(-1.5316156,0,0,1.2604045,556.79848,559.38599)" />
    <linearGradient
       x1="188.18748"
       y1="10.37501"
       x2="191.68748"
       y2="10.37501"
       id="linearGradient22974"
       xlink:href="#linearGradient8263"
       gradientUnits="userSpaceOnUse" />
    <linearGradient
       x1="188.18748"
       y1="10.37501"
       x2="191.68748"
       y2="10.37501"
       id="linearGradient22978"
       xlink:href="#linearGradient8263"
       gradientUnits="userSpaceOnUse" />
    <linearGradient
       x1="188.18748"
       y1="10.37501"
       x2="191.68748"
       y2="10.37501"
       id="linearGradient22982"
       xlink:href="#linearGradient8263"
       gradientUnits="userSpaceOnUse" />
  </defs>
  <text
     style="font-size:14px;font-style:normal;font-weight:normal;fill:#000000;fill-opacity:1;stroke:none;stroke-width:1px;stroke-linecap:butt;stroke-linejoin:miter;stroke-opacity:1;font-family:Bitstream Vera Sans"
     xml:space="preserve"
     id="text10696"
     y="544.72595"
     x="-1681.4875"><tspan
       id="tspan10698"
       y="544.72595"
       x="-1681.4875" /></text>
  <text
     style="font-size:14px;font-style:normal;font-weight:normal;fill:#000000;fill-opacity:1;stroke:none;stroke-width:1px;stroke-linecap:butt;stroke-linejoin:miter;stroke-opacity:1;font-family:Bitstream Vera Sans"
     xml:space="preserve"
     id="text10704"
     y="562.51361"
     x="-1676.8971"><tspan
       id="tspan10706"
       y="562.51361"
       x="-1676.8971" /></text>
  <g
     id="g16110"
     transform="translate(-2549.902,-330.82843)">
    <g
       id="g16114" />
  </g>
  <g
     style="fill:#000000;fill-opacity:1;stroke:#000000;stroke-opacity:0.34812287"
     id="g16096"
     transform="translate(-2547.0895,-328.82843)">
    <g
       style="fill:#000000;fill-opacity:1;stroke:#000000;stroke-opacity:0.34812287"
       id="g16100" />
  </g>
  <g
     style="stroke:#bacee1;stroke-opacity:0.74744029"
     id="g25764"
     transform="matrix(1.01286,0,0,1.01286,776.627,225.10448)" />
  <g
     style="fill:#000000;fill-opacity:0.47058824;stroke:#000000;stroke-opacity:0.44709898"
     id="g20762"
     transform="matrix(-0.7755503,0,0,0.7755503,205.5802,-452.51523)">
    <path
       style="fill:#000000;fill-opacity:0.47058824;fill-rule:evenodd;stroke:#000000;stroke-width:0.58997083;stroke-linecap:butt;stroke-linejoin:miter;stroke-miterlimit:4;stroke-dasharray:none;stroke-opacity:0.44709898"
       id="path20764"
       d="M 244.68713,589.18617 L 234.33876,589.18617 L 234.33876,590.13451 L 244.56818,590.13451 L 244.68713,589.18617 z" />
    <path
       style="fill:#000000;fill-opacity:0.47058824;fill-rule:evenodd;stroke:#000000;stroke-width:0.58997083;stroke-linecap:butt;stroke-linejoin:miter;stroke-miterlimit:4;stroke-dasharray:none;stroke-opacity:0.44709898"
       id="path20767"
       d="M 255.63081,592.87859 L 254.12906,591.03891 C 254.02298,590.90896 253.55471,589.50279 250.77865,588.99075 C 248.0026,588.47871 246.16432,588.49341 243.88638,588.99075 C 242.71375,589.24677 242.33084,589.60126 241.49323,590.32993 C 240.65564,591.0586 241.13427,591.25554 239.67444,591.90543 C 238.21463,592.55533 235.85427,593.00513 236.2283,593.00829 C 238.22585,593.02518 255.8735,593.17588 255.63081,592.87859 z" />
    <path
       style="fill:#000000;fill-opacity:0.47058824;fill-rule:evenodd;stroke:#000000;stroke-width:0.58997083;stroke-linecap:butt;stroke-linejoin:miter;stroke-miterlimit:4;stroke-dasharray:none;stroke-opacity:0.44709898"
       id="path20769"
       d="M 253.1718,593.32339 L 256.61793,593.95359 L 257.28802,597.34093 L 256.71366,598.91643 C 256.71366,598.91643 255.40356,598.51642 255.3735,598.39286 C 254.94684,597.88539 255.00132,597.71409 254.70242,596.91442 C 254.38241,596.05825 253.51337,595.38201 252.98997,595.10259 L 247.14106,595.13522 L 240.53597,595.214 C 240.53597,595.214 239.00941,595.64278 238.45904,596.30729 C 237.97206,596.89526 237.70965,597.99898 237.70965,597.99898 L 236.13258,598.75888 L 234.98387,596.71073 L 236.99411,594.34747 L 240.91888,593.40216 L 253.1718,593.32339 z" />
    <path
       style="fill:#000000;fill-opacity:0.47058824;fill-rule:evenodd;stroke:#000000;stroke-width:0.58997083;stroke-linecap:butt;stroke-linejoin:miter;stroke-miterlimit:4;stroke-dasharray:none;stroke-opacity:0.44709898"
       id="path20771"
       d="M 251.78376,595.8048 L 240.871,595.96235 C 239.27392,595.98541 238.77699,597.12428 238.76503,597.77418 C 238.74798,598.69973 239.50183,599.66962 240.82314,599.66479 L 251.59231,599.6254 C 253.31456,599.6191 253.88973,598.6801 253.93759,597.65602 C 253.98173,596.71141 252.86344,595.78921 251.78376,595.8048 z" />
  </g>
  <g
     style="stroke:#cdecff;stroke-opacity:0.49803922"
     id="g20773"
     transform="matrix(-0.7755503,0,0,0.7755503,203.1787,-447.97487)">
    <path
       style="fill:url(#linearGradient22930);fill-opacity:1;fill-rule:evenodd;stroke:#cdecff;stroke-width:0.58997083;stroke-linecap:butt;stroke-linejoin:miter;stroke-miterlimit:4;stroke-dasharray:none;stroke-opacity:0.49803922"
       id="path20776"
       d="M 242.60111,581.9536 L 232.25274,581.9536 L 232.25274,582.90194 L 242.48217,582.90194 L 242.60111,581.9536 z" />
    <path
       style="fill:url(#linearGradient22948);fill-opacity:1;fill-rule:evenodd;stroke:#cdecff;stroke-width:0.58997083;stroke-linecap:butt;stroke-linejoin:miter;stroke-miterlimit:4;stroke-dasharray:none;stroke-opacity:0.49803922"
       id="path20778"
       d="M 253.50874,585.64602 L 252.00699,583.80634 C 251.90091,583.67639 251.43263,582.27022 248.65658,581.75818 C 245.88053,581.24614 244.04225,581.26084 241.76431,581.75818 C 240.59168,582.0142 240.20877,582.36869 239.37116,583.09736 C 238.53357,583.82603 239.0122,584.02297 237.55237,584.67286 C 236.09255,585.32276 233.7322,585.77256 234.10623,585.77572 C 236.10378,585.79261 253.75143,585.94331 253.50874,585.64602 z" />
    <path
       style="fill:url(#linearGradient22966);fill-opacity:1;fill-rule:evenodd;stroke:#cdecff;stroke-width:0.58997083;stroke-linecap:butt;stroke-linejoin:miter;stroke-miterlimit:4;stroke-dasharray:none;stroke-opacity:0.49803922"
       id="path20780"
       d="M 251.04973,586.09082 L 254.49586,586.72102 L 255.16595,590.10836 L 254.59159,591.68386 C 254.59159,591.68386 253.28149,591.28385 253.25143,591.16029 C 252.82477,590.65282 252.87925,590.48152 252.58035,589.68185 C 252.26034,588.82568 251.3913,588.14944 250.8679,587.87002 L 245.01899,587.90265 L 238.4139,587.98143 C 238.4139,587.98143 236.88734,588.41021 236.33697,589.07472 C 235.84999,589.66269 235.58758,590.76641 235.58758,590.76641 L 234.01051,591.52631 L 232.8618,589.47816 L 234.87204,587.1149 L 238.79681,586.16959 L 251.04973,586.09082 z" />
    <path
       style="fill:url(#linearGradient22970);fill-opacity:1;fill-rule:evenodd;stroke:#cdecff;stroke-width:0.58997083;stroke-linecap:butt;stroke-linejoin:miter;stroke-miterlimit:4;stroke-dasharray:none;stroke-opacity:0.49803922"
       id="path20782"
       d="M 249.66169,588.57223 L 238.74893,588.72978 C 237.15185,588.75284 236.65492,589.89171 236.64296,590.54161 C 236.62591,591.46717 237.37976,592.43705 238.70106,592.43222 L 249.47024,592.39283 C 251.19249,592.38653 251.76766,591.44753 251.81552,590.42345 C 251.85966,589.47884 250.74137,588.55664 249.66169,588.57223 z" />
    <path
       style="fill:url(#linearGradient22974);fill-opacity:1;fill-rule:evenodd;stroke:#cdecff;stroke-width:0.42462021;stroke-linecap:butt;stroke-linejoin:bevel;stroke-miterlimit:4;stroke-dasharray:none;stroke-dashoffset:0;stroke-opacity:0.49803922"
       id="path20784"
       transform="matrix(-1.5316156,0,0,1.2604045,540.42934,577.40723)"
       d="M 191.43748,10.37501 C 191.43748,11.203437 190.76591,11.87501 189.93748,11.87501 C 189.10905,11.87501 188.43748,11.203437 188.43748,10.37501 C 188.43748,9.5465829 189.10905,8.87501 189.93748,8.87501 C 190.76591,8.87501 191.43748,9.5465829 191.43748,10.37501 L 191.43748,10.37501 z" />
    <path
       style="fill:url(#linearGradient22978);fill-opacity:1;fill-rule:evenodd;stroke:#cdecff;stroke-width:0.50593048;stroke-linecap:butt;stroke-linejoin:bevel;stroke-miterlimit:4;stroke-dasharray:none;stroke-dashoffset:0;stroke-opacity:0.49803922"
       id="path20786"
       transform="matrix(-1.2854631,0,0,1.0578395,488.3151,579.52714)"
       d="M 191.43748,10.37501 C 191.43748,11.203437 190.76591,11.87501 189.93748,11.87501 C 189.10905,11.87501 188.43748,11.203437 188.43748,10.37501 C 188.43748,9.5465829 189.10905,8.87501 189.93748,8.87501 C 190.76591,8.87501 191.43748,9.5465829 191.43748,10.37501 L 191.43748,10.37501 z" />
    <path
       style="fill:url(#linearGradient22982);fill-opacity:1;fill-rule:evenodd;stroke:#cdecff;stroke-width:0.42462021;stroke-linecap:butt;stroke-linejoin:bevel;stroke-miterlimit:4;stroke-dasharray:none;stroke-dashoffset:0;stroke-opacity:0.49803922"
       id="path20788"
       transform="matrix(-1.5316156,0,0,1.2604045,529.89947,577.5043)"
       d="M 191.43748,10.37501 C 191.43748,11.203437 190.76591,11.87501 189.93748,11.87501 C 189.10905,11.87501 188.43748,11.203437 188.43748,10.37501 C 188.43748,9.5465829 189.10905,8.87501 189.93748,8.87501 C 190.76591,8.87501 191.43748,9.5465829 191.43748,10.37501 L 191.43748,10.37501 z" />
  </g>
</svg>
